<?xml version="1.0" encoding="utf-8"?>
<!-- Generator: Adobe Illustrator 24.1.0, SVG Export Plug-In . SVG Version: 6.00 Build 0)  -->
<svg version="1.1" id="Layer_1" xmlns="http://www.w3.org/2000/svg" xmlns:xlink="http://www.w3.org/1999/xlink" x="0px" y="0px"
	 viewBox="0 0 65.6 64.2" style="enable-background:new 0 0 65.6 64.2;" xml:space="preserve">
<style type="text/css">
	.st0{fill:none;stroke:url(#SVGID_1_);stroke-miterlimit:10;}
</style>
<g>
	<g>
		<g>
		</g>
		<g>
		</g>
	</g>
	<g>
	</g>
</g>
<linearGradient id="SVGID_1_" gradientUnits="userSpaceOnUse" x1="20.3699" y1="6.9571" x2="47.1353" y2="53.316">
	<stop  offset="0.2335" style="stop-color:#FFB900"/>
	<stop  offset="0.3285" style="stop-color:#DDB72E"/>
	<stop  offset="0.4605" style="stop-color:#B2B468"/>
	<stop  offset="0.5824" style="stop-color:#90B296"/>
	<stop  offset="0.6903" style="stop-color:#78B0B7"/>
	<stop  offset="0.7799" style="stop-color:#69AFCB"/>
	<stop  offset="0.8404" style="stop-color:#64AFD2"/>
</linearGradient>
<path class="st0" d="M32.9,0l-0.2,11.5 M52.4,22.4l9.9-5.6 M4.2,16.8l9.9,5.6 M44.7,14l2.8-4.9 M16.7,10.2l3.4,4.5 M47.7,33.8
	c0.7-4.5-0.6-9.3-4-12.9c-5.7-6-15.3-6.3-21.3-0.5c-3.8,3.6-5.3,8.6-4.5,13.4 M43.2,33.8h22.4 M43.2,33.8 M25.4,33.8 M0,33.8h25.9
	 M21.2,40c-2.5,6.7,0.3,13.7,6.3,15.8c6,2.1,12.8-1.6,15.3-8.2c3.4-8.9-0.5-20.5-6.4-24.7C33,30.9,23.7,33.3,21.2,40z M33,40.2
	c-6.3,5.7-8.2,16.3-4.3,23.8"/>
</svg>
