<?xml version="1.0" encoding="utf-8"?>
<!-- Generator: Adobe Illustrator 23.0.4, SVG Export Plug-In . SVG Version: 6.00 Build 0)  -->
<svg version="1.1" id="Layer_1" xmlns="http://www.w3.org/2000/svg" xmlns:xlink="http://www.w3.org/1999/xlink" x="0px" y="0px"
	 viewBox="0 0 72 72" style="enable-background:new 0 0 72 72;" xml:space="preserve">
<style type="text/css">
	.st0{clip-path:url(#SVGID_2_);fill:url(#SVGID_3_);}
</style>
<g>
	<defs>
		<rect id="SVGID_1_" width="72" height="72"/>
	</defs>
	<clipPath id="SVGID_2_">
		<use xlink:href="#SVGID_1_"  style="overflow:visible;"/>
	</clipPath>
	
		<linearGradient id="SVGID_3_" gradientUnits="userSpaceOnUse" x1="0" y1="72.0023" x2="1" y2="72.0023" gradientTransform="matrix(26.7653 46.3589 46.3589 -26.7653 -3314.3755 1937.6488)">
		<stop  offset="0" style="stop-color:#FFB900"/>
		<stop  offset="0.2335" style="stop-color:#FFB900"/>
		<stop  offset="0.3297" style="stop-color:#DCB72F"/>
		<stop  offset="0.4612" style="stop-color:#B2B468"/>
		<stop  offset="0.5828" style="stop-color:#90B296"/>
		<stop  offset="0.6903" style="stop-color:#78B0B7"/>
		<stop  offset="0.7799" style="stop-color:#69AFCB"/>
		<stop  offset="0.8404" style="stop-color:#64AFD2"/>
		<stop  offset="1" style="stop-color:#64AFD2"/>
	</linearGradient>
	<path class="st0" d="M36,3.6l-0.2,11.5l0,0L36,3.6z M55.4,26l9.9-5.6l0,0L55.4,26z M7.3,20.4l9.9,5.6l0,0L7.3,20.4z M47.8,17.6
		l2.8-4.9l0,0L47.8,17.6z M19.8,13.8l3.4,4.5l0,0L19.8,13.8z M50.8,37.4c0.1-0.8,0.2-1.6,0.2-2.5c0-3.7-1.4-7.5-4.2-10.4
		c-3-3.1-6.9-4.7-10.9-4.7c-3.7,0-7.5,1.4-10.4,4.2c-3.1,3-4.7,6.9-4.7,10.9c0,0.8,0.1,1.6,0.2,2.4l0,0c-0.1-0.8-0.2-1.6-0.2-2.4
		c0-4,1.6-8,4.7-10.9c2.9-2.8,6.7-4.2,10.4-4.2c4,0,8,1.6,10.9,4.7C49.6,27.5,51,31.2,51,35C51,35.8,50.9,36.6,50.8,37.4L50.8,37.4z
		 M46.3,37.4h22.4l0,0H46.3z M3.1,37.4H29l0,0H3.1z M24.3,43.6L24.3,43.6c-0.6,1.7-0.9,3.3-0.9,5c0,4.9,2.7,9.3,7.2,10.9
		c1.1,0.4,2.3,0.6,3.4,0.6c4.9,0,9.8-3.5,11.9-8.8c0.9-2.3,1.3-4.7,1.3-7.2c0-7.1-3.3-14.4-7.7-17.5C36,34.5,26.8,36.9,24.3,43.6
		L24.3,43.6L24.3,43.6c2.5-6.7,11.8-9.1,15.2-17.1c4.4,3.1,7.7,10.4,7.7,17.5c0,2.5-0.4,4.9-1.3,7.2C43.8,56.5,38.9,60,34,60
		c-1.2,0-2.3-0.2-3.4-0.6c-4.5-1.6-7.2-6-7.2-10.9C23.4,46.9,23.7,45.2,24.3,43.6L24.3,43.6z M36,43.8c-4.1,3.7-6.3,9.5-6.3,15.1
		c0,3,0.7,6,2,8.6l0,0c-1.4-2.6-2-5.6-2-8.6C29.7,53.3,32,47.5,36,43.8L36,43.8z"/>
</g>
</svg>
