<svg id="8cac0ba9-81b3-40a4-b5cd-5ba3a1f79664" data-name="Layer 1" xmlns="http://www.w3.org/2000/svg" viewBox="0 0 125.23 102.36"><path d="M82,22c-2.12,2-3.71,3.69-5.48,5.15-2.3,1.9-1,3.24.5,4.66s2.45,3.57,4.87,1.2c4.6-4.48,9.28-8.88,14-13.27,1.45-1.35,1.7-2.44.18-4C91.42,11,86.81,6.17,82.37,1.24c-2.49-2.75-3.61-.24-5.14,1-1.71,1.35-2.71,2.7-.55,4.64,1.79,1.6,11.18,10.71,10.17,10.61Z" fill="#2e9e46"/><path d="M110.16,56.49c-2.12,2-3.71,3.68-5.48,5.14-2.31,1.91-1,3.25.5,4.67s2.45,3.56,4.87,1.2c4.6-4.49,9.28-8.89,14-13.27,1.45-1.35,1.7-2.44.18-4-4.63-4.75-9.24-9.53-13.69-14.46-2.48-2.75-3.6-.25-5.13,1-1.71,1.35-2.71,2.7-.55,4.63C106.62,43,116,52.08,115,52Z" fill="#2e9e46"/><path d="M82,90.31c-2.12,2-3.71,3.69-5.48,5.15-2.3,1.91-1,3.25.5,4.66s2.45,3.57,4.87,1.21c4.6-4.49,9.28-8.89,14-13.27,1.45-1.35,1.7-2.45.18-4-4.63-4.74-9.24-9.53-13.68-14.46-2.49-2.75-3.61-.24-5.14,1-1.71,1.34-2.71,2.69-.55,4.63,1.79,1.6,11.18,10.71,10.17,10.61Z" fill="#2e9e46"/><path d="M90.25,22.59l-2,0c-1.31,0-3.3-.1-5.7-.07l-3.7.27c-.68.06-1.38.06-2.11.16l-2.3.39L72,23.71c-.84.14-1.67.43-2.54.64l-2.68.72-2.76,1c-1.89.61-3.8,1.62-5.81,2.49-2,1-4.07,2.07-6.24,3.28C47.6,34.2,43,37,37.52,38.86A65.2,65.2,0,0,1,10.7,42.51c-5.68-.39-5.57-5.7.05-5.67A71.57,71.57,0,0,0,35.1,31.57c4.11-1.73,8.89-4.78,13.14-7.43,2.1-1.34,4.27-2.6,6.34-3.84s4.21-2.33,6.35-3.19L64,15.77l3-1c1-.32,2-.7,2.9-.93l2.79-.65,2.62-.6c.85-.18,1.7-.25,2.5-.37l4.45-.58c2.54-.18,4.43-.21,5.76-.29l2-.09Z" fill="#2e9e46"/><path d="M87.63,91.42l-2.12,0c-1.3,0-3.6-.13-6.36-.41a69.62,69.62,0,0,1-9.84-1.78,65.91,65.91,0,0,1-12.2-4.59c-4.29-2.06-8.6-4.74-13-7.34s-6.8-3.66-13.94-6.77-18.89-4-26.35-4.2c-4.68-.12-5.44-5.31-.16-5.6A91.82,91.82,0,0,1,32,63c6.74,1.68,10.94,4,15.59,6.43s8.85,4.68,12.78,6.28A56.34,56.34,0,0,0,71.24,79.1a59.12,59.12,0,0,0,8.61,1c2.39.08,4.15.09,5.62,0l2.12-.07Z" fill="#2e9e46"/><path d="M117.17,57.12,41.74,55.78c-6.12-.11-6.13-6.79,0-7s75.37-3,75.37-3Z" fill="#2e9e46"/></svg>