<svg id="e5c15c4a-307f-4e85-bb20-168792841d34" data-name="Layer 1" xmlns="http://www.w3.org/2000/svg" viewBox="0 0 105.72 110.39"><path d="M57.36,60.52a5.7,5.7,0,0,1-5.68,5.82,5.84,5.84,0,0,1-5.76-5.79,5.72,5.72,0,0,1,5.64-5.66A5.59,5.59,0,0,1,57.36,60.52Z" fill="#007db6"/><path d="M53.37,53.65H50.16V47.38c0-5.9,0-9.12.06-15a2.47,2.47,0,0,1,1.42-1.85c1.16-.28,1.73.65,1.73,1.81C53.38,40.31,53.37,45.63,53.37,53.65Z" fill="#007db6"/><path d="M44.75,62.19l1.4,2.93c-3.21,1.78-6.37,3.63-9.63,5.27A2.69,2.69,0,0,1,34,70c-.88-.94-.09-1.79.85-2.32C38.13,65.87,41.38,64.07,44.75,62.19Z" fill="#007db6"/><path d="M19.47,43.23l-2.23-1.35,1.16-2,2.25,1.19Z" fill="#007db6"/><path d="M17.24,79l2.15-1.24,1.29,2-2.25,1.33Z" fill="#007db6"/><path d="M52.82,99.51H50.65V97.07h2.17Z" fill="#007db6"/><path d="M34.52,28.15l-2.1,1.18-1.31-2.15,2.06-1.25Z" fill="#007db6"/><path d="M15,61.6H12.71V59.34H15Z" fill="#007db6"/><path d="M32.38,91.51l2.1,1.22-1.27,2.18-2.08-1.15Z" fill="#007db6"/><path d="M50.65,21.33v2.44h2.23V21.33Z" fill="#007db6"/><path d="M96.53,79.64c-.1-.42-.2-.84-.29-1.26a46.16,46.16,0,0,1-.16-16.9,25.57,25.57,0,0,1,1-4,20.89,20.89,0,0,1,5.58-8.95c5.48-5.22,3.45-15.75-4.11-19.89a2.82,2.82,0,0,0-1.31-.42c-.81,0-1.24.69-1.27,2-.08,3.26-.19,6.53-.2,9.8a2,2,0,0,1-1.43,2.13,6.78,6.78,0,0,1-2.74.64h-.24A6.45,6.45,0,0,1,88.74,42a2.08,2.08,0,0,1-1.43-2.3l.09-2.51c.06-2.54.08-5.09.18-7.63,0-1-.3-1.49-1.07-1.49a2.68,2.68,0,0,0-.45.05,6.12,6.12,0,0,0-2,.68,13.59,13.59,0,0,0-2.83,2.26,14.15,14.15,0,0,0-3.87,8.56,11.57,11.57,0,0,0,3.72,9.72,14.55,14.55,0,0,1,3.47,6c2.37,6.68,2.15,13.59,1,20.48-.71,4.36-2.11,8.51-5.48,11.58a11.5,11.5,0,0,0-3.78,6.4,12.73,12.73,0,0,0-.15,3.67,14,14,0,0,0,2.08,6.18,14.27,14.27,0,0,0,4.78,4.53,2.94,2.94,0,0,0,1.46.51c.84,0,1.31-.7,1.34-2,.07-2.61.12-5.23.18-7.84,0-.89,0-1.57.08-2.11a2.06,2.06,0,0,1,1.78-2.09c.44-.14,1-.27,1.7-.43a2.74,2.74,0,0,1,.5,0,10.57,10.57,0,0,1,3.42,1.07,1.86,1.86,0,0,1,.9,1.4c.07,1.79,0,3.59-.07,5.39,0,1.58-.08,3.16-.11,4.74,0,1.4.45,2.17,1.33,2.17a2.88,2.88,0,0,0,1.46-.51,17.38,17.38,0,0,0,4-3.25c4.39-4.91,4.54-12.35.35-16.64A19,19,0,0,1,96.53,79.64ZM92.78,61.8q-.19,9.15-.4,18.3c0,.44,0,.87,0,1.31-.06,1.07-.55,1.78-1.7,1.78h0c-1.22,0-1.76-.72-1.74-1.88,0-3.11.12-6.22.19-9.32,0-1.09,0-2.18.07-3.27q.12-5.72.25-11.43c0-.44-.14-1,.07-1.29.45-.62,1-1.43,1.67-1.57a1.26,1.26,0,0,1,.37,0c.85,0,1.35.73,1.35,1.7C92.88,58,92.83,59.89,92.78,61.8Z" fill="#007db6"/><path d="M41.11,20.25a41,41,0,0,1,21.17,0,40.34,40.34,0,0,1,8,3,1.76,1.76,0,0,0,2.43-1,25.17,25.17,0,0,1,3-5.49A1.77,1.77,0,0,0,75,14.18,52.29,52.29,0,0,0,56.38,8.81h0c-.41,0-.83-.07-1.25-.09-.63-.06-1.26-.08-1.87-.11l-1.52,0h0l-1.52,0c-.63,0-1.25.06-1.87.11L47,8.81h0A51.71,51.71,0,0,0,10.3,29.32C-3.48,47.7-3.6,74.48,10.94,92.48s40.17,23,60.69,12.39c1.72-.89.88-3.67-1-3.25-7,1.55-24.19,3.76-37.33-3.63-11-6.19-21.77-18.53-23.13-35C8.54,43.32,22,25.27,41.11,20.25Z" fill="#007db6"/><path d="M70.38,12.41c-1.54-2.53-2.66-4.59-4-6.49-1.76-2.48-.12-3.45,1.71-4.44s3.35-2.85,5.1.1c3.32,5.61,6.75,11.16,10.2,16.69,1.06,1.7,1,2.84-.88,4-5.79,3.44-11.57,6.91-17.22,10.57-3.16,2.05-3.6-.71-4.78-2.29-1.32-1.77-2-3.36.68-4.69,2.17-1.1,13.78-7.56,12.76-7.73Z" fill="#007db6"/></svg>