<svg id="b36342e4-fe81-4aa4-8b12-aa4a687303b3" data-name="Layer 1" xmlns="http://www.w3.org/2000/svg" viewBox="0 0 114.02 103.84"><path d="M5.5,102.42a3,3,0,0,1-5.43-2.17s9.18-23.34,18-36.75C28.93,47.09,36.17,41.75,36.17,41.75a4.78,4.78,0,0,1,6.38-.86L59,52.3S75.17,18.19,98.6,6.92c0,.48,12.44,13.17,13,12.93-17.62,6.62-45.31,52-45.31,52A7,7,0,0,1,57,73l-15-12.11s-7,4.81-17.45,17.56C12.41,93.36,5.5,102.42,5.5,102.42Z" fill="#fdb913"/><path d="M88.91,13.75c-5,0-9-.24-13,0-5.17.34-5.11-2.91-4.91-6.47C71.18,4,69.84-.1,75.7,0c11.11.2,22.23.19,33.35.14,3.43,0,5,1.06,5,4.81-.2,11.49-.33,23-.08,34.47.14,6.41-4.25,4.59-7.61,4.88-3.75.33-6.61-.18-6.19-5.19.35-4.14,1.37-26.77.21-25.44Z" fill="#fdb913"/></svg>