<svg id="7be59fc3-efd5-41fe-85bb-bcf25e3319d9" data-name="Layer 1" xmlns="http://www.w3.org/2000/svg" xmlns:xlink="http://www.w3.org/1999/xlink" viewBox="0 0 576 576"><defs><linearGradient id="226a3807-6f73-4ef6-b232-cc23d10ff782" x1="329.5" y1="58.4" x2="24.32" y2="332.34" gradientUnits="userSpaceOnUse"><stop offset="0" stop-color="#b2b5b6"/><stop offset="1" stop-color="#e6e7e8"/></linearGradient><linearGradient id="40b07517-3780-4e7c-881e-e8f5c5192385" x1="258.44" y1="128.66" x2="562.65" y2="337.02" gradientUnits="userSpaceOnUse"><stop offset="0" stop-color="#e52823"/><stop offset="1" stop-color="#670000"/></linearGradient><linearGradient id="3feb3476-a50b-4e49-8674-ea70f3335110" x1="20.73" y1="286.1" x2="559.2" y2="286.1" gradientUnits="userSpaceOnUse"><stop offset="0" stop-color="#474c55"/><stop offset="1" stop-color="#a09da2"/></linearGradient></defs><polyline points="41.51 327.39 199.51 223.83 287.89 47 41.51 327.39" fill="url(#226a3807-6f73-4ef6-b232-cc23d10ff782)"/><polygon points="304.68 29.95 207.6 224.22 548.58 338 304.68 29.95" fill="url(#40b07517-3780-4e7c-881e-e8f5c5192385)"/><polyline points="33.12 341.74 536.41 341.74 202.91 230.45 33.12 341.74" fill="url(#3feb3476-a50b-4e49-8674-ea70f3335110)"/><path d="M76.06,480.87H48.85v-11H115.8v11H88.59v76.48H76.06Z" fill="#fff"/><path d="M160.94,468.34c26.58,0,42.12,19.3,42.12,45.25,0,26.58-15.42,45.26-42.12,45.26s-42.13-18.68-42.13-45.26C118.81,487.64,134.36,468.34,160.94,468.34Zm0,79.48c20.18,0,28.83-16.8,28.83-34.23,0-17.8-9.52-34.35-28.83-34.22-19.31-.13-28.84,16.42-28.84,34.22C132.1,531,140.75,547.82,160.94,547.82Z" fill="#fff"/><path d="M218.49,469.84h20.69l27.45,72.72,27-72.72h20.69v87.51H301.74V481.63h-.25l-29,75.72H260.24l-29-75.72H231v75.72H218.49Z" fill="#fff"/><path d="M371.83,468.34c26.58,0,42.12,19.3,42.12,45.25,0,26.58-15.42,45.26-42.12,45.26s-42.12-18.68-42.12-45.26C329.71,487.64,345.25,468.34,371.83,468.34Zm0,79.48c20.18,0,28.83-16.8,28.83-34.23,0-17.8-9.52-34.35-28.83-34.22-19.31-.13-28.84,16.42-28.84,34.22C343,531,351.65,547.82,371.83,547.82Z" fill="#fff"/><path d="M429.13,469.84h17.05L484.8,540.3h.25V469.84h12.54v87.51h-16l-39.62-72h-.25v72H429.13Z" fill="#fff"/><path d="M517.28,469.84h12.53v87.51H517.28Z" fill="#fff"/><path d="M49,401.66h7.52l10,26.44,9.8-26.44h7.52v31.82H79.31V406h-.09L68.69,433.48H64.22L53.69,406H53.6v27.53H49Z" fill="#fff"/><path d="M92.8,401.66h4.56V415h15.23V401.66h4.56v31.82h-4.56V419H97.36v14.5H92.8Z" fill="#fff"/><path d="M125.76,401.66h8.35c6.52,0,11.94,2.28,11.94,9.53,0,7.06-5.51,9.57-11.26,9.57h-4.47v12.72h-4.56Zm4.56,15.09h4.52c2.82,0,6.38-1.41,6.38-5.61,0-4-4.2-5.47-7-5.47h-3.88Z" fill="#fff"/><path d="M167.3,406.45a14.1,14.1,0,0,0-6-1.32c-2.55,0-5.56.91-5.56,4.24,0,6.1,13.68,4.69,13.68,15.18,0,6.79-5.24,9.48-11.63,9.48a21.44,21.44,0,0,1-6.52-1.32l.46-4.24a19.53,19.53,0,0,0,6.61,1.55c2.6,0,6.25-1.46,6.25-5.2,0-7.11-13.68-5.15-13.68-15,0-5.66,4.47-8.67,10.21-8.67a21.31,21.31,0,0,1,6.79,1.14Z" fill="#fff"/><path d="M190.05,401.66h9.39c9.43,0,16.95,5.84,16.95,15.64,0,10.66-6.47,16.18-16.95,16.18h-9.39Zm4.55,27.81h4.79c7.84,0,12.17-3.78,12.17-12,0-7.43-5.06-11.81-11.62-11.81H194.6Z" fill="#fff"/><path d="M227.56,405h-4.83V400.2h4.83Zm-4.55,5.2h4.28v23.25H223Z" fill="#fff"/><path d="M255.51,432.48c0,7.06-3.65,11.12-12,11.12a23.44,23.44,0,0,1-8.34-1.6l.45-4c3.29,1.5,5.25,2.1,8.39,2.1,4.51,0,7.2-3.06,7.2-8v-2.28h-.09a9.71,9.71,0,0,1-7.79,3.6c-6.66,0-9.94-5.42-9.94-11.44s3.37-12.36,10.39-12.36c4.11,0,6.39,1.51,7.66,4h.09v-3.47h4Zm-4.29-10.35c0-4.83-2.23-9-6.79-9-4.33,0-6.47,4.69-6.47,8.66,0,4.38,2.46,8.21,6.47,8.21S251.22,426.46,251.22,422.13Z" fill="#fff"/><path d="M267.55,405h-4.84V400.2h4.84Zm-4.56,5.2h4.28v23.25H263Z" fill="#fff"/><path d="M287.65,413.7H281.5v12.71c0,2.69,1.64,4.15,3.6,4.15a5.25,5.25,0,0,0,2.91-.82v3.65a13.43,13.43,0,0,1-3.64.64c-4.42,0-7.16-2.1-7.16-6.75V413.7H272v-3.47h5.24v-5.38l4.29-1.37v6.75h6.15Z" fill="#fff"/><path d="M294.49,411.87a14.85,14.85,0,0,1,7.66-2.19c6.65,0,9.34,3.29,9.34,9.62v9.62a34.23,34.23,0,0,0,.19,4.56h-4v-3h-.09a8.63,8.63,0,0,1-7.2,3.56c-5,0-8.52-2.19-8.52-7.25,0-5.84,6.38-7.66,10.8-7.66,1.69,0,2.87,0,4.56.09,0-4-1.46-6.06-5.75-6.06a10.91,10.91,0,0,0-6.74,2.37Zm12.72,10.53c-.91,0-1.83-.09-2.74-.09-2.32,0-8.07.37-8.07,4.47,0,2.46,2.37,3.78,4.33,3.78,4.24,0,6.48-2.64,6.48-6.11Z" fill="#fff"/><path d="M318.56,399.29h4.28v34.19h-4.28Z" fill="#fff"/><path d="M357.49,406.45a14,14,0,0,0-6-1.32c-2.55,0-5.56.91-5.56,4.24,0,6.1,13.68,4.69,13.68,15.18,0,6.79-5.25,9.48-11.63,9.48a21.44,21.44,0,0,1-6.52-1.32l.46-4.24a19.47,19.47,0,0,0,6.61,1.55c2.6,0,6.24-1.46,6.24-5.2,0-7.11-13.67-5.15-13.67-15,0-5.66,4.46-8.67,10.21-8.67a21.35,21.35,0,0,1,6.79,1.14Z" fill="#fff"/><path d="M375.36,409.68c7.07,0,11.81,5.11,11.81,12.18,0,6.65-4.83,12.17-11.81,12.17s-11.85-5.52-11.85-12.17C363.51,414.79,368.25,409.68,375.36,409.68Zm0,20.88c5,0,7.25-4.56,7.25-8.7,0-4.43-2.69-8.71-7.25-8.71s-7.29,4.28-7.29,8.71C368.07,426,370.3,430.56,375.36,430.56Z" fill="#fff"/><path d="M392.73,399.29H397v34.19h-4.29Z" fill="#fff"/><path d="M424.51,433.48h-4.15v-3.69h-.09c-1.28,2.64-4.38,4.24-7.61,4.24-6,0-8.71-3.74-8.71-10V410.23h4.28v12c0,5.42,1.19,8.06,4.93,8.29,4.88,0,7.06-3.92,7.06-9.57V410.23h4.29Z" fill="#fff"/><path d="M444.52,413.7h-6.15v12.71c0,2.69,1.64,4.15,3.6,4.15a5.32,5.32,0,0,0,2.92-.82v3.65a13.59,13.59,0,0,1-3.65.64c-4.42,0-7.16-2.1-7.16-6.75V413.7h-5.24v-3.47h5.24v-5.38l4.29-1.37v6.75h6.15Z" fill="#fff"/><path d="M455.74,405H450.9V400.2h4.84Zm-4.56,5.2h4.28v23.25h-4.28Z" fill="#fff"/><path d="M473.06,409.68c7.07,0,11.81,5.11,11.81,12.18,0,6.65-4.84,12.17-11.81,12.17s-11.85-5.52-11.85-12.17C461.21,414.79,466,409.68,473.06,409.68Zm0,20.88c5,0,7.25-4.56,7.25-8.7,0-4.43-2.69-8.71-7.25-8.71s-7.29,4.28-7.29,8.71C465.77,426,468,430.56,473.06,430.56Z" fill="#fff"/><path d="M490.25,410.23h4.15v3.69h.09c1.27-2.64,4.37-4.24,7.61-4.24,6,0,8.71,3.74,8.71,10v13.81h-4.29v-12c0-5.43-1.18-8.07-4.92-8.3-4.88,0-7.07,3.92-7.07,9.57v10.76h-4.28Z" fill="#fff"/><path d="M516.73,428.92a11.41,11.41,0,0,0,5.34,1.64c2,0,4.37-.82,4.37-3.32,0-4.24-10.07-3.88-10.07-10.4,0-4.83,3.6-7.16,8.2-7.16a17.66,17.66,0,0,1,5.34.92l-.37,3.73a12.52,12.52,0,0,0-4.51-1.18c-2.19,0-4.1.91-4.1,2.83,0,4.74,10.07,3.37,10.07,10.8,0,5-4,7.25-8.11,7.25a13.33,13.33,0,0,1-6.38-1.28Z" fill="#fff"/></svg>