<svg id="24fff288-f63c-494c-83a7-1ad03787489e" data-name="Layer 1" xmlns="http://www.w3.org/2000/svg" xmlns:xlink="http://www.w3.org/1999/xlink" viewBox="0 0 356.52 357.92"><defs><linearGradient id="9594a6d9-6848-4c5d-8240-d8951d489827" x1="71.36" y1="53.76" x2="282.26" y2="304.12" gradientUnits="userSpaceOnUse"><stop offset="0" stop-color="#61c4f2"/><stop offset="1" stop-color="#a1c7e3"/></linearGradient><linearGradient id="89b072ba-c222-4bf2-847a-11d7927a4203" x1="364.53" y1="91.11" x2="259.2" y2="174.41" gradientUnits="userSpaceOnUse"><stop offset="0" stop-color="#9cdef2"/><stop offset="1" stop-color="#1a3885"/></linearGradient><linearGradient id="a6aca3e9-2899-4061-9524-000b0b3aed6c" x1="71.09" y1="53.98" x2="282" y2="304.35" xlink:href="#9594a6d9-6848-4c5d-8240-d8951d489827"/><linearGradient id="4e9d5c33-c197-494a-9fd2-131b2b8d1958" x1="80.75" y1="45.84" x2="291.65" y2="296.21" xlink:href="#9594a6d9-6848-4c5d-8240-d8951d489827"/><linearGradient id="03545a3e-6b0e-4ceb-950e-bc15a88122bf" x1="193.78" y1="252.01" x2="355.43" y2="355.67" xlink:href="#89b072ba-c222-4bf2-847a-11d7927a4203"/><linearGradient id="bbeb1f66-93b9-4a76-98b6-15d028158235" x1="71.5" y1="53.64" x2="282.4" y2="304" xlink:href="#9594a6d9-6848-4c5d-8240-d8951d489827"/><linearGradient id="126d830d-db54-42b7-8782-ac296756336c" x1="141.18" y1="-5.76" x2="233.83" y2="91.68" xlink:href="#89b072ba-c222-4bf2-847a-11d7927a4203"/><linearGradient id="a7ed1d6d-4b8d-4595-ade1-3cc469c8f603" x1="2.89" y1="200.96" x2="105.09" y2="97.07" xlink:href="#89b072ba-c222-4bf2-847a-11d7927a4203"/><linearGradient id="e56cea2a-ff17-4420-8525-2178e437f0a8" x1="69.96" y1="269.41" x2="109.56" y2="357.93" xlink:href="#89b072ba-c222-4bf2-847a-11d7927a4203"/></defs><path d="M40.44,250.77a22.2,22.2,0,0,1-.41,3.15c-.31,2-.75,5-1.05,8.88a79.29,79.29,0,0,0,.1,13.82,50.39,50.39,0,0,0,4.68,17.13,38.6,38.6,0,0,0,5.61,8.4,37.44,37.44,0,0,0,8.24,7A42.85,42.85,0,0,0,68,313.74a57.51,57.51,0,0,0,11.79,2.15A92.86,92.86,0,0,0,105,314.12a157.38,157.38,0,0,0,25.17-7.36,255.12,255.12,0,0,0,46.13-23.68A350.75,350.75,0,0,0,212.93,256c10.27-8.64,18.42-16.43,24.1-22.09s8.91-9.17,9.22-9.49,3.29-3.41,8.07-8.75,11.34-13,18.56-22.53a298,298,0,0,0,22.32-33.92,227.5,227.5,0,0,0,10.14-20.38,163.91,163.91,0,0,0,7.84-22.05A104.22,104.22,0,0,0,317,93.85a58.45,58.45,0,0,0-2.9-22,39.8,39.8,0,0,0-4.8-9.42A36.43,36.43,0,0,0,302.41,55a39.35,39.35,0,0,0-8.14-5.13,47.81,47.81,0,0,0-8.51-3A66.46,66.46,0,0,0,270,44.84a99.78,99.78,0,0,0-12.32.7c-3.4.4-6.06.85-7.88,1.15a17.11,17.11,0,0,1-2.8.39,14.56,14.56,0,0,1,2.72-.78c1.8-.43,4.45-1,7.86-1.54A91.93,91.93,0,0,1,270,43.69a66.49,66.49,0,0,1,16.15,1.61,48.68,48.68,0,0,1,8.86,3,41,41,0,0,1,8.59,5.22,38.48,38.48,0,0,1,7.34,7.71,41.71,41.71,0,0,1,5.2,9.85,60.51,60.51,0,0,1,3.33,22.87,107,107,0,0,1-3.6,23.55A167.47,167.47,0,0,1,308.1,140,225.58,225.58,0,0,1,298,160.77a298.75,298.75,0,0,1-22.28,34.51c-7.22,9.7-13.79,17.47-18.57,22.9s-7.8,8.57-8.09,8.9-3.6,3.85-9.37,9.53-14.06,13.48-24.48,22.13A351.67,351.67,0,0,1,178,285.81a256,256,0,0,1-46.89,23.52,158.24,158.24,0,0,1-25.67,7.22,94.29,94.29,0,0,1-25.8,1.5,59,59,0,0,1-12.19-2.38,45.09,45.09,0,0,1-10.82-5A38.81,38.81,0,0,1,42.4,294.4a45.88,45.88,0,0,1-3.15-9.11,57.75,57.75,0,0,1-1.32-8.56,75.76,75.76,0,0,1,.27-14,89.82,89.82,0,0,1,1.43-8.87A18.22,18.22,0,0,1,40.44,250.77Z" fill="url(#9594a6d9-6848-4c5d-8240-d8951d489827)"/><path d="M300,85.85c24.75,13.87,48.1,40.22,30.09,68.77-16.69,26.45-51.23,39.82-80.14,48.06,1.8-3.71,3.73-7.47,4.41-8.7,1.82-3.28,0-4.5-2.62-5.42-2.38-.83-4.81-3.41-6.68,1-3.34,7.9-6.94,15.68-10.6,23.44-1.19,2.53-.42,3.76,1.91,4.8,7.59,3.36,15.16,6.76,22.66,10.29,4,1.86,4.3-1.32,5.44-3.53,1.23-2.36,2.26-4.55-1.36-5.9-2.44-.91-4.78-2.08-7.64-3.41,30-11.11,64.68-28.15,80.24-57.37C352.74,125.83,328.07,99,300,85.85Z" fill="url(#89b072ba-c222-4bf2-847a-11d7927a4203)"/><path d="M32.12,135.31a10,10,0,0,1-2.51,1.25c-1.66.74-4.1,1.79-7.11,3.31a62.07,62.07,0,0,0-10.25,6.35A33.62,33.62,0,0,0,7,151.28a19.52,19.52,0,0,0-3.73,6.88,15.69,15.69,0,0,0-.08,8.28,24,24,0,0,0,4.06,8.16A46.32,46.32,0,0,0,14,181.83a80.54,80.54,0,0,0,8.36,6.36,145.78,145.78,0,0,0,19.43,10.72c6.88,3.2,14.06,6.07,21.35,8.67A392.88,392.88,0,0,0,107,220.18c14.23,3.28,27.7,5.69,39.35,7.46s21.48,2.89,28.49,3.62,11.19,1,11.57,1.08,4.14.4,10.42.9,15.09,1.08,25.6,1.41,22.69.41,35.69-.16a324.4,324.4,0,0,0,40.36-4.1,191.73,191.73,0,0,0,20-4.45,102.38,102.38,0,0,0,18.35-7,50.53,50.53,0,0,0,7.84-4.88,28.34,28.34,0,0,0,6.05-6.14,16.86,16.86,0,0,0,2.95-7.33,16.54,16.54,0,0,0-.75-7.39,26.12,26.12,0,0,0-3.17-6.34,42.12,42.12,0,0,0-4.08-5.11,72.54,72.54,0,0,0-7.93-7.28c-2.35-1.87-4.27-3.26-5.56-4.22s-2-1.5-1.92-1.6.85.26,2.28,1,3.47,2,6,3.74a65.58,65.58,0,0,1,8.53,7,42.45,42.45,0,0,1,4.52,5.17,27.85,27.85,0,0,1,3.73,6.8,19.11,19.11,0,0,1,1.16,8.54,19.52,19.52,0,0,1-3.18,8.71,31.19,31.19,0,0,1-6.52,7.07,55.05,55.05,0,0,1-8.23,5.44,103.74,103.74,0,0,1-18.87,7.73,189.31,189.31,0,0,1-20.34,5,325.21,325.21,0,0,1-40.9,4.95c-13.15.81-25.49.94-36.12.76s-19.54-.64-25.9-1.05-10.16-.74-10.55-.77-4.61-.42-11.68-1.23-17-2.08-28.74-4-25.32-4.58-39.66-8.12a390.78,390.78,0,0,1-44.15-13.53C54.24,209.1,47,206,40,202.62a146.73,146.73,0,0,1-19.7-11.44,85,85,0,0,1-8.56-6.85,49.63,49.63,0,0,1-7-7.94,26.7,26.7,0,0,1-4.27-9.3,18.5,18.5,0,0,1-.45-5,17.9,17.9,0,0,1,.85-4.72,21.61,21.61,0,0,1,4.44-7.58,34.69,34.69,0,0,1,5.79-5.16,58.44,58.44,0,0,1,10.85-6,77.79,77.79,0,0,1,7.43-2.74A8.89,8.89,0,0,1,32.12,135.31Z" fill="url(#a6aca3e9-2899-4061-9524-000b0b3aed6c)"/><path d="M241.09,316s1.11.2,3.17.63,5.09,1,9,1.61a97.2,97.2,0,0,0,14.11,1,64.35,64.35,0,0,0,18.08-2.48,45.43,45.43,0,0,0,9.57-4.06,39.36,39.36,0,0,0,8.77-6.79,39.86,39.86,0,0,0,6.79-9.52,47.49,47.49,0,0,0,4.09-11.54,75.92,75.92,0,0,0,.73-25.71,135.44,135.44,0,0,0-6.2-26,203.61,203.61,0,0,0-10.36-24.81c-3.93-8-8.26-15.6-12.74-22.8a335.36,335.36,0,0,0-27.4-37.61c-8.8-10.5-16.77-18.81-22.56-24.6s-9.39-9.07-9.71-9.39-3.5-3.33-9-8.18S204.08,94.29,194.27,87A302,302,0,0,0,159.4,64.53c-6.63-3.62-13.64-7.07-20.93-10.15a173.44,173.44,0,0,0-22.61-7.83,113.18,113.18,0,0,0-23.5-3.83,64.81,64.81,0,0,0-22.71,2.64,43.91,43.91,0,0,0-9.89,4.56,38.51,38.51,0,0,0-8,6.66A39.79,39.79,0,0,0,46,64.64a45.85,45.85,0,0,0-3.54,8.56A63.1,63.1,0,0,0,40,89.26a91.64,91.64,0,0,0,.5,12.59c.37,3.47.8,6.19,1.11,8a28.19,28.19,0,0,1,.44,2.85,21.88,21.88,0,0,1-.7-2.8c-.39-1.84-.92-4.55-1.37-8a87.13,87.13,0,0,1-.75-12.67,63,63,0,0,1,2.3-16.33A46.84,46.84,0,0,1,45,64.11a40.67,40.67,0,0,1,5.79-8.36,39.64,39.64,0,0,1,8.21-7A45.58,45.58,0,0,1,69.2,44a66.29,66.29,0,0,1,23.23-2.9,114.16,114.16,0,0,1,23.89,3.7,173,173,0,0,1,22.92,7.76,232.77,232.77,0,0,1,21.19,10.1,303.06,303.06,0,0,1,35.26,22.44c9.91,7.29,17.84,13.94,23.4,18.78s8.75,7.9,9.09,8.2,3.93,3.64,9.74,9.49,13.78,14.25,22.59,24.86a335.52,335.52,0,0,1,27.4,38c4.47,7.28,8.79,15,12.7,23.05a204.74,204.74,0,0,1,10.31,25.11A136.1,136.1,0,0,1,317,259a77.18,77.18,0,0,1-.94,26.23,49,49,0,0,1-4.32,11.84,40.38,40.38,0,0,1-16.19,16.67,47.09,47.09,0,0,1-9.85,4.05,64.49,64.49,0,0,1-18.36,2.28,94.36,94.36,0,0,1-14.19-1.28c-3.89-.65-6.91-1.35-9-1.87A26,26,0,0,1,241.09,316Z" fill="url(#4e9d5c33-c197-494a-9fd2-131b2b8d1958)"/><path d="M296.07,270.38c7.95,18.85,10,60.46-20.15,54.7-40.87-11.11-75.22-56-99.8-88.59,4.54.82,8.57,1.61,10.14,2,5.54,1.25,6.56-1.87,6.78-6.12.19-3.8,2.92-8.44-4.28-9.28-12.89-1.51-25.74-3.45-38.56-5.47-4.19-.66-5.66,1-6.17,4.81-1.68,12.45-3.4,24.9-5.36,37.31-1,6.54,3.75,5.68,7.44,6.41,3.95.78,7.57,1.35,8-4.49.2-2.68.59-5.36,1-8.29C185,284.16,221.37,318.78,263,332.05S313.76,301.18,296.07,270.38Z" fill="url(#03545a3e-6b0e-4ceb-950e-bc15a88122bf)"/><path d="M136.28,335.11a14.86,14.86,0,0,1,1.11,2.43c.68,1.6,1.67,3.95,3.2,6.78a42.34,42.34,0,0,0,2.82,4.51,24.48,24.48,0,0,0,4.19,4.52,13,13,0,0,0,6.13,2.84,12.54,12.54,0,0,0,7.3-1.25,26.32,26.32,0,0,0,6.78-4.9,55.5,55.5,0,0,0,6-6.92A118.43,118.43,0,0,0,183.93,326a284.28,284.28,0,0,0,15.81-40.6c8.91-28.43,14.78-57.82,18.35-80.15,1.78-11.17,3-20.59,3.83-27.3s1.21-10.72,1.25-11.09.47-4,1.07-10,1.36-14.46,2-24.53,1.09-21.77,1.07-34.26a368.84,368.84,0,0,0-2-38.93c-.72-6.57-1.68-13.12-3-19.47A104.48,104.48,0,0,0,217,21.53,47.42,47.42,0,0,0,213,13.59a21.77,21.77,0,0,0-5.62-6.08,11.32,11.32,0,0,0-7.18-2.09,15.26,15.26,0,0,0-6.85,2.31A31.19,31.19,0,0,0,187.85,12a53.64,53.64,0,0,0-4.3,4.66,94.94,94.94,0,0,0-6.09,8.39c-1.58,2.42-2.75,4.36-3.56,5.68a9.87,9.87,0,0,1-1.32,2,8.88,8.88,0,0,1,.92-2.2c.68-1.4,1.72-3.43,3.18-5.94a83.8,83.8,0,0,1,5.82-8.75,52.86,52.86,0,0,1,4.25-4.93,32.47,32.47,0,0,1,5.63-4.66A16.94,16.94,0,0,1,200,3.46a12.69,12.69,0,0,1,4.4.38,14.21,14.21,0,0,1,4.12,1.88,23.69,23.69,0,0,1,6.37,6.56,49.23,49.23,0,0,1,4.45,8.26,106.66,106.66,0,0,1,5.78,18.54c1.45,6.45,2.53,13.06,3.36,19.71A365.88,365.88,0,0,1,231,98.06c.18,12.59-.15,24.37-.65,34.52s-1.19,18.65-1.73,24.72-.94,9.68-1,10.06-.48,4.4-1.35,11.14-2.21,16.21-4.12,27.43c-3.82,22.43-10.05,51.93-19.42,80.45a281.08,281.08,0,0,1-16.6,40.77,117.53,117.53,0,0,1-10.7,17.27,55.87,55.87,0,0,1-6.33,7.05,27.75,27.75,0,0,1-7.4,5.08,16.25,16.25,0,0,1-4.14,1.23,12.82,12.82,0,0,1-4.15,0,14.19,14.19,0,0,1-6.73-3.35,24.32,24.32,0,0,1-4.25-4.9,38.49,38.49,0,0,1-2.71-4.74,56,56,0,0,1-2.83-7A10.74,10.74,0,0,1,136.28,335.11Z" fill="url(#bbeb1f66-93b9-4a76-98b6-15d028158235)"/><path d="M276.07,96.26C273.45,93.85,271,91.74,268,96c-1.79,2.5-3.83,4.83-6.14,7.55C252.85,70,238.35,33,210.57,11.24c-32.46-25.39-65-4.14-81.62,27.61,16.75-25.59,46.58-46.36,74-21.8,24.44,21.88,34.53,58.48,39.8,90.37-4.18-3.65-8.41-7.52-9.77-8.84-3.59-3.5-5.8-1.61-7.93,1.5-1.91,2.77-6.1,5-1.06,9,9,7.09,17.83,14.49,26.58,21.94,2.85,2.43,4.71,1.87,6.87-.78,7-8.63,14.07-17.22,21.28-25.69C282.52,100.08,278.52,98.52,276.07,96.26Z" fill="url(#126d830d-db54-42b7-8782-ac296756336c)"/><path d="M125.21,89.45C116.94,82,108.69,74.56,100.59,67c-4.27-4-6-.09-8.4,2.25-2.53,2.5-4.76,4.87-.7,8.09,2.12,1.68,4.11,3.55,6.34,5.64-32.66,5.51-69.64,18-87.76,47.62-21.91,35.86-2,77.51,22.15,106.45-17.56-26.52-34-64.42-15.39-94.66,16.6-27.15,52.51-34.84,82.34-36.69-3,3-5.66,5.69-6.74,6.7-3.67,3.42-1.89,5.72,1.11,8,2.68,2,4.71,6.33,8.91,1.49,7.53-8.68,15.34-17.11,23.2-25.49C128.22,93.62,127.76,91.74,125.21,89.45Z" fill="url(#a7ed1d6d-4b8d-4595-ade1-3cc469c8f603)"/><path d="M64.91,307.88c-9.34-19.91-.11-44.1,9.6-62.12.84,1.9,1.55,3.59,1.82,4.27.94,2.41,2.37,2,4,1,1.49-.9,3.93-1.05,2.41-4-2.72-5.25-5.27-10.58-7.78-15.93-.82-1.75-1.81-1.89-3.38-1.1-5.13,2.54-10.26,5.07-15.44,7.5-2.72,1.28-1.18,2.86-.52,4.44s1.43,3.2,3.74,1.87c1.21-.7,2.5-1.3,3.94-2-21.66,51.85-1.67,99.48,60.57,89.61C102.69,333,75.08,329.73,64.91,307.88Z" fill="url(#e56cea2a-ff17-4420-8525-2178e437f0a8)"/></svg>