<?xml version="1.0" encoding="utf-8"?>
<!-- Generator: Adobe Illustrator 26.5.0, SVG Export Plug-In . SVG Version: 6.00 Build 0)  -->
<svg version="1.1" id="WHITE" xmlns="http://www.w3.org/2000/svg" xmlns:xlink="http://www.w3.org/1999/xlink" x="0px" y="0px"
	 viewBox="0 0 595 112" style="enable-background:new 0 0 595 112;" xml:space="preserve">
<style type="text/css">
	.st0{fill:#FFFFFF;}
	.st1{opacity:0.5;fill:#FFFFFF;enable-background:new    ;}
	.st2{opacity:0.75;fill:#FFFFFF;enable-background:new    ;}
</style>
<path class="st0" d="M60.2,95.7l-2.6-14H38.5l-2.7,14H13.9l18-75.1l-2.1-4.7h35.3l18.2,79.8H60.2z M46.7,40.1l-4.6,23.6h12.2
	L50,40.1l-1.7-10.3L46.7,40.1z"/>
<path class="st0" d="M143.4,41.8l-20.8,0.6c0-3.1-0.7-5.5-2-7.1s-3.1-2.4-5.3-2.4s-4.1,0.7-5.5,2.2s-2.1,3.6-2.2,6.3
	c-0.3,7-0.3,16.5,0,28.3c0.2,6.1,2.7,9.2,7.5,9.2c2.2,0,4-0.8,5.6-2.5s2.4-4,2.4-7l20.8,0.6c0,8.2-2.6,14.9-7.9,19.9
	c-5.3,5.1-12.4,7.6-21.4,7.6c-8.7,0-15.7-2.4-21.1-7.1c-5.4-4.8-8.2-11.3-8.3-19.5c-0.2-14.1-0.2-24.2,0-30.5
	c0.3-8.2,3.4-14.6,9.2-19.2s12.8-6.9,20.9-6.9c4,0,7.6,0.6,11,1.7s6.4,2.8,9,4.9c2.6,2.2,4.7,5.1,6.1,8.7
	C142.9,33.1,143.5,37.2,143.4,41.8z"/>
<polygon id="XMLID_00000168801317208498681510000012440431289808833411_" class="st0" points="412.8,34.5 412.8,16 384.5,16 
	384.5,16 363,15.9 365.2,20.7 365.2,20.7 365.2,95.8 412.8,95.8 412.8,77.2 387.6,77.2 387.6,64.3 410.5,64.3 410.5,46.3 
	387.6,46.3 387.6,34.5 "/>
<path class="st0" d="M235.7,78.9c4.6,0,7-1.6,7-4.9c0-1.8-1.1-3.4-3.2-4.9s-6.2-3.2-12.1-5.2c-14-4.6-21-12.7-21-24.5
	c0-8,2.8-14.2,8.4-18.5s12.5-6.5,20.7-6.5c8.4,0,15.2,2.3,20.6,6.9c5.3,4.6,7.8,11.5,7.4,20.6l-20.8,0.6c0-6.4-2.5-9.6-7.4-9.6
	c-1.8,0-3.3,0.4-4.6,1.3c-1.2,0.9-1.9,2.1-1.9,3.7c0,2.1,1,3.8,2.9,5.2c1.9,1.4,6,3.2,12.4,5.5c7,2.5,12.3,5.5,15.8,9
	c3.5,3.6,5.2,8.9,5.2,15.9c0,7.3-2.8,13.1-8.3,17.5s-12.5,6.6-21.1,6.6c-5.6,0-10.7-0.9-15.2-2.8c-4.5-1.8-8.2-4.9-11-9.2
	c-2.8-4.3-4.1-9.5-3.8-15.6l20.8-0.6c0,3.3,0.8,5.7,2.5,7.2C230.8,78.1,233,78.9,235.7,78.9z"/>
<g>
	<polygon class="st1" points="318.9,55.5 325.6,75.3 332,55.5 325.1,36.2 	"/>
	<path class="st2" d="M311.9,57.9l-0.8-2.3l0.7-2.3L318,34l5.9-18.4c-1.7-0.1-3.5-0.2-5.4-0.2c-7.2,0-14.2,0.2-20.9,0.6v79.8l20,0.6
		c2.5,0,4.9-0.1,7.1-0.3l-6.2-18.3L311.9,57.9z"/>
	<path class="st0" d="M355.9,41.8c-1.1-15.8-11.3-24.5-30.3-26.1l6.5,18L339,53l0.8,2.4l-0.8,2.4l-6.4,19.8l-5.9,18.2
		c18.7-1.9,28.7-10.4,29.8-25.3C357,63.4,356.8,53.8,355.9,41.8z"/>
</g>
<polygon id="XMLID_00000087374031830245120670000004174608063023048084_" class="st0" points="197.7,34.5 197.7,15.9 169.4,15.9 
	169.4,15.9 147.9,15.9 150,20.6 150,20.6 150,95.7 197.7,95.7 197.7,77.2 172.5,77.2 172.5,64.3 195.3,64.3 195.3,46.3 172.5,46.3 
	172.5,34.5 "/>
<path class="st0" d="M422.6,95.7V20.6l-2.1-4.7H445v61.2h23.2v18.5L422.6,95.7z"/>
<path class="st0" d="M477.2,95.7V34.5h-17.9V20.6l-2.1-4.7h60.2v18.5h-17.9v61.2h-22.3V95.7z"/>
<path class="st0" d="M557.1,95.7l-2.6-14h-19.1l-2.7,14h-21.9l18-75l-2.1-4.7H562l18.2,79.7H557.1z M543.6,40.1L539,63.7h12.2
	l-4.3-23.6l-1.7-10.3L543.6,40.1z"/>
</svg>
