<?xml version="1.0" encoding="UTF-8"?>
<svg width="116px" height="130px" viewBox="0 0 116 130" version="1.1" xmlns="http://www.w3.org/2000/svg" xmlns:xlink="http://www.w3.org/1999/xlink">
    <title>Group 3</title>
    <defs>
        <path d="M29.3465152,0 C28.8009091,0 28.359697,0.439242424 28.359697,0.984848485 L28.359697,0.984848485 L28.359697,14.2212121 C12.6375758,14.7471212 0,27.670303 0,43.5184848 L0,43.5184848 L0,93.1568182 C0,109.005 12.6375758,121.926212 28.359697,122.454091 L28.359697,122.454091 L28.359697,128.605455 C28.359697,129.151061 28.8009091,129.590303 29.3465152,129.590303 L29.3465152,129.590303 L86.0757576,129.590303 C86.6193939,129.590303 87.0586364,129.151061 87.0586364,128.605455 L87.0586364,128.605455 L87.0586364,122.454091 C102.784697,121.928182 115.426212,109.008939 115.426212,93.1568182 L115.426212,93.1568182 L115.426212,43.5184848 C115.426212,27.670303 102.784697,14.7451515 87.0586364,14.2212121 L87.0586364,14.2212121 L87.0586364,0.984848485 C87.0586364,0.439242424 86.6193939,0 86.0757576,0 L86.0757576,0 L29.3465152,0 Z M30.3293939,14.17 L85.0889394,14.17 L85.0889394,1.96969697 L30.3293939,1.96969697 L30.3293939,14.17 Z M1.96969697,93.1568182 L1.96969697,43.5184848 C1.96969697,28.4227273 14.2507576,16.1416667 29.3484848,16.1416667 L29.3484848,16.1416667 L86.0757576,16.1416667 L86.0757576,16.1416667 C101.173485,16.1416667 113.456515,28.4227273 113.456515,43.5184848 L113.456515,43.5184848 L113.456515,93.1568182 C113.456515,108.252576 101.173485,120.533636 86.0757576,120.533636 L86.0757576,120.533636 L86.0757576,120.533636 L29.3484848,120.533636 C14.2507576,120.533636 1.96969697,108.252576 1.96969697,93.1568182 L1.96969697,93.1568182 Z M30.3293939,127.620606 L85.0889394,127.620606 L85.0889394,122.505303 L30.3293939,122.505303 L30.3293939,127.620606 Z M36.4354545,7.085 C35.8898485,7.085 35.4506061,7.52818182 35.4506061,8.07181818 L35.4506061,8.07181818 C35.4506061,8.61545455 35.8898485,9.05469697 36.4354545,9.05469697 L36.4354545,9.05469697 L78.9848485,9.05469697 C79.5284848,9.05469697 79.969697,8.61545455 79.969697,8.07181818 L79.969697,8.07181818 C79.969697,7.52818182 79.5284848,7.085 78.9848485,7.085 L78.9848485,7.085 L36.4354545,7.085 Z M63.7571212,38.9271212 C63.4715152,39.0078788 63.2351515,39.2127273 63.1169697,39.4865152 L63.1169697,39.4865152 C60.5721212,45.3818182 55.7778788,49.205 51.1431818,52.9021212 L51.1431818,52.9021212 C46.6109091,56.5165152 42.3307576,59.9319697 40.4240909,64.9980303 L40.4240909,64.9980303 C38.4012121,70.3674242 38.5390909,76.2292424 40.8042424,81.0825758 L40.8042424,81.0825758 C42.464697,84.6418182 45.1592424,87.4210606 48.4959091,89.0893939 L48.4959091,89.0893939 C48.6081818,93.4877273 49.5930303,97.8033333 51.5765152,101.573333 L51.5765152,101.573333 C51.7518182,101.910152 52.0925758,102.101212 52.4471212,102.101212 L52.4471212,102.101212 C52.6027273,102.101212 52.7583333,102.065758 52.9060606,101.98697 L52.9060606,101.98697 C53.3866667,101.734848 53.5718182,101.14 53.3177273,100.657424 L53.3177273,100.657424 C51.6080303,97.4015152 50.6862121,93.7122727 50.4734848,89.9265152 L50.4734848,89.9265152 C52.1930303,90.5174242 53.9677273,90.805 55.7384848,90.805 L55.7384848,90.805 C63.4872727,90.805 71.2025758,85.4218182 74.4545455,77.0269697 L74.4545455,77.0269697 C79.8022727,63.2095455 73.6627273,45.5925758 64.5962121,39.0768182 L64.5962121,39.0768182 C64.4268182,38.954697 64.2239394,38.8916667 64.0210606,38.8916667 L64.0210606,38.8916667 C63.9324242,38.8916667 63.8437879,38.9034848 63.7571212,38.9271212 L63.7571212,38.9271212 Z M42.5887879,80.2513636 C40.5481818,75.874697 40.43,70.5683333 42.2657576,65.6913636 L42.2657576,65.6913636 C43.9813636,61.1334848 48.0566667,57.8854545 52.370303,54.4443939 L52.370303,54.4443939 C56.8966667,50.8319697 61.5707576,47.105303 64.395303,41.4128788 L64.395303,41.4128788 C72.1854545,47.9424242 77.3795455,64.0112121 72.6187879,76.3159091 L72.6187879,76.3159091 C68.9866667,85.6936364 59.2819697,90.9428788 51.0092424,88.0316667 L51.0092424,88.0316667 C50.8122727,87.9627273 50.6251515,87.8721212 50.4321212,87.7972727 L50.4321212,87.7972727 C50.5443939,79.7904545 53.7589394,71.6280303 59.5459091,66.3925758 L59.5459091,66.3925758 C59.949697,66.0281818 59.9812121,65.4037879 59.6187879,65.0019697 L59.6187879,65.0019697 C59.2524242,64.5962121 58.63,64.5666667 58.2262121,64.9310606 L58.2262121,64.9310606 C52.2698485,70.3181818 48.8622727,78.6106061 48.509697,86.859697 L48.509697,86.859697 C45.9687879,85.3627273 43.9104545,83.0857576 42.5887879,80.2513636 L42.5887879,80.2513636 Z" id="path-1"></path>
        <linearGradient x1="24.7412223%" y1="3.61644835%" x2="73.14835%" y2="97.7486027%" id="linearGradient-3">
            <stop stop-color="#90AF1D" offset="0%"></stop>
            <stop stop-color="#006487" offset="100%"></stop>
        </linearGradient>
    </defs>
    <g id="Page-1" stroke="none" stroke-width="1" fill="none" fill-rule="evenodd">
        <g id="HOMEPAGE" transform="translate(-542.000000, -906.000000)">
            <g id="Group-9" transform="translate(250.000000, 690.000000)">
                <g id="Group-3" transform="translate(292.000000, 216.000000)">
                    <mask id="mask-2" fill="white">
                        <use xlink:href="#path-1"></use>
                    </mask>
                    <g id="Clip-2"></g>
                    <path d="M29.3465152,0 C28.8009091,0 28.359697,0.439242424 28.359697,0.984848485 L28.359697,0.984848485 L28.359697,14.2212121 C12.6375758,14.7471212 0,27.670303 0,43.5184848 L0,43.5184848 L0,93.1568182 C0,109.005 12.6375758,121.926212 28.359697,122.454091 L28.359697,122.454091 L28.359697,128.605455 C28.359697,129.151061 28.8009091,129.590303 29.3465152,129.590303 L29.3465152,129.590303 L86.0757576,129.590303 C86.6193939,129.590303 87.0586364,129.151061 87.0586364,128.605455 L87.0586364,128.605455 L87.0586364,122.454091 C102.784697,121.928182 115.426212,109.008939 115.426212,93.1568182 L115.426212,93.1568182 L115.426212,43.5184848 C115.426212,27.670303 102.784697,14.7451515 87.0586364,14.2212121 L87.0586364,14.2212121 L87.0586364,0.984848485 C87.0586364,0.439242424 86.6193939,0 86.0757576,0 L86.0757576,0 L29.3465152,0 Z M30.3293939,14.17 L85.0889394,14.17 L85.0889394,1.96969697 L30.3293939,1.96969697 L30.3293939,14.17 Z M1.96969697,93.1568182 L1.96969697,43.5184848 C1.96969697,28.4227273 14.2507576,16.1416667 29.3484848,16.1416667 L29.3484848,16.1416667 L86.0757576,16.1416667 L86.0757576,16.1416667 C101.173485,16.1416667 113.456515,28.4227273 113.456515,43.5184848 L113.456515,43.5184848 L113.456515,93.1568182 C113.456515,108.252576 101.173485,120.533636 86.0757576,120.533636 L86.0757576,120.533636 L86.0757576,120.533636 L29.3484848,120.533636 C14.2507576,120.533636 1.96969697,108.252576 1.96969697,93.1568182 L1.96969697,93.1568182 Z M30.3293939,127.620606 L85.0889394,127.620606 L85.0889394,122.505303 L30.3293939,122.505303 L30.3293939,127.620606 Z M36.4354545,7.085 C35.8898485,7.085 35.4506061,7.52818182 35.4506061,8.07181818 L35.4506061,8.07181818 C35.4506061,8.61545455 35.8898485,9.05469697 36.4354545,9.05469697 L36.4354545,9.05469697 L78.9848485,9.05469697 C79.5284848,9.05469697 79.969697,8.61545455 79.969697,8.07181818 L79.969697,8.07181818 C79.969697,7.52818182 79.5284848,7.085 78.9848485,7.085 L78.9848485,7.085 L36.4354545,7.085 Z M63.7571212,38.9271212 C63.4715152,39.0078788 63.2351515,39.2127273 63.1169697,39.4865152 L63.1169697,39.4865152 C60.5721212,45.3818182 55.7778788,49.205 51.1431818,52.9021212 L51.1431818,52.9021212 C46.6109091,56.5165152 42.3307576,59.9319697 40.4240909,64.9980303 L40.4240909,64.9980303 C38.4012121,70.3674242 38.5390909,76.2292424 40.8042424,81.0825758 L40.8042424,81.0825758 C42.464697,84.6418182 45.1592424,87.4210606 48.4959091,89.0893939 L48.4959091,89.0893939 C48.6081818,93.4877273 49.5930303,97.8033333 51.5765152,101.573333 L51.5765152,101.573333 C51.7518182,101.910152 52.0925758,102.101212 52.4471212,102.101212 L52.4471212,102.101212 C52.6027273,102.101212 52.7583333,102.065758 52.9060606,101.98697 L52.9060606,101.98697 C53.3866667,101.734848 53.5718182,101.14 53.3177273,100.657424 L53.3177273,100.657424 C51.6080303,97.4015152 50.6862121,93.7122727 50.4734848,89.9265152 L50.4734848,89.9265152 C52.1930303,90.5174242 53.9677273,90.805 55.7384848,90.805 L55.7384848,90.805 C63.4872727,90.805 71.2025758,85.4218182 74.4545455,77.0269697 L74.4545455,77.0269697 C79.8022727,63.2095455 73.6627273,45.5925758 64.5962121,39.0768182 L64.5962121,39.0768182 C64.4268182,38.954697 64.2239394,38.8916667 64.0210606,38.8916667 L64.0210606,38.8916667 C63.9324242,38.8916667 63.8437879,38.9034848 63.7571212,38.9271212 L63.7571212,38.9271212 Z M42.5887879,80.2513636 C40.5481818,75.874697 40.43,70.5683333 42.2657576,65.6913636 L42.2657576,65.6913636 C43.9813636,61.1334848 48.0566667,57.8854545 52.370303,54.4443939 L52.370303,54.4443939 C56.8966667,50.8319697 61.5707576,47.105303 64.395303,41.4128788 L64.395303,41.4128788 C72.1854545,47.9424242 77.3795455,64.0112121 72.6187879,76.3159091 L72.6187879,76.3159091 C68.9866667,85.6936364 59.2819697,90.9428788 51.0092424,88.0316667 L51.0092424,88.0316667 C50.8122727,87.9627273 50.6251515,87.8721212 50.4321212,87.7972727 L50.4321212,87.7972727 C50.5443939,79.7904545 53.7589394,71.6280303 59.5459091,66.3925758 L59.5459091,66.3925758 C59.949697,66.0281818 59.9812121,65.4037879 59.6187879,65.0019697 L59.6187879,65.0019697 C59.2524242,64.5962121 58.63,64.5666667 58.2262121,64.9310606 L58.2262121,64.9310606 C52.2698485,70.3181818 48.8622727,78.6106061 48.509697,86.859697 L48.509697,86.859697 C45.9687879,85.3627273 43.9104545,83.0857576 42.5887879,80.2513636 L42.5887879,80.2513636 Z" id="Fill-1" fill="url(#linearGradient-3)" mask="url(#mask-2)"></path>
                </g>
            </g>
        </g>
    </g>
</svg>