<?xml version="1.0" encoding="UTF-8"?>
<svg width="104px" height="130px" viewBox="0 0 104 130" version="1.1" xmlns="http://www.w3.org/2000/svg" xmlns:xlink="http://www.w3.org/1999/xlink">
    <title>Group 3</title>
    <defs>
        <path d="M48.340303,-0.000393939394 C47.8104545,-0.000393939394 47.3771212,0.421121212 47.3574242,0.949 L47.3574242,0.949 L45.7265152,47.8691515 C42.6025758,49.8329394 40.4792424,53.2346061 40.2901515,57.1444545 L40.2901515,57.1444545 L0.460909091,82.1635455 C0.171363636,82.3447576 0.00787878788,82.654 0,82.9730909 L0,82.9730909 L0,83.0262727 C0.00393939394,83.1858182 0.0472727273,83.3453636 0.131969697,83.4911212 L0.131969697,83.4911212 L3.67742424,89.6306667 C3.85863636,89.9458182 4.18954545,90.1230909 4.53030303,90.1230909 L4.53030303,90.1230909 C4.68787879,90.1230909 4.84545455,90.0856667 4.99121212,90.0088485 L4.99121212,90.0088485 L46.429697,67.964 C46.6069697,68.0585455 46.7901515,68.139303 46.9693939,68.224 L46.9693939,68.224 L40.3689394,127.63597 L30.6130303,127.63597 C30.0693939,127.63597 29.6281818,128.075212 29.6281818,128.620818 L29.6281818,128.620818 C29.6281818,129.166424 30.0693939,129.605667 30.6130303,129.605667 L30.6130303,129.605667 L41.2493939,129.605667 L62.5221212,129.605667 L73.1604545,129.605667 C73.7040909,129.605667 74.145303,129.166424 74.145303,128.620818 L74.145303,128.620818 C74.145303,128.075212 73.7040909,127.63597 73.1604545,127.63597 L73.1604545,127.63597 L63.4045455,127.63597 L56.8040909,68.2220303 C56.9813636,68.139303 57.1586364,68.0605152 57.33,67.9679394 L57.33,67.9679394 L98.7704545,90.0127879 C98.9181818,90.0935455 99.0757576,90.129 99.2313636,90.129 L99.2313636,90.129 C99.5740909,90.129 99.9030303,89.9517273 100.086212,89.6365758 L100.086212,89.6365758 L103.631667,83.4970303 C103.895606,83.0400606 103.751818,82.4530909 103.304697,82.1694545 L103.304697,82.1694545 L63.4754545,57.1444545 C63.2863636,53.2405152 61.1689394,49.8388485 58.0469697,47.8730909 L58.0469697,47.8730909 L56.4180303,0.949 C56.3983333,0.421121212 55.9630303,-0.000393939394 55.4331818,-0.000393939394 L55.4331818,-0.000393939394 L48.340303,-0.000393939394 Z M49.2916667,1.96930303 L54.4818182,1.96930303 L56.0398485,46.8685455 C54.7477273,46.3721818 53.3492424,46.0865758 51.8837879,46.0865758 L51.8837879,46.0865758 C50.420303,46.0865758 49.0237879,46.3702121 47.7336364,46.8665758 L47.7336364,46.8665758 L49.2916667,1.96930303 Z M51.3440909,67.3061212 C50.9363636,67.2844545 50.5286364,67.2568788 50.1366667,67.1820303 L50.1366667,67.1820303 C49.5851515,67.0756667 49.0336364,66.9180909 48.4801515,66.709303 L48.4801515,66.709303 C47.9306061,66.5005152 47.4106061,66.2405152 46.9142424,65.9391515 L46.9142424,65.9391515 C46.5951515,65.7461212 46.2977273,65.5314242 46.0081818,65.3088485 L46.0081818,65.3088485 C45.8840909,65.2123333 45.7639394,65.1138485 45.6457576,65.0114242 L45.6457576,65.0114242 C45.3306061,64.7474848 45.0351515,64.4618788 44.7593939,64.1644545 L44.7593939,64.1644545 C44.5112121,63.888697 44.2689394,63.6070303 44.0522727,63.3076364 L44.0522727,63.3076364 C43.9340909,63.1421818 43.8277273,62.9708182 43.7193939,62.7994545 L43.7193939,62.7994545 C43.4928788,62.4429394 43.2860606,62.0706667 43.1107576,61.6826364 L43.1107576,61.6826364 C43.0674242,61.5841515 43.0122727,61.4915758 42.9689394,61.3911212 L42.9689394,61.3911212 C42.7640909,60.8927879 42.6065152,60.3688485 42.4843939,59.8311212 L42.4843939,59.8311212 C42.4548485,59.6991515 42.4312121,59.5711212 42.4075758,59.4371818 L42.4075758,59.4371818 C42.3051515,58.8758182 42.2322727,58.3026364 42.2322727,57.7097576 L42.2322727,57.7097576 C42.2322727,54.0756667 44.2748485,50.9399091 47.2530303,49.2932424 L47.2530303,49.2932424 C47.255,49.2912727 47.2569697,49.2912727 47.2589394,49.2912727 L47.2589394,49.2912727 C47.8833333,48.9485455 48.5234848,48.6944545 49.1695455,48.4935455 L49.1695455,48.4935455 C49.3192424,48.4502121 49.4630303,48.3911212 49.614697,48.3556667 L49.614697,48.3556667 C49.8510606,48.2946061 50.0893939,48.2552121 50.3257576,48.2138485 L50.3257576,48.2138485 C50.7906061,48.139 51.2613636,48.0779394 51.7478788,48.0700606 L51.7478788,48.0700606 C51.8384848,48.0680909 51.9271212,48.0680909 52.0177273,48.0700606 L52.0177273,48.0700606 C52.5042424,48.0779394 52.9769697,48.139 53.4457576,48.2138485 L53.4457576,48.2138485 C53.6801515,48.2571818 53.9165152,48.2946061 54.1469697,48.353697 L54.1469697,48.353697 C54.3084848,48.3911212 54.4562121,48.4521818 54.6118182,48.4974848 L54.6118182,48.4974848 C55.2539394,48.6983939 55.8862121,48.9505152 56.504697,49.2912727 L56.504697,49.2912727 C56.5066667,49.2912727 56.5086364,49.2912727 56.5125758,49.2912727 L56.5125758,49.2912727 C59.4907576,50.9399091 61.535303,54.0756667 61.535303,57.7097576 L61.535303,57.7097576 C61.535303,58.3026364 61.4624242,58.8758182 61.36,59.4371818 L61.36,59.4371818 C61.3363636,59.5711212 61.3107576,59.7011212 61.2812121,59.8311212 L61.2812121,59.8311212 C61.1610606,60.3708182 61.0054545,60.8927879 60.794697,61.3930909 L60.794697,61.3930909 C60.7572727,61.4915758 60.7021212,61.5821818 60.6568182,61.678697 L60.6568182,61.678697 C60.4795455,62.068697 60.2727273,62.4429394 60.0481818,62.8014242 L60.0481818,62.8014242 C59.9398485,62.9727879 59.8334848,63.1441515 59.715303,63.3056667 L59.715303,63.3056667 C59.4966667,63.6109697 59.2543939,63.8965758 59.000303,64.1723333 L59.000303,64.1723333 C58.7284848,64.4677879 58.4369697,64.7435455 58.1277273,65.0074848 L58.1277273,65.0074848 C58.0036364,65.1118788 57.8815152,65.2162727 57.7515152,65.3167273 L57.7515152,65.3167273 C57.4659091,65.5373333 57.1704545,65.7461212 56.8572727,65.9371818 L56.8572727,65.9371818 C56.3471212,66.2464242 55.815303,66.5064242 55.2519697,66.7191515 L55.2519697,66.7191515 C54.7142424,66.9220303 54.1745455,67.0776364 53.6348485,67.1820303 L53.6348485,67.1820303 C53.2251515,67.2588485 52.8016667,67.2883939 52.3742424,67.3100606 L52.3742424,67.3100606 C52.2186364,67.3199091 52.0610606,67.3238485 51.9054545,67.3238485 L51.9054545,67.3238485 C51.7183333,67.3238485 51.5292424,67.3179394 51.3440909,67.3061212 L51.3440909,67.3061212 Z M59.1972727,66.729 C60.2963636,65.8367273 61.2240909,64.7415758 61.9390909,63.5085455 L61.9390909,63.5085455 C61.9568182,63.4770303 61.9765152,63.4494545 61.9942424,63.4199091 L61.9942424,63.4199091 C62.3113636,62.8585455 62.5792424,62.2676364 62.7998485,61.6550606 L62.7998485,61.6550606 C62.8313636,61.5703636 62.8648485,61.4876364 62.8924242,61.4029394 L62.8924242,61.4029394 C63.0913636,60.8159697 63.2390909,60.2053636 63.3395455,59.579 L63.3395455,59.579 C63.3474242,59.5238485 63.3710606,59.4706667 63.3809091,59.4155152 L63.3809091,59.4155152 L101.451212,83.3335455 L98.8571212,87.8283939 L59.1972727,66.729 Z M2.31242424,83.3276364 L40.3866667,59.4155152 C40.3945455,59.4706667 40.4181818,59.5238485 40.4280303,59.579 L40.4280303,59.579 C40.5284848,60.2053636 40.6742424,60.8159697 40.8731818,61.4029394 L40.8731818,61.4029394 C40.9027273,61.4856667 40.9342424,61.5683939 40.9657576,61.6511212 L40.9657576,61.6511212 C41.1883333,62.2656667 41.4542424,62.8565758 41.7733333,63.4199091 L41.7733333,63.4199091 C41.7890909,63.4474848 41.8087879,63.4750606 41.8245455,63.5026364 L41.8245455,63.5026364 C42.5375758,64.7356667 43.465303,65.8308182 44.5643939,66.7250606 L44.5643939,66.7250606 L4.90651515,87.8224848 L2.31242424,83.3276364 Z M53.3590909,69.2265758 C53.3866667,69.2226364 53.4142424,69.2167273 53.4418182,69.2127879 L53.4418182,69.2127879 C53.9381818,69.1458182 54.4227273,69.0473333 54.8974242,68.919303 L54.8974242,68.919303 L61.4230303,127.63597 L42.3504545,127.63597 L48.8760606,68.919303 C49.3487879,69.049303 49.835303,69.1458182 50.329697,69.2147576 L50.329697,69.2147576 C50.3572727,69.2167273 50.3848485,69.2226364 50.4124242,69.2265758 L50.4124242,69.2265758 C50.895,69.2876364 51.3834848,69.329 51.8837879,69.329 L51.8837879,69.329 C52.3840909,69.329 52.8745455,69.2876364 53.3590909,69.2265758 L53.3590909,69.2265758 Z M40.6466667,15.6429394 C21.6331818,20.709 8.35348485,38.0068788 8.35348485,57.7097576 L8.35348485,57.7097576 C8.35348485,61.5250606 8.84787879,65.3127879 9.82287879,68.9626364 L9.82287879,68.9626364 C9.93909091,69.4018788 10.3389394,69.6933939 10.7722727,69.6933939 L10.7722727,69.6933939 C10.8569697,69.6933939 10.9436364,69.6815758 11.0283333,69.6599091 L11.0283333,69.6599091 C11.5542424,69.5200606 11.8654545,68.9803636 11.7256061,68.4544545 L11.7256061,68.4544545 C10.7939394,64.9680909 10.3231818,61.3517273 10.3231818,57.7097576 L10.3231818,57.7097576 C10.3231818,38.8971818 23.0021212,22.3812727 41.1548485,17.5456667 L41.1548485,17.5456667 C41.6807576,17.4058182 41.9919697,16.8661212 41.8521212,16.3402121 L41.8521212,16.3402121 C41.7339394,15.8970303 41.3380303,15.6094545 40.9007576,15.6094545 L40.9007576,15.6094545 C40.8180303,15.6094545 40.7313636,15.619303 40.6466667,15.6429394 L40.6466667,15.6429394 Z M61.9213636,16.3421818 C61.7795455,16.8680909 62.0927273,17.4077879 62.6186364,17.5476364 L62.6186364,17.5476364 C80.7693939,22.3871818 93.4443939,38.9030909 93.4443939,57.7097576 L93.4443939,57.7097576 C93.4443939,61.3517273 92.9716667,64.9700606 92.0419697,68.4583939 L92.0419697,68.4583939 C91.9001515,68.984303 92.2113636,69.524 92.7392424,69.6638485 L92.7392424,69.6638485 C92.8239394,69.6855152 92.9086364,69.6973333 92.9933333,69.6973333 L92.9933333,69.6973333 C93.4286364,69.6973333 93.8265152,69.4077879 93.944697,68.9665758 L93.944697,68.9665758 C94.919697,65.3147576 95.4140909,61.5250606 95.4140909,57.7097576 L95.4140909,57.7097576 C95.4140909,38.0108182 82.1383333,20.7149091 63.1248485,15.6449091 L63.1248485,15.6449091 C63.0421212,15.6212727 62.9574242,15.6114242 62.874697,15.6114242 L62.874697,15.6114242 C62.4413636,15.6114242 62.0395455,15.9009697 61.9213636,16.3421818 L61.9213636,16.3421818 Z M49.4807576,57.7097576 C49.4807576,59.0353636 50.5581818,60.1127879 51.8837879,60.1127879 L51.8837879,60.1127879 C53.2093939,60.1127879 54.2868182,59.0353636 54.2868182,57.7097576 L54.2868182,57.7097576 C54.2868182,56.3841515 53.2093939,55.3047576 51.8837879,55.3047576 L51.8837879,55.3047576 C50.5581818,55.3047576 49.4807576,56.3841515 49.4807576,57.7097576 L49.4807576,57.7097576 Z M51.4504545,57.7097576 C51.4504545,57.4694545 51.6454545,57.2744545 51.8837879,57.2744545 L51.8837879,57.2744545 C52.1240909,57.2744545 52.3171212,57.4694545 52.3171212,57.7097576 L52.3171212,57.7097576 C52.3171212,57.9480909 52.1004545,58.0662727 51.8837879,58.0662727 L51.8837879,58.0662727 C51.6671212,58.0662727 51.4504545,57.9480909 51.4504545,57.7097576 L51.4504545,57.7097576 Z" id="path-1"></path>
        <linearGradient x1="30.1832893%" y1="12.5962301%" x2="68.7649998%" y2="96.0646933%" id="linearGradient-3">
            <stop stop-color="#FFB800" offset="0%"></stop>
            <stop stop-color="#64AFD1" offset="100%"></stop>
        </linearGradient>
    </defs>
    <g id="Page-1" stroke="none" stroke-width="1" fill="none" fill-rule="evenodd">
        <g id="HOMEPAGE" transform="translate(-309.000000, -906.000000)">
            <g id="Group-9" transform="translate(250.000000, 690.000000)">
                <g id="Group-3" transform="translate(59.000000, 216.000000)">
                    <mask id="mask-2" fill="white">
                        <use xlink:href="#path-1"></use>
                    </mask>
                    <g id="Clip-2"></g>
                    <path d="M48.340303,-0.000393939394 C47.8104545,-0.000393939394 47.3771212,0.421121212 47.3574242,0.949 L47.3574242,0.949 L45.7265152,47.8691515 C42.6025758,49.8329394 40.4792424,53.2346061 40.2901515,57.1444545 L40.2901515,57.1444545 L0.460909091,82.1635455 C0.171363636,82.3447576 0.00787878788,82.654 0,82.9730909 L0,82.9730909 L0,83.0262727 C0.00393939394,83.1858182 0.0472727273,83.3453636 0.131969697,83.4911212 L0.131969697,83.4911212 L3.67742424,89.6306667 C3.85863636,89.9458182 4.18954545,90.1230909 4.53030303,90.1230909 L4.53030303,90.1230909 C4.68787879,90.1230909 4.84545455,90.0856667 4.99121212,90.0088485 L4.99121212,90.0088485 L46.429697,67.964 C46.6069697,68.0585455 46.7901515,68.139303 46.9693939,68.224 L46.9693939,68.224 L40.3689394,127.63597 L30.6130303,127.63597 C30.0693939,127.63597 29.6281818,128.075212 29.6281818,128.620818 L29.6281818,128.620818 C29.6281818,129.166424 30.0693939,129.605667 30.6130303,129.605667 L30.6130303,129.605667 L41.2493939,129.605667 L62.5221212,129.605667 L73.1604545,129.605667 C73.7040909,129.605667 74.145303,129.166424 74.145303,128.620818 L74.145303,128.620818 C74.145303,128.075212 73.7040909,127.63597 73.1604545,127.63597 L73.1604545,127.63597 L63.4045455,127.63597 L56.8040909,68.2220303 C56.9813636,68.139303 57.1586364,68.0605152 57.33,67.9679394 L57.33,67.9679394 L98.7704545,90.0127879 C98.9181818,90.0935455 99.0757576,90.129 99.2313636,90.129 L99.2313636,90.129 C99.5740909,90.129 99.9030303,89.9517273 100.086212,89.6365758 L100.086212,89.6365758 L103.631667,83.4970303 C103.895606,83.0400606 103.751818,82.4530909 103.304697,82.1694545 L103.304697,82.1694545 L63.4754545,57.1444545 C63.2863636,53.2405152 61.1689394,49.8388485 58.0469697,47.8730909 L58.0469697,47.8730909 L56.4180303,0.949 C56.3983333,0.421121212 55.9630303,-0.000393939394 55.4331818,-0.000393939394 L55.4331818,-0.000393939394 L48.340303,-0.000393939394 Z M49.2916667,1.96930303 L54.4818182,1.96930303 L56.0398485,46.8685455 C54.7477273,46.3721818 53.3492424,46.0865758 51.8837879,46.0865758 L51.8837879,46.0865758 C50.420303,46.0865758 49.0237879,46.3702121 47.7336364,46.8665758 L47.7336364,46.8665758 L49.2916667,1.96930303 Z M51.3440909,67.3061212 C50.9363636,67.2844545 50.5286364,67.2568788 50.1366667,67.1820303 L50.1366667,67.1820303 C49.5851515,67.0756667 49.0336364,66.9180909 48.4801515,66.709303 L48.4801515,66.709303 C47.9306061,66.5005152 47.4106061,66.2405152 46.9142424,65.9391515 L46.9142424,65.9391515 C46.5951515,65.7461212 46.2977273,65.5314242 46.0081818,65.3088485 L46.0081818,65.3088485 C45.8840909,65.2123333 45.7639394,65.1138485 45.6457576,65.0114242 L45.6457576,65.0114242 C45.3306061,64.7474848 45.0351515,64.4618788 44.7593939,64.1644545 L44.7593939,64.1644545 C44.5112121,63.888697 44.2689394,63.6070303 44.0522727,63.3076364 L44.0522727,63.3076364 C43.9340909,63.1421818 43.8277273,62.9708182 43.7193939,62.7994545 L43.7193939,62.7994545 C43.4928788,62.4429394 43.2860606,62.0706667 43.1107576,61.6826364 L43.1107576,61.6826364 C43.0674242,61.5841515 43.0122727,61.4915758 42.9689394,61.3911212 L42.9689394,61.3911212 C42.7640909,60.8927879 42.6065152,60.3688485 42.4843939,59.8311212 L42.4843939,59.8311212 C42.4548485,59.6991515 42.4312121,59.5711212 42.4075758,59.4371818 L42.4075758,59.4371818 C42.3051515,58.8758182 42.2322727,58.3026364 42.2322727,57.7097576 L42.2322727,57.7097576 C42.2322727,54.0756667 44.2748485,50.9399091 47.2530303,49.2932424 L47.2530303,49.2932424 C47.255,49.2912727 47.2569697,49.2912727 47.2589394,49.2912727 L47.2589394,49.2912727 C47.8833333,48.9485455 48.5234848,48.6944545 49.1695455,48.4935455 L49.1695455,48.4935455 C49.3192424,48.4502121 49.4630303,48.3911212 49.614697,48.3556667 L49.614697,48.3556667 C49.8510606,48.2946061 50.0893939,48.2552121 50.3257576,48.2138485 L50.3257576,48.2138485 C50.7906061,48.139 51.2613636,48.0779394 51.7478788,48.0700606 L51.7478788,48.0700606 C51.8384848,48.0680909 51.9271212,48.0680909 52.0177273,48.0700606 L52.0177273,48.0700606 C52.5042424,48.0779394 52.9769697,48.139 53.4457576,48.2138485 L53.4457576,48.2138485 C53.6801515,48.2571818 53.9165152,48.2946061 54.1469697,48.353697 L54.1469697,48.353697 C54.3084848,48.3911212 54.4562121,48.4521818 54.6118182,48.4974848 L54.6118182,48.4974848 C55.2539394,48.6983939 55.8862121,48.9505152 56.504697,49.2912727 L56.504697,49.2912727 C56.5066667,49.2912727 56.5086364,49.2912727 56.5125758,49.2912727 L56.5125758,49.2912727 C59.4907576,50.9399091 61.535303,54.0756667 61.535303,57.7097576 L61.535303,57.7097576 C61.535303,58.3026364 61.4624242,58.8758182 61.36,59.4371818 L61.36,59.4371818 C61.3363636,59.5711212 61.3107576,59.7011212 61.2812121,59.8311212 L61.2812121,59.8311212 C61.1610606,60.3708182 61.0054545,60.8927879 60.794697,61.3930909 L60.794697,61.3930909 C60.7572727,61.4915758 60.7021212,61.5821818 60.6568182,61.678697 L60.6568182,61.678697 C60.4795455,62.068697 60.2727273,62.4429394 60.0481818,62.8014242 L60.0481818,62.8014242 C59.9398485,62.9727879 59.8334848,63.1441515 59.715303,63.3056667 L59.715303,63.3056667 C59.4966667,63.6109697 59.2543939,63.8965758 59.000303,64.1723333 L59.000303,64.1723333 C58.7284848,64.4677879 58.4369697,64.7435455 58.1277273,65.0074848 L58.1277273,65.0074848 C58.0036364,65.1118788 57.8815152,65.2162727 57.7515152,65.3167273 L57.7515152,65.3167273 C57.4659091,65.5373333 57.1704545,65.7461212 56.8572727,65.9371818 L56.8572727,65.9371818 C56.3471212,66.2464242 55.815303,66.5064242 55.2519697,66.7191515 L55.2519697,66.7191515 C54.7142424,66.9220303 54.1745455,67.0776364 53.6348485,67.1820303 L53.6348485,67.1820303 C53.2251515,67.2588485 52.8016667,67.2883939 52.3742424,67.3100606 L52.3742424,67.3100606 C52.2186364,67.3199091 52.0610606,67.3238485 51.9054545,67.3238485 L51.9054545,67.3238485 C51.7183333,67.3238485 51.5292424,67.3179394 51.3440909,67.3061212 L51.3440909,67.3061212 Z M59.1972727,66.729 C60.2963636,65.8367273 61.2240909,64.7415758 61.9390909,63.5085455 L61.9390909,63.5085455 C61.9568182,63.4770303 61.9765152,63.4494545 61.9942424,63.4199091 L61.9942424,63.4199091 C62.3113636,62.8585455 62.5792424,62.2676364 62.7998485,61.6550606 L62.7998485,61.6550606 C62.8313636,61.5703636 62.8648485,61.4876364 62.8924242,61.4029394 L62.8924242,61.4029394 C63.0913636,60.8159697 63.2390909,60.2053636 63.3395455,59.579 L63.3395455,59.579 C63.3474242,59.5238485 63.3710606,59.4706667 63.3809091,59.4155152 L63.3809091,59.4155152 L101.451212,83.3335455 L98.8571212,87.8283939 L59.1972727,66.729 Z M2.31242424,83.3276364 L40.3866667,59.4155152 C40.3945455,59.4706667 40.4181818,59.5238485 40.4280303,59.579 L40.4280303,59.579 C40.5284848,60.2053636 40.6742424,60.8159697 40.8731818,61.4029394 L40.8731818,61.4029394 C40.9027273,61.4856667 40.9342424,61.5683939 40.9657576,61.6511212 L40.9657576,61.6511212 C41.1883333,62.2656667 41.4542424,62.8565758 41.7733333,63.4199091 L41.7733333,63.4199091 C41.7890909,63.4474848 41.8087879,63.4750606 41.8245455,63.5026364 L41.8245455,63.5026364 C42.5375758,64.7356667 43.465303,65.8308182 44.5643939,66.7250606 L44.5643939,66.7250606 L4.90651515,87.8224848 L2.31242424,83.3276364 Z M53.3590909,69.2265758 C53.3866667,69.2226364 53.4142424,69.2167273 53.4418182,69.2127879 L53.4418182,69.2127879 C53.9381818,69.1458182 54.4227273,69.0473333 54.8974242,68.919303 L54.8974242,68.919303 L61.4230303,127.63597 L42.3504545,127.63597 L48.8760606,68.919303 C49.3487879,69.049303 49.835303,69.1458182 50.329697,69.2147576 L50.329697,69.2147576 C50.3572727,69.2167273 50.3848485,69.2226364 50.4124242,69.2265758 L50.4124242,69.2265758 C50.895,69.2876364 51.3834848,69.329 51.8837879,69.329 L51.8837879,69.329 C52.3840909,69.329 52.8745455,69.2876364 53.3590909,69.2265758 L53.3590909,69.2265758 Z M40.6466667,15.6429394 C21.6331818,20.709 8.35348485,38.0068788 8.35348485,57.7097576 L8.35348485,57.7097576 C8.35348485,61.5250606 8.84787879,65.3127879 9.82287879,68.9626364 L9.82287879,68.9626364 C9.93909091,69.4018788 10.3389394,69.6933939 10.7722727,69.6933939 L10.7722727,69.6933939 C10.8569697,69.6933939 10.9436364,69.6815758 11.0283333,69.6599091 L11.0283333,69.6599091 C11.5542424,69.5200606 11.8654545,68.9803636 11.7256061,68.4544545 L11.7256061,68.4544545 C10.7939394,64.9680909 10.3231818,61.3517273 10.3231818,57.7097576 L10.3231818,57.7097576 C10.3231818,38.8971818 23.0021212,22.3812727 41.1548485,17.5456667 L41.1548485,17.5456667 C41.6807576,17.4058182 41.9919697,16.8661212 41.8521212,16.3402121 L41.8521212,16.3402121 C41.7339394,15.8970303 41.3380303,15.6094545 40.9007576,15.6094545 L40.9007576,15.6094545 C40.8180303,15.6094545 40.7313636,15.619303 40.6466667,15.6429394 L40.6466667,15.6429394 Z M61.9213636,16.3421818 C61.7795455,16.8680909 62.0927273,17.4077879 62.6186364,17.5476364 L62.6186364,17.5476364 C80.7693939,22.3871818 93.4443939,38.9030909 93.4443939,57.7097576 L93.4443939,57.7097576 C93.4443939,61.3517273 92.9716667,64.9700606 92.0419697,68.4583939 L92.0419697,68.4583939 C91.9001515,68.984303 92.2113636,69.524 92.7392424,69.6638485 L92.7392424,69.6638485 C92.8239394,69.6855152 92.9086364,69.6973333 92.9933333,69.6973333 L92.9933333,69.6973333 C93.4286364,69.6973333 93.8265152,69.4077879 93.944697,68.9665758 L93.944697,68.9665758 C94.919697,65.3147576 95.4140909,61.5250606 95.4140909,57.7097576 L95.4140909,57.7097576 C95.4140909,38.0108182 82.1383333,20.7149091 63.1248485,15.6449091 L63.1248485,15.6449091 C63.0421212,15.6212727 62.9574242,15.6114242 62.874697,15.6114242 L62.874697,15.6114242 C62.4413636,15.6114242 62.0395455,15.9009697 61.9213636,16.3421818 L61.9213636,16.3421818 Z M49.4807576,57.7097576 C49.4807576,59.0353636 50.5581818,60.1127879 51.8837879,60.1127879 L51.8837879,60.1127879 C53.2093939,60.1127879 54.2868182,59.0353636 54.2868182,57.7097576 L54.2868182,57.7097576 C54.2868182,56.3841515 53.2093939,55.3047576 51.8837879,55.3047576 L51.8837879,55.3047576 C50.5581818,55.3047576 49.4807576,56.3841515 49.4807576,57.7097576 L49.4807576,57.7097576 Z M51.4504545,57.7097576 C51.4504545,57.4694545 51.6454545,57.2744545 51.8837879,57.2744545 L51.8837879,57.2744545 C52.1240909,57.2744545 52.3171212,57.4694545 52.3171212,57.7097576 L52.3171212,57.7097576 C52.3171212,57.9480909 52.1004545,58.0662727 51.8837879,58.0662727 L51.8837879,58.0662727 C51.6671212,58.0662727 51.4504545,57.9480909 51.4504545,57.7097576 L51.4504545,57.7097576 Z" id="Fill-1" fill="url(#linearGradient-3)" mask="url(#mask-2)"></path>
                </g>
            </g>
        </g>
    </g>
</svg>