<?xml version="1.0" encoding="UTF-8"?>
<svg width="116px" height="130px" viewBox="0 0 116 130" version="1.1" xmlns="http://www.w3.org/2000/svg" xmlns:xlink="http://www.w3.org/1999/xlink">
    <title>Group 3</title>
    <defs>
        <path d="M64.7715152,0.00157575758 C64.4307576,0.0114242424 64.109697,0.198545455 63.9383333,0.51369697 L63.9383333,0.51369697 L21.3909091,78.5097576 C21.2254545,78.8150606 21.2293939,79.1833939 21.4086364,79.4827879 L21.4086364,79.4827879 C21.5859091,79.7802121 21.9069697,79.9653636 22.2556061,79.9653636 L22.2556061,79.9653636 L56.5756061,79.9653636 L49.6442424,128.473091 C49.5772727,128.945818 49.8569697,129.396879 50.31,129.548545 L50.31,129.548545 C50.4104545,129.58203 50.5148485,129.597788 50.6192424,129.597788 L50.6192424,129.597788 C50.9718182,129.597788 51.3086364,129.408697 51.4839394,129.083697 L51.4839394,129.083697 L94.0333333,51.0896061 C94.1987879,50.784303 94.1948485,50.414 94.0156061,50.1146061 L94.0156061,50.1146061 C93.8383333,49.8152121 93.5172727,49.6320303 93.1666667,49.6320303 L93.1666667,49.6320303 L58.8466667,49.6320303 L65.7780303,1.12233333 C65.845,0.651575758 65.5633333,0.198545455 65.1122727,0.0488484848 L65.1122727,0.0488484848 C65.019697,0.0193030303 64.9271212,0.00354545455 64.8345455,0.00157575758 L64.8345455,0.00157575758 L64.7715152,0.00157575758 Z M63.0559091,6.24157576 L56.7371212,50.4770303 C56.6957576,50.7606667 56.7804545,51.0482424 56.9656061,51.2629394 L56.9656061,51.2629394 C57.154697,51.4796061 57.4284848,51.603697 57.7101515,51.603697 L57.7101515,51.603697 L91.5081818,51.603697 L52.3663636,123.355818 L58.6851515,79.1183939 C58.7265152,78.8367273 58.6437879,78.5511212 58.4566667,78.3344545 L58.4566667,78.3344545 C58.2695455,78.1197576 57.9957576,77.9956667 57.7101515,77.9956667 L57.7101515,77.9956667 L23.9160606,77.9956667 L63.0559091,6.24157576 Z M46.7271212,8.12854545 C19.6516667,13.3482424 0,37.1796061 0,64.7967273 L0,64.7967273 C0,89.8512727 15.9880303,111.90203 39.7878788,119.672485 L39.7878788,119.672485 C39.8883333,119.70597 39.9907576,119.721727 40.0912121,119.721727 L40.0912121,119.721727 C40.5068182,119.721727 40.8909091,119.457788 41.0307576,119.042182 L41.0307576,119.042182 C41.1962121,118.526121 40.9165152,117.968697 40.3984848,117.799303 L40.3984848,117.799303 C17.4140909,110.296727 1.96969697,88.9944545 1.96969697,64.7967273 L1.96969697,64.7967273 C1.96969697,38.1211212 20.9477273,15.1032424 47.0993939,10.0647576 L47.0993939,10.0647576 C47.6351515,9.96036364 47.9818182,9.44627273 47.8813636,8.91051515 L47.8813636,8.91051515 C47.7907576,8.43581818 47.3633333,8.11278788 46.9024242,8.11278788 L46.9024242,8.11278788 C46.8433333,8.11278788 46.7862121,8.11869697 46.7271212,8.12854545 L46.7271212,8.12854545 Z M74.3915152,10.5532424 C74.2260606,11.0712727 74.5057576,11.628697 75.0237879,11.7961212 L75.0237879,11.7961212 C98.0101515,19.298697 113.454545,40.599 113.454545,64.7967273 L113.454545,64.7967273 C113.454545,91.474303 94.4725758,114.492182 68.3228788,119.532636 L68.3228788,119.532636 C67.7871212,119.635061 67.4404545,120.151121 67.5409091,120.686879 L67.5409091,120.686879 C67.6315152,121.157636 68.0451515,121.484606 68.5080303,121.484606 L68.5080303,121.484606 C68.5710606,121.484606 68.6321212,121.478697 68.6951515,121.466879 L68.6951515,121.466879 C95.7706061,116.249152 115.424242,92.4158182 115.424242,64.7967273 L115.424242,64.7967273 C115.424242,39.7441515 99.4322727,17.6933939 75.6343939,9.92490909 L75.6343939,9.92490909 C75.5319697,9.89142424 75.4295455,9.87566667 75.3271212,9.87566667 L75.3271212,9.87566667 C74.9115152,9.87566667 74.5293939,10.1376364 74.3915152,10.5532424 L74.3915152,10.5532424 Z" id="path-1"></path>
        <linearGradient x1="30.1627082%" y1="11.4215699%" x2="69.8364531%" y2="88.5756846%" id="linearGradient-3">
            <stop stop-color="#FFB800" offset="0%"></stop>
            <stop stop-color="#D6001C" offset="100%"></stop>
        </linearGradient>
    </defs>
    <g id="Page-1" stroke="none" stroke-width="1" fill="none" fill-rule="evenodd">
        <g id="HOMEPAGE" transform="translate(-1020.000000, -906.000000)">
            <g id="Group-9" transform="translate(250.000000, 690.000000)">
                <g id="Group-3" transform="translate(770.000000, 216.000000)">
                    <mask id="mask-2" fill="white">
                        <use xlink:href="#path-1"></use>
                    </mask>
                    <g id="Clip-2"></g>
                    <path d="M64.7715152,0.00157575758 C64.4307576,0.0114242424 64.109697,0.198545455 63.9383333,0.51369697 L63.9383333,0.51369697 L21.3909091,78.5097576 C21.2254545,78.8150606 21.2293939,79.1833939 21.4086364,79.4827879 L21.4086364,79.4827879 C21.5859091,79.7802121 21.9069697,79.9653636 22.2556061,79.9653636 L22.2556061,79.9653636 L56.5756061,79.9653636 L49.6442424,128.473091 C49.5772727,128.945818 49.8569697,129.396879 50.31,129.548545 L50.31,129.548545 C50.4104545,129.58203 50.5148485,129.597788 50.6192424,129.597788 L50.6192424,129.597788 C50.9718182,129.597788 51.3086364,129.408697 51.4839394,129.083697 L51.4839394,129.083697 L94.0333333,51.0896061 C94.1987879,50.784303 94.1948485,50.414 94.0156061,50.1146061 L94.0156061,50.1146061 C93.8383333,49.8152121 93.5172727,49.6320303 93.1666667,49.6320303 L93.1666667,49.6320303 L58.8466667,49.6320303 L65.7780303,1.12233333 C65.845,0.651575758 65.5633333,0.198545455 65.1122727,0.0488484848 L65.1122727,0.0488484848 C65.019697,0.0193030303 64.9271212,0.00354545455 64.8345455,0.00157575758 L64.8345455,0.00157575758 L64.7715152,0.00157575758 Z M63.0559091,6.24157576 L56.7371212,50.4770303 C56.6957576,50.7606667 56.7804545,51.0482424 56.9656061,51.2629394 L56.9656061,51.2629394 C57.154697,51.4796061 57.4284848,51.603697 57.7101515,51.603697 L57.7101515,51.603697 L91.5081818,51.603697 L52.3663636,123.355818 L58.6851515,79.1183939 C58.7265152,78.8367273 58.6437879,78.5511212 58.4566667,78.3344545 L58.4566667,78.3344545 C58.2695455,78.1197576 57.9957576,77.9956667 57.7101515,77.9956667 L57.7101515,77.9956667 L23.9160606,77.9956667 L63.0559091,6.24157576 Z M46.7271212,8.12854545 C19.6516667,13.3482424 0,37.1796061 0,64.7967273 L0,64.7967273 C0,89.8512727 15.9880303,111.90203 39.7878788,119.672485 L39.7878788,119.672485 C39.8883333,119.70597 39.9907576,119.721727 40.0912121,119.721727 L40.0912121,119.721727 C40.5068182,119.721727 40.8909091,119.457788 41.0307576,119.042182 L41.0307576,119.042182 C41.1962121,118.526121 40.9165152,117.968697 40.3984848,117.799303 L40.3984848,117.799303 C17.4140909,110.296727 1.96969697,88.9944545 1.96969697,64.7967273 L1.96969697,64.7967273 C1.96969697,38.1211212 20.9477273,15.1032424 47.0993939,10.0647576 L47.0993939,10.0647576 C47.6351515,9.96036364 47.9818182,9.44627273 47.8813636,8.91051515 L47.8813636,8.91051515 C47.7907576,8.43581818 47.3633333,8.11278788 46.9024242,8.11278788 L46.9024242,8.11278788 C46.8433333,8.11278788 46.7862121,8.11869697 46.7271212,8.12854545 L46.7271212,8.12854545 Z M74.3915152,10.5532424 C74.2260606,11.0712727 74.5057576,11.628697 75.0237879,11.7961212 L75.0237879,11.7961212 C98.0101515,19.298697 113.454545,40.599 113.454545,64.7967273 L113.454545,64.7967273 C113.454545,91.474303 94.4725758,114.492182 68.3228788,119.532636 L68.3228788,119.532636 C67.7871212,119.635061 67.4404545,120.151121 67.5409091,120.686879 L67.5409091,120.686879 C67.6315152,121.157636 68.0451515,121.484606 68.5080303,121.484606 L68.5080303,121.484606 C68.5710606,121.484606 68.6321212,121.478697 68.6951515,121.466879 L68.6951515,121.466879 C95.7706061,116.249152 115.424242,92.4158182 115.424242,64.7967273 L115.424242,64.7967273 C115.424242,39.7441515 99.4322727,17.6933939 75.6343939,9.92490909 L75.6343939,9.92490909 C75.5319697,9.89142424 75.4295455,9.87566667 75.3271212,9.87566667 L75.3271212,9.87566667 C74.9115152,9.87566667 74.5293939,10.1376364 74.3915152,10.5532424 L74.3915152,10.5532424 Z" id="Fill-1" fill="url(#linearGradient-3)" mask="url(#mask-2)"></path>
                </g>
            </g>
        </g>
    </g>
</svg>