<?xml version="1.0" encoding="UTF-8"?><svg version="1.1" viewBox="0 0 247 61" xmlns="http://www.w3.org/2000/svg">
<title>Mitsubishi Power</title><g><path d="m106.59 39.58c5.89 0 10.11 3.48 10.11 10.08 0 6.82-4 10.49-10.11 10.49-6.51 0-10.13-3.45-10.13-10.49 0-6.33 4.24-10.08 10.13-10.08zm28.56 0.72c0.097908 0.028504 0.1714 0.10974 0.19 0.21l3.37 15.49h0.12l3.26-15.41c0.017216-0.083455 0.072819-0.15389 0.15-0.19 0.66944-0.20788 1.3696-0.29921 2.07-0.27 0.65109-0.03436 1.3033 0.039991 1.93 0.22 0.12735 0.05068 0.19929 0.1861 0.17 0.32l-4.49 18.62c-0.022529 0.097712-0.10126 0.17251-0.2 0.19-0.96258 0.17955-1.941 0.25997-2.92 0.24-1.0056 0.022078-2.0107-0.058337-3-0.24-0.10027-0.021402-0.1786-0.099731-0.2-0.2l-3.44-15.54-0.09-0.03-3.57 15.54c-0.023621 0.099046-0.10095 0.17638-0.2 0.2-0.98918 0.18222-1.9944 0.26264-3 0.24-0.97895 0.018999-1.9573-0.061413-2.92-0.24-0.097539-0.01983-0.1752-0.093605-0.2-0.19l-4.39-18.58c-0.040491-0.12679 0.025452-0.26307 0.15-0.31 0.64441-0.21214 1.3224-0.30367 2-0.27 0.744-0.039552 1.4884 0.069223 2.19 0.32 0.072382 0.039612 0.12361 0.10913 0.14 0.19l3.29 15.39h0.12l3.4-15.49c0.022526-0.098267 0.09447-0.17778 0.19-0.21 1.9458-0.33338 3.9342-0.33338 5.88 0zm38.56-0.48c5.09 0 9.39 1.14 9.39 6.4 0 2.78-1.07 4.69-3.25 5.78l4.55 6.84c0.068892 0.061658 0.099858 0.15526 0.081331 0.24584-0.018528 0.090579-0.083762 0.1645-0.17133 0.19416-0.64795 0.20738-1.3204 0.32842-2 0.36-0.87823 0.088664-1.7648 0.044841-2.63-0.13-0.052987-0.018435-0.098591-0.053514-0.13-0.1l-4.12-6.3c-1.2218 0.085524-2.4482 0.085524-3.67 0v6c-7.06e-4 0.1019-0.058718 0.19471-0.15 0.24-0.67313 0.22342-1.3815 0.32171-2.09 0.29-0.71817 0.027748-1.4357-0.0704-2.12-0.29-0.096888-0.04037-0.16-0.13504-0.16-0.24v-18.55c0.008001-0.12234 0.092077-0.22644 0.21-0.26 2.0694-0.33626 4.1635-0.49683 6.26-0.48zm-88.59 0c5.09 0 9.5 1.22 9.5 6.65 0 5.78-3.91 7.2-11.45 7.2v5.44c0.007508 0.10411-0.053131 0.20113-0.15 0.24-0.67313 0.22342-1.3815 0.32171-2.09 0.29-0.71486 0.026989-1.4289-0.071154-2.11-0.29-0.096888-0.04037-0.16005-0.13504-0.16005-0.24v-18.55c-0.0023048-0.12614 0.086237-0.23576 0.21005-0.26 2.0669-0.32931 4.1571-0.48984 6.25-0.48zm78.11 0.39c0.11022 3.264e-4 0.20918 0.067617 0.25 0.17 0.16602 0.52332 0.24044 1.0714 0.22 1.62 0.014962 0.52867-0.059416 1.0561-0.22 1.56-0.040822 0.10238-0.13978 0.16967-0.25 0.17h-9.45v4.37h8.7c0.10858-0.0041463 0.20829 0.059666 0.25 0.16 0.16533 0.49957 0.24314 1.0239 0.23 1.55 0.010798 0.52591-0.066954 1.0499-0.23 1.55-0.041713 0.10033-0.14142 0.16415-0.25 0.16h-8.7v4.48h9.69c0.11274 0.0019095 0.21243 0.073683 0.25 0.18 0.16058 0.50392 0.23496 1.0313 0.22 1.56 0.013839 0.53845-0.060475 1.0755-0.22 1.59-0.037571 0.10632-0.13726 0.17809-0.25 0.18h-13.88c-0.14912 0-0.27-0.12088-0.27-0.27v-18.77c0.005381-0.1452 0.1247-0.26 0.27-0.26h13.64zm-56.64 2.93c-3.55 0-5.47 2.39-5.47 6.52 0 4.43 2.01 6.91 5.47 6.91 3.56 0 5.45-2.48 5.45-6.91 0-4.07-2.16-6.52-5.45-6.52zm-21.4 0.27c-0.67016 0.0026152-1.339 0.059468-2 0.17l-0.05 6.49c3.88 0 6.91 0 6.91-3.41 0-2.52-2-3.25-4.86-3.25zm88.59-3.7e-6c-0.68688-5.289e-4 -1.3726 0.056336-2.05 0.17v5.88c4.41 0.38 6.8-0.25 6.8-3.05 0-2.53-1.88-3-4.75-3zm-27.26-27.99c0.045618 0.021917 0.083847 0.056671 0.11 0.1 0.58131 0.98807 0.85949 2.1252 0.8 3.27-2.27e-4 0.090738-0.047743 0.17479-0.12537 0.22178s-0.17413 0.0501-0.25463 0.0082208c-1.6729-0.85629-3.5209-1.3149-5.4-1.34-2.21 0-3.2 0.73-3.2 2 0 3.75 9.9 1.77 9.9 8.81 0 4.78-3.62 6.36-8.13 6.36-2.0071 0.033381-4.0013-0.32673-5.87-1.06-0.054603-0.015331-0.10118-0.051156-0.13-0.1-0.60136-1.0531-0.87957-2.2599-0.8-3.47 0.003609-0.088949 0.052475-0.16987 0.12952-0.21447s0.17155-0.046689 0.25048-0.0055291c2.0093 0.86788 4.1714 1.3268 6.36 1.35h0.05c2.66 0 3.7-0.92 3.7-2.36 0-4-10-1.85-10-8.81 0-3.89 2.81-5.92 7.41-5.92 1.802-0.042837 3.5871 0.35538 5.2 1.16zm67.5 0c0.045618 0.021917 0.083847 0.056671 0.11 0.1 0.58578 0.98625 0.8643 2.1247 0.8 3.27-2.27e-4 0.090738-0.047743 0.17479-0.12537 0.22178s-0.17413 0.0501-0.25463 0.0082208c-1.6729-0.85629-3.5209-1.3149-5.4-1.34-2.21 0-3.2 0.73-3.2 2 0 3.75 9.9 1.77 9.9 8.81 0 4.78-3.62 6.36-8.13 6.36-2.0071 0.033381-4.0013-0.32673-5.87-1.06-0.052987-0.018435-0.098591-0.053514-0.13-0.1-0.59643-1.055-0.8743-2.2603-0.8-3.47 0.003609-0.088949 0.052475-0.16987 0.12952-0.21447s0.17155-0.046689 0.25048-0.0055291c2.0217 0.87309 4.1979 1.3321 6.4 1.35 2.66 0 3.71-0.92 3.71-2.36 0-4-10-1.85-10-8.81 0-3.89 2.81-5.92 7.41-5.92 1.802-0.042837 3.5871 0.35538 5.2 1.16zm-45.11-0.37c0.094829 0.041272 0.15446 0.13667 0.15 0.24v11.25c0 5.19-2.72 8.29-9.09 8.29-5.86 0-8.61-2.64-8.61-7.58v-11.95c0-0.10496 0.063112-0.19963 0.16-0.24 0.68125-0.21805 1.3952-0.31617 2.11-0.29 0.70857-0.03262 1.4171 0.065691 2.09 0.29 0.10082 0.035453 0.16605 0.1333 0.16 0.24l0.03 11.59c0 2.88 1.31 4.24 4.3 4.24 3.23 0 4.49-1.63 4.49-4.32v-11.51c-0.004455-0.10333 0.055171-0.19873 0.15-0.24 0.64432-0.21398 1.3214-0.31216 2-0.29 0.69791-0.031058 1.3957 0.063788 2.06 0.28zm10.93-0.49001c5.14 0 8.85 1.44 8.85 5.27 0.1213 1.9053-1.1442 3.6221-3 4.07l0.04 0.22c2.48 0.63 4.06 1.9 4.06 4.57 0 4.24-4.06 5.76-9.23 5.76-2.5 0-5.25-0.1-7.18-0.3-0.13729-0.015347-0.24086-0.13185-0.24002-0.27v-18.53c-0.001519-0.12932 0.092227-0.24011 0.22002-0.26 2.1418-0.35421 4.3091-0.53148 6.48-0.53001zm-77.84 0.44001c0.12381 0.02424 0.21235 0.13386 0.21005 0.26v18.58c0 0.10496-0.063158 0.19963-0.16005 0.24-0.59725 0.1899-1.2244 0.26788-1.85 0.23-0.63192 0.031264-1.2645-0.04654-1.87-0.23-0.096888-0.04037-0.16-0.13504-0.16-0.24v-15.78h-0.17l-5.33 15.94c-0.024813 0.077987-0.083659 0.14051-0.16 0.17-1.3393 0.30659-2.7307 0.30659-4.07 0-0.076341-0.02949-0.13519-0.092013-0.16-0.17l-5.46-15.94h-0.12v15.78c0 0.10496-0.063112 0.19963-0.16 0.24-1.2211 0.3065-2.4989 0.3065-3.72 0-0.096888-0.04037-0.16-0.13504-0.16-0.24v-18.55c-0.0067285-0.1276 0.083843-0.23973 0.21-0.26 1.1668-0.18964 2.348-0.27664 3.53-0.26 1.0832-0.023573 2.1658 0.066926 3.23 0.27 0.094944 0.018156 0.17198 0.087486 0.2 0.18l4.7 15.21h0.12l4.47-15.21c0.028022-0.092514 0.10506-0.16184 0.2-0.18 1.0641-0.20359 2.1468-0.29409 3.23-0.27 1.1547-0.030796 2.3097 0.046204 3.45 0.23zm9.18 0.06c0.10082 0.035453 0.16605 0.1333 0.16 0.24v18.49c0 0.10496-0.063112 0.19963-0.16 0.24-0.6715 0.21481-1.3756 0.3096-2.08 0.28-0.71727 0.024161-1.4336-0.070448-2.12-0.28-0.10033-0.041713-0.16415-0.14142-0.16-0.25v-18.48c0-0.10496 0.063112-0.19963 0.16-0.24 0.68452-0.2188 1.4019-0.31693 2.12-0.29 0.70526-0.031842 1.4103 0.066464 2.08 0.29zm86.26 0c0.10082 0.035453 0.16605 0.1333 0.16 0.24v18.49c0 0.10496-0.063112 0.19963-0.16 0.24-0.6715 0.21481-1.3756 0.3096-2.08 0.28-0.714 0.024347-1.4271-0.070278-2.11-0.28-0.10033-0.041713-0.16415-0.14142-0.16-0.25v-18.48c0-0.10496 0.063112-0.19963 0.16-0.24 0.68107-0.21885 1.3951-0.31699 2.11-0.29 0.70526-0.031842 1.4103 0.066464 2.08 0.29zm-66.26-0.18001c0.11274 0.0019227 0.21243 0.073696 0.25 0.18001 0.17958 0.52093 0.26755 1.069 0.26 1.62 0.005347 0.55734-0.082532 1.1116-0.26 1.64-0.039873 0.10457-0.13818 0.17535-0.25 0.18h-5.83v15.29c0 0.10496-0.063112 0.19963-0.16 0.24-0.67513 0.21395-1.3824 0.3087-2.09 0.28-0.71242 0.01504-1.4223-0.089753-2.1-0.31-0.10033-0.041713-0.16415-0.14142-0.16-0.25l0.03-15.25h-5.87c-0.11274-0.0019095-0.21243-0.073683-0.25-0.18-0.17747-0.52835-0.26535-1.0827-0.26-1.64-0.007553-0.55096 0.080415-1.0991 0.26-1.62 0.034991-0.10822 0.13627-0.18114 0.25-0.18001h16.18zm114.88 0.23001c0.10082 0.035453 0.16605 0.1333 0.16 0.24v18.44c0 0.10496-0.063112 0.19963-0.16 0.24-0.67513 0.21395-1.3824 0.3087-2.09 0.28-0.714 0.024347-1.4271-0.070278-2.11-0.28-0.10033-0.041713-0.16415-0.14142-0.16-0.25v-18.43c0-0.10496 0.063112-0.19963 0.16-0.24 0.68107-0.21885 1.3951-0.31699 2.11-0.29 0.70853-0.031709 1.4169 0.066579 2.09 0.29zm-22.52-0.05c0.096888 0.04037 0.16 0.13504 0.16 0.24v7.27h9v-7.27c0-0.10496 0.063112-0.19963 0.16-0.24 1.3597-0.38689 2.8003-0.38689 4.16 0 0.096888 0.04037 0.16 0.13504 0.16 0.24v18.48c-0.011054 0.10254-0.081676 0.18886-0.18 0.22-1.3616 0.37312-2.7984 0.37312-4.16 0-0.10033-0.041713-0.16415-0.14142-0.16-0.25l0.02-7.62h-9v7.65c0.004146 0.10858-0.059666 0.20829-0.16 0.25-1.3649 0.37348-2.8051 0.37348-4.17 0-0.10033-0.041713-0.16415-0.14142-0.16-0.25v-18.48c0-0.10496 0.063112-0.19963 0.16-0.24 1.3631-0.38668 2.8069-0.38668 4.17 0zm-42.88 10.94h-3l-0.06 4.86c0.8 0.08 1.82 0.14 3 0.14 2.9 0 4.6-0.76 4.6-2.5s-1.73-2.5-4.54-2.5zm-3.02-7.84-0.04 4.44h3c2.21 0 3.52-0.73 3.52-2.26s-1.56-2.34-4.12-2.34c-0.78978-0.013723-1.5793 0.039803-2.36 0.16z"/><path d="m57.28 39.69 11.46 19.84h-22.92l-11.451-19.839-11.459 19.839h-22.91l11.46-19.84h45.82zm-22.91-39.69 11.45 19.84-11.45 19.85-11.46-19.85 11.46-19.84z" fill="#E31F26"/></g></svg>