<?xml version="1.0" encoding="UTF-8"?>
<svg width="120px" height="30px" viewBox="0 0 120 30" version="1.1" xmlns="http://www.w3.org/2000/svg" xmlns:xlink="http://www.w3.org/1999/xlink">
    <title>Mitsubishi Power logo</title>
    <g id="Page-1" stroke="none" stroke-width="1" fill="none" fill-rule="evenodd">
        <g id="PRIMARY-NAV:-SCROLL" transform="translate(-250.000000, -31.000000)">
            <g id="Mitsubishi-Power-logo" transform="translate(250.000000, 31.000000)">
                <path d="M113.309155,12.8571667 L108.927299,12.8571667 L108.927299,16.6209167 C108.927299,16.6738333 108.898021,16.723 108.849773,16.74175 C108.62668,16.8288333 108.288536,16.88175 107.835753,16.88175 C107.382144,16.88175 107.044412,16.8288333 106.82132,16.74175 C106.77266,16.723 106.743381,16.6738333 106.743381,16.6209167 L106.743381,7.52925 C106.743381,7.47633333 106.77266,7.42716667 106.82132,7.40841667 C107.044412,7.32133333 107.382144,7.26841667 107.835753,7.26841667 C108.288536,7.26841667 108.62668,7.32133333 108.849773,7.40841667 C108.898021,7.42716667 108.927299,7.47633333 108.927299,7.52925 L108.927299,11.1059167 L113.309155,11.1059167 L113.309155,7.52925 C113.309155,7.47633333 113.338433,7.42716667 113.38668,7.40841667 C113.609773,7.32133333 113.947918,7.26841667 114.401113,7.26841667 C114.854309,7.26841667 115.192041,7.32133333 115.415134,7.40841667 C115.463794,7.42716667 115.493072,7.47633333 115.493072,7.52925 L115.493072,16.6209167 C115.493072,16.6738333 115.463794,16.723 115.415134,16.74175 C115.192041,16.8288333 114.854309,16.88175 114.401113,16.88175 C113.947918,16.88175 113.609773,16.8288333 113.38668,16.74175 C113.338433,16.723 113.309155,16.6738333 113.309155,16.6209167 L113.309155,12.8571667 Z M86.4790515,15.1834167 C86.8720412,15.2238333 87.367299,15.2505 87.9202887,15.2505 C89.3322474,15.2505 90.1623505,14.8763333 90.1623505,14.0205 C90.1623505,13.1646667 89.3178144,12.7905 87.949567,12.7905 L86.4790515,12.7905 L86.4790515,15.1834167 Z M86.4790515,11.11925 L87.935134,11.11925 C89.0122474,11.11925 89.6526598,10.758 89.6526598,10.0096667 C89.6526598,9.19383333 88.8959588,8.84633333 87.6291546,8.84633333 C87.1631753,8.84633333 86.7846186,8.87258333 86.4790515,8.92633333 L86.4790515,11.11925 Z M90.4390515,11.868 C91.647299,12.1755 92.4188454,12.8038333 92.4188454,14.11425 C92.4188454,16.1996667 90.4390515,16.9484167 87.9202887,16.9484167 C86.7033814,16.9484167 85.3656495,16.89925 84.4233814,16.8005 C84.3578144,16.7938333 84.3099794,16.7375833 84.3099794,16.6705 L84.3099794,7.553 C84.3099794,7.48925 84.3536907,7.43466667 84.4159588,7.42383333 C85.301732,7.27258333 86.4093608,7.16175 87.5710103,7.16175 C90.0749278,7.16175 91.8798763,7.87008333 91.8798763,9.7555 C91.8798763,10.7984167 91.3120412,11.5338333 90.4390515,11.7609167 L90.4390515,11.868 Z M58.8576082,9.10008333 L56.0167835,9.10008333 C55.9615258,9.10008333 55.9132784,9.06508333 55.8947216,9.01258333 C55.8246186,8.82091667 55.7714227,8.51258333 55.7714227,8.20425 C55.7714227,7.89633333 55.8246186,7.59758333 55.8943093,7.40883333 C55.9132784,7.35675 55.9615258,7.32216667 56.0163711,7.32216667 L63.8971959,7.32216667 C63.9524536,7.32216667 64.0002887,7.35675 64.0196701,7.40883333 C64.0893608,7.59758333 64.1425567,7.89633333 64.1425567,8.20425 C64.1425567,8.51258333 64.0893608,8.82091667 64.0192577,9.01258333 C64.0002887,9.06508333 63.9524536,9.10008333 63.8967835,9.10008333 L61.0559588,9.10008333 L61.0559588,16.623 C61.0559588,16.6746667 61.0279175,16.7234167 60.9809072,16.7425833 C60.7677113,16.82925 60.4291546,16.88175 59.9644124,16.88175 C59.4980206,16.88175 59.1586392,16.8288333 58.9355464,16.74175 C58.8868866,16.723 58.8576082,16.6738333 58.8576082,16.6209167 L58.8576082,9.10008333 Z M117.699258,7.52925 C117.699258,7.47675 117.728124,7.42716667 117.776784,7.40841667 C118.002351,7.32133333 118.352041,7.26841667 118.805237,7.26841667 C119.269979,7.26841667 119.608536,7.32091667 119.821732,7.40758333 C119.869155,7.42675 119.897196,7.4755 119.897196,7.52716667 L119.897196,16.623 C119.897196,16.6746667 119.869155,16.7234167 119.821732,16.7425833 C119.608536,16.82925 119.269979,16.88175 118.805237,16.88175 C118.352041,16.88175 118.002351,16.8288333 117.776784,16.74175 C117.728124,16.723 117.699258,16.6734167 117.699258,16.6209167 L117.699258,7.52925 Z M101.136371,15.42425 C102.432041,15.42425 102.941732,14.9696667 102.941732,14.2613333 C102.941732,12.2955 98.0938969,13.35175 98.0938969,9.92925 C98.0938969,8.01716667 99.4621443,7.01466667 101.704206,7.01466667 C102.665031,7.01466667 103.484825,7.19633333 104.232454,7.58508333 C104.254722,7.59633333 104.273691,7.61341667 104.286887,7.63425 C104.559464,8.06341667 104.709567,8.69675 104.679464,9.24591667 C104.674515,9.34216667 104.576371,9.40133333 104.49101,9.35716667 C103.730598,8.96508333 102.785031,8.69925 101.864619,8.69925 C100.787093,8.69925 100.30668,9.06008333 100.30668,9.67508333 C100.30668,11.5205 105.125237,10.54425 105.125237,14.0071667 C105.125237,16.3600833 103.364,17.1359167 101.165649,17.1359167 C100.105443,17.1359167 99.1025567,16.9546667 98.3075052,16.6175833 C98.2819381,16.60675 98.2600825,16.5888333 98.2452371,16.5650833 C97.9503918,16.1000833 97.8200825,15.4034167 97.8543093,14.8596667 C97.8604948,14.7646667 97.9569897,14.7071667 98.0427629,14.7488333 C98.858433,15.1446667 100.130598,15.42425 101.136371,15.42425 L101.136371,15.42425 Z M94.0209072,7.52925 C94.0209072,7.47675 94.0501856,7.42716667 94.0988454,7.40841667 C94.324,7.32133333 94.6741031,7.26841667 95.1268866,7.26841667 C95.5920412,7.26841667 95.9305979,7.32091667 96.1437938,7.40758333 C96.1912165,7.42675 96.2192577,7.4755 96.2192577,7.52716667 L96.2192577,16.623 C96.2192577,16.6746667 96.1912165,16.7234167 96.1437938,16.7425833 C95.9305979,16.82925 95.5920412,16.88175 95.1268866,16.88175 C94.6741031,16.88175 94.324,16.8288333 94.0988454,16.74175 C94.0501856,16.723 94.0209072,16.6734167 94.0209072,16.6209167 L94.0209072,7.52925 Z M75.8934845,13.23175 C75.8934845,14.6488333 76.5334845,15.3175833 77.9899794,15.3175833 C79.5615258,15.3175833 80.1734845,14.5150833 80.1734845,13.19175 L80.1734845,7.52716667 C80.1734845,7.4755 80.2019381,7.42675 80.2489485,7.40758333 C80.4642062,7.32091667 80.8097732,7.26841667 81.2361649,7.26841667 C81.6992577,7.26841667 82.0374021,7.3205 82.2402887,7.40675 C82.2864742,7.42633333 82.3132784,7.47425 82.3132784,7.52466667 L82.3132784,13.0575833 C82.3132784,15.61175 80.9883299,17.1359167 77.8881237,17.1359167 C75.0345155,17.1359167 73.695134,15.8388333 73.695134,13.4055 L73.695134,7.52925 C73.695134,7.47675 73.7244124,7.42716667 73.7730722,7.40841667 C73.9982268,7.32133333 74.3479175,7.26841667 74.8011134,7.26841667 C75.266268,7.26841667 75.6048247,7.32091667 75.8180206,7.40758333 C75.8650309,7.42675 75.8934845,7.4755 75.8934845,7.52716667 L75.8934845,13.23175 Z M68.2481237,15.42425 C69.5437938,15.42425 70.0530722,14.9696667 70.0530722,14.2613333 C70.0530722,12.2955 65.2056495,13.35175 65.2056495,9.92925 C65.2056495,8.01716667 66.5738969,7.01466667 68.8159588,7.01466667 C69.7767835,7.01466667 70.5961649,7.19633333 71.3442062,7.58508333 C71.3660619,7.59633333 71.3850309,7.61341667 71.3986392,7.63425 C71.6708041,8.06341667 71.8209072,8.69675 71.7908041,9.24591667 C71.7858557,9.34216667 71.6877113,9.40133333 71.6027629,9.35716667 C70.8427629,8.96508333 69.8967835,8.69925 68.9759588,8.69925 C67.8988454,8.69925 67.418433,9.06008333 67.418433,9.67508333 C67.418433,11.5205 72.2369897,10.54425 72.2369897,14.0071667 C72.2369897,16.3600833 70.4753402,17.1359167 68.2774021,17.1359167 C67.2176082,17.1359167 66.2138969,16.9546667 65.4192577,16.6175833 C65.3936907,16.60675 65.3718351,16.5888333 65.3565773,16.5650833 C65.0621443,16.1000833 64.9322474,15.4034167 64.9664742,14.8596667 C64.9722474,14.7646667 65.0691546,14.7071667 65.1541031,14.7488333 C65.9697732,15.1446667 67.2423505,15.42425 68.2481237,15.42425 L68.2481237,15.42425 Z M51.9920412,7.52925 C51.9920412,7.47675 52.0213196,7.42716667 52.0699794,7.40841667 C52.2955464,7.32133333 52.6452371,7.26841667 53.098433,7.26841667 C53.5631753,7.26841667 53.9021443,7.32091667 54.1149278,7.40758333 C54.1623505,7.42675 54.1903918,7.4755 54.1903918,7.52716667 L54.1903918,16.623 C54.1903918,16.6746667 54.1623505,16.7234167 54.1149278,16.7425833 C53.9021443,16.82925 53.5631753,16.88175 53.098433,16.88175 C52.6452371,16.88175 52.2955464,16.8288333 52.0699794,16.74175 C52.0213196,16.723 51.9920412,16.6734167 51.9920412,16.6209167 L51.9920412,7.52925 Z M40.3264742,8.88633333 L40.2679175,8.88633333 L40.2679175,16.64925 C40.2679175,16.7013333 40.2394639,16.7505 40.1912165,16.7696667 C39.9870928,16.8505 39.6893608,16.88175 39.2782268,16.88175 C38.8922474,16.88175 38.5858557,16.8500833 38.3792577,16.76925 C38.3314227,16.7505 38.3025567,16.7013333 38.3025567,16.64925 L38.3025567,7.52175 C38.3025567,7.45966667 38.3437938,7.4055 38.4035876,7.39383333 C38.8130722,7.31383333 39.4823505,7.26841667 40.1248247,7.26841667 C40.8081237,7.26841667 41.3248247,7.3155 41.698433,7.39883333 C41.7437938,7.40883333 41.778433,7.44341667 41.7920412,7.488 L44.0848247,14.9696667 L44.1425567,14.9696667 L46.3194639,7.48966667 C46.3326598,7.44383333 46.3677113,7.40883333 46.4134845,7.39841667 C46.7875052,7.3155 47.3037938,7.26841667 47.986268,7.26841667 C48.6279175,7.26841667 49.2431753,7.31383333 49.6435876,7.39383333 C49.7037938,7.4055 49.7442062,7.45966667 49.7442062,7.52175 L49.7442062,16.6496667 C49.7442062,16.7013333 49.7157526,16.7505 49.6683299,16.7696667 C49.4666804,16.8505 49.1800825,16.88175 48.7689485,16.88175 C48.3833814,16.88175 48.0654433,16.8500833 47.8559588,16.76925 C47.8077113,16.7505 47.7792577,16.7009167 47.7792577,16.6488333 L47.7792577,8.88633333 L47.720701,8.88633333 L45.1231753,16.7155 C45.1108041,16.753 45.084,16.7838333 45.0468866,16.7971667 C44.8287423,16.8746667 44.5079175,16.9084167 44.040701,16.9084167 C43.6266804,16.9084167 43.2856495,16.8746667 43.0637938,16.79675 C43.026268,16.7834167 42.9998763,16.753 42.9870928,16.7155 L40.3264742,8.88633333 Z" id="Fill-1" fill="#000000"></path>
                <path d="M89.7895258,28.9507083 L87.5767423,25.5869583 C88.6377732,25.0507083 89.1598351,24.1177917 89.1598351,22.742375 C89.1598351,20.1544583 87.0633402,19.5927917 84.5854021,19.5927917 C83.6122062,19.5927917 82.2336495,19.6782083 81.5404536,19.826125 C81.4868454,19.837375 81.4373608,19.8952917 81.4373608,19.9544583 L81.4373608,29.0807083 C81.4373608,29.132375 81.4654021,29.1802917 81.5124124,29.199875 C81.737567,29.2882083 82.0872577,29.3419583 82.5437526,29.3419583 C83.0113814,29.3419583 83.3503505,29.288625 83.563134,29.201125 C83.6089072,29.181125 83.6357113,29.133625 83.6357113,29.0827917 L83.6357113,26.118625 C84.2909691,26.1552917 84.8868454,26.153625 85.4237526,26.112375 L87.4278763,29.2115417 C87.4435464,29.2340417 87.4670515,29.251125 87.494268,29.258625 C87.7973608,29.336125 88.1998351,29.362375 88.7759175,29.3215417 C89.1961237,29.2919583 89.5256082,29.2315417 89.7416907,29.1482083 C89.8155052,29.1190417 89.8418969,29.029875 89.7895258,28.9507083 L89.7895258,28.9507083 Z M83.6212784,24.3327917 L83.6212784,21.4402917 C83.9412784,21.3865417 84.2695258,21.359875 84.6192165,21.359875 C86.0188041,21.359875 86.9322062,21.588625 86.9322062,22.8282083 C86.9322062,24.2132083 85.7684948,24.5232083 83.6212784,24.3327917 L83.6212784,24.3327917 Z M40.4860206,24.6340425 C42.3713814,24.6340425 43.8493196,24.642375 43.8493196,22.957375 C43.8493196,21.7177917 42.8839588,21.359875 41.4839588,21.359875 C41.1350928,21.359875 40.806433,21.3865417 40.4860206,21.4402917 L40.4860206,24.6340425 Z M38.3029278,19.9544583 C38.3029278,19.8919583 38.3445773,19.8377917 38.4056082,19.826125 C39.1779794,19.6782083 40.4196289,19.5927917 41.4501443,19.5927917 C43.9280825,19.5927917 46.0765361,20.1919583 46.0765361,22.866125 C46.0765361,25.7065417 44.1713814,26.4082083 40.500866,26.4082083 L40.500866,29.0827917 C40.500866,29.1344583 40.4728247,29.183625 40.4254021,29.2027917 C40.2122062,29.2894583 39.8736495,29.3419583 39.4089072,29.3419583 C38.9557113,29.3419583 38.6060206,29.2890417 38.3804536,29.2019583 C38.3317938,29.1832083 38.3029278,29.133625 38.3029278,29.0807083 L38.3029278,19.9544583 Z M79.6006598,27.563625 C79.6555052,27.563625 79.7037526,27.5982083 79.723134,27.6502917 C79.7882887,27.828625 79.8303505,28.1144583 79.8303505,28.4194583 C79.8303505,28.7244583 79.7882887,29.0202917 79.7227216,29.201125 C79.7037526,29.253625 79.6555052,29.288625 79.6002474,29.288625 L72.8402474,29.288625 C72.7693196,29.288625 72.7111753,29.229875 72.7111753,29.1577917 L72.7111753,19.9127917 C72.7111753,19.8407083 72.7693196,19.782375 72.8402474,19.782375 L79.4843711,19.782375 C79.5392165,19.782375 79.5874639,19.8165417 79.6068454,19.8690417 C79.672,20.0469583 79.7136495,20.3327917 79.7136495,20.6377917 C79.7136495,20.9427917 79.672,21.228625 79.606433,21.4069583 C79.5874639,21.4590417 79.5392165,21.493625 79.4843711,21.493625 L74.8802474,21.4944583 L74.8802474,23.6469583 L79.1194227,23.646125 C79.1709691,23.646125 79.2196289,23.6757083 79.2377732,23.7244583 C79.3062268,23.9044583 79.3499381,24.1765417 79.3499381,24.488625 C79.3499381,24.7890417 79.3062268,25.069875 79.2377732,25.2527917 C79.2196289,25.301125 79.1705567,25.3307083 79.1190103,25.3307083 L74.8802474,25.3315417 L74.8802474,27.564875 L79.6006598,27.563625 Z M64.3124124,21.506125 L62.5709691,29.153625 C62.5598351,29.2032083 62.523134,29.242375 62.4740619,29.252375 C62.1379794,29.3227917 61.6443711,29.368625 61.0381856,29.368625 C60.4324124,29.368625 59.9507629,29.3227917 59.6167423,29.252375 C59.5680825,29.2419583 59.5313814,29.203625 59.5202474,29.1544583 L57.3783918,20.0157083 C57.3635464,19.952375 57.3961237,19.888625 57.4555052,19.8632083 C57.6583918,19.776125 57.9800412,19.728625 58.4468454,19.728625 C58.8909691,19.728625 59.2732371,19.7744583 59.5124124,19.8869583 C59.548701,19.9040417 59.5730309,19.9390417 59.580866,19.978625 L61.1412784,27.539875 L61.1998351,27.539875 L62.8555052,19.914875 C62.8658144,19.8665417 62.900866,19.827375 62.948701,19.8157083 C63.2847835,19.7344583 63.7792165,19.688625 64.3866392,19.688625 C64.9672577,19.688625 65.4724124,19.7344583 65.8101443,19.816125 C65.8579794,19.827375 65.8930309,19.8665417 65.9033402,19.9152917 L67.5454021,27.539875 L67.603134,27.539875 L69.1915876,19.954875 C69.2002474,19.913625 69.2262268,19.877375 69.2649897,19.8615417 C69.4802474,19.7732083 69.8439588,19.728625 70.2682887,19.728625 C70.7169485,19.728625 71.0146804,19.766125 71.2105567,19.839875 C71.2724124,19.863625 71.3070515,19.9294583 71.2913814,19.9940417 L69.1082887,29.154875 C69.0963299,29.203625 69.0596289,29.2419583 69.0109691,29.252375 C68.6773608,29.3227917 68.1957113,29.368625 67.5895258,29.368625 C66.9705567,29.368625 66.4761237,29.3232083 66.1400412,29.2527917 C66.0905567,29.242375 66.0534433,29.2027917 66.0427216,29.1527917 L64.3705567,21.506125 L64.3124124,21.506125 Z M51.9054021,27.831125 C53.6373608,27.831125 54.5548866,26.6144583 54.5548866,24.4352917 C54.5548866,22.4294583 53.5066392,21.226125 51.9054021,21.226125 C50.1726186,21.226125 49.2410722,22.4027917 49.2410722,24.4352917 C49.2410722,26.6144583 50.2163299,27.831125 51.9054021,27.831125 L51.9054021,27.831125 Z M56.8254021,24.4352917 C56.8254021,27.7907083 54.8893196,29.5957083 51.9054021,29.5957083 C48.7317938,29.5957083 46.9701443,27.8977917 46.9701443,24.4352917 C46.9701443,21.319875 49.0373608,19.4744583 51.9054021,19.4744583 C54.8460206,19.4744583 56.8254021,21.186125 56.8254021,24.4352917 L56.8254021,24.4352917 Z" id="Fill-3" fill="#000000"></path>
                <polygon id="Fill-5" fill="#E31F26" points="11.1571134 9.762875 16.7352577 19.5257917 22.3138144 9.762875 16.7352577 -4.16666667e-05"></polygon>
                <polygon id="Fill-7" fill="#E31F26" points="11.1571134 29.2884583 16.7352577 19.5255417 5.5785567 19.5255417 0 29.2884583"></polygon>
                <polygon id="Fill-9" fill="#E31F26" points="27.8923711 19.5256667 16.7352577 19.5256667 22.3138144 29.2885833 33.4705155 29.2885833"></polygon>
            </g>
        </g>
    </g>
</svg>