<?xml version="1.0" encoding="UTF-8"?>
<svg width="120px" height="30px" viewBox="0 0 120 30" version="1.1" xmlns="http://www.w3.org/2000/svg" xmlns:xlink="http://www.w3.org/1999/xlink">
    <title>Mitsubishi Power logo</title>
    <defs>
        <polygon id="path-1" points="0.0222857143 0.398392857 10.7890714 0.398392857 10.7890714 19.6456554 0.0222857143 19.6456554"></polygon>
    </defs>
    <g id="Page-1" stroke="none" stroke-width="1" fill="none" fill-rule="evenodd">
        <g id="HOMEPAGE" transform="translate(-250.000000, -31.000000)">
            <g id="Header" transform="translate(0.000000, 31.000000)">
                <g id="Mitsubishi-Power-logo" transform="translate(250.000000, 0.000000)">
                    <path d="M113.425367,12.79458 L109.05243,12.79458 L109.05243,16.6194887 C109.05243,16.6732652 109.023211,16.7228074 108.975062,16.7422855 C108.752423,16.8307839 108.414967,16.8845604 107.963105,16.8845604 C107.51042,16.8845604 107.173375,16.8307839 106.950737,16.7422855 C106.902176,16.7228074 106.872957,16.6732652 106.872957,16.6194887 L106.872957,7.38008786 C106.872957,7.32631133 106.902176,7.27634574 106.950737,7.25729106 C107.173375,7.16879267 107.51042,7.11501614 107.963105,7.11501614 C108.414967,7.11501614 108.752423,7.16879267 108.975062,7.25729106 C109.023211,7.27634574 109.05243,7.32631133 109.05243,7.38008786 L109.05243,11.0148732 L113.425367,11.0148732 L113.425367,7.38008786 C113.425367,7.32631133 113.454586,7.27634574 113.502735,7.25729106 C113.725374,7.16879267 114.06283,7.11501614 114.515104,7.11501614 C114.967377,7.11501614 115.304422,7.16879267 115.52706,7.25729106 C115.575621,7.27634574 115.60484,7.32631133 115.60484,7.38008786 L115.60484,16.6194887 C115.60484,16.6732652 115.575621,16.7228074 115.52706,16.7422855 C115.304422,16.8307839 114.967377,16.8845604 114.515104,16.8845604 C114.06283,16.8845604 113.725374,16.8307839 113.502735,16.7422855 C113.454586,16.7228074 113.425367,16.6732652 113.425367,16.6194887 L113.425367,12.79458 Z M86.6498709,15.1586302 C87.0420607,15.1997036 87.5363105,15.2268036 88.0881747,15.2268036 C89.4972597,15.2268036 90.3256733,14.8465569 90.3256733,13.9768168 C90.3256733,13.1070767 89.4828561,12.72683 88.1173934,12.72683 L86.6498709,12.72683 L86.6498709,15.1586302 Z M86.6498709,11.0284232 L88.1029898,11.0284232 C89.177911,11.0284232 89.8170199,10.6613031 89.8170199,9.90080982 C89.8170199,9.07171968 89.061859,8.71857302 87.7976332,8.71857302 C87.3326022,8.71857302 86.954816,8.74524956 86.6498709,8.79944953 L86.6498709,11.0284232 Z M90.6018112,11.78934 C91.8075995,12.1018367 92.5775756,12.74038 92.5775756,14.0720902 C92.5775756,16.1909702 90.6018112,16.9518869 88.0881747,16.9518869 C86.8737442,16.9518869 85.5387349,16.9023448 84.5983846,16.8019902 C84.5329511,16.7952152 84.4852134,16.7380511 84.4852134,16.6694543 L84.4852134,7.40422379 C84.4852134,7.33943789 84.5288357,7.28354417 84.5909771,7.27295824 C85.4749475,7.11925052 86.580322,7.00661621 87.7396072,7.00661621 C90.2384286,7.00661621 92.0397034,7.72645954 92.0397034,9.6425131 C92.0397034,10.7023765 91.4730241,11.4497433 90.6018112,11.6805166 L90.6018112,11.78934 Z M59.0846449,8.97602287 L56.249602,8.97602287 C56.1944567,8.97602287 56.1463075,8.94045414 56.1277886,8.88710104 C56.0578282,8.69231991 56.0047406,8.37939978 56.0047406,8.06605621 C56.0047406,7.75313608 56.0578282,7.44953157 56.127377,7.2577145 C56.1463075,7.20478484 56.1944567,7.16963955 56.2491905,7.16963955 L64.1139755,7.16963955 C64.1691208,7.16963955 64.2168585,7.20478484 64.2362005,7.2577145 C64.3057494,7.44953157 64.358837,7.75313608 64.358837,8.06605621 C64.358837,8.37939978 64.3057494,8.69231991 64.235789,8.88710104 C64.2168585,8.94045414 64.1691208,8.97602287 64.113564,8.97602287 L61.2785211,8.97602287 L61.2785211,16.6216059 C61.2785211,16.6741121 61.250537,16.7236543 61.2036223,16.7431324 C60.9908604,16.8312073 60.6529927,16.8845604 60.1891964,16.8845604 C59.7237538,16.8845604 59.3850631,16.8307839 59.1624244,16.7422855 C59.1138636,16.7228074 59.0846449,16.6732652 59.0846449,16.6194887 L59.0846449,8.97602287 Z M117.806535,7.38008786 C117.806535,7.32673477 117.835342,7.27634574 117.883903,7.25729106 C118.109011,7.16879267 118.45799,7.11501614 118.910264,7.11501614 C119.37406,7.11501614 119.711928,7.16836924 119.92469,7.25644419 C119.972016,7.2759223 120,7.32546446 120,7.37797068 L120,16.6216059 C120,16.6741121 119.972016,16.7236543 119.92469,16.7431324 C119.711928,16.8312073 119.37406,16.8845604 118.910264,16.8845604 C118.45799,16.8845604 118.109011,16.8307839 117.883903,16.7422855 C117.835342,16.7228074 117.806535,16.6728418 117.806535,16.6194887 L117.806535,7.38008786 Z M101.277359,15.4033769 C102.570392,15.4033769 103.079045,14.9409834 103.079045,14.2215635 C103.079045,12.2233632 98.2410768,13.2972 98.2410768,9.81908643 C98.2410768,7.87593289 99.6065395,6.85714286 101.844038,6.85714286 C102.802907,6.85714286 103.621033,7.0417615 104.36714,7.43682845 C104.389363,7.44826126 104.408293,7.46562219 104.421462,7.48679405 C104.693485,7.92293442 104.843282,8.56655904 104.81324,9.12464934 C104.808302,9.22203991 104.710357,9.28259144 104.62517,9.23770709 C103.866306,8.83925263 102.922663,8.56909967 102.004124,8.56909967 C100.928791,8.56909967 100.449357,8.93579633 100.449357,9.56078971 C100.449357,11.4361933 105.258106,10.4440798 105.258106,13.9632668 C105.258106,16.354417 103.500454,17.1428571 101.306578,17.1428571 C100.248529,17.1428571 99.2476837,16.9586619 98.4542503,16.6156778 C98.4287353,16.6050918 98.4069241,16.586884 98.392109,16.5623247 C98.0978637,16.0901921 97.9678197,15.3817816 98.0019768,14.8296194 C98.0081498,14.7330757 98.1044482,14.674218 98.1900468,14.7169851 C99.0040568,15.1192505 100.273633,15.4033769 101.277359,15.4033769 L101.277359,15.4033769 Z M94.1763768,7.38008786 C94.1763768,7.32673477 94.2055955,7.27634574 94.2541563,7.25729106 C94.4788527,7.16879267 94.8282432,7.11501614 95.2801052,7.11501614 C95.7443131,7.11501614 96.0821807,7.16836924 96.2949427,7.25644419 C96.3422689,7.2759223 96.370253,7.32546446 96.370253,7.37797068 L96.370253,16.6216059 C96.370253,16.6741121 96.3422689,16.7236543 96.2949427,16.7431324 C96.0821807,16.8312073 95.7443131,16.8845604 95.2801052,16.8845604 C94.8282432,16.8845604 94.4788527,16.8307839 94.2541563,16.7422855 C94.2055955,16.7228074 94.1763768,16.6728418 94.1763768,16.6194887 L94.1763768,7.38008786 Z M76.0858484,13.1748267 C76.0858484,14.6153602 76.7245459,15.294977 78.1780763,15.294977 C79.7464242,15.294977 80.3571374,14.4794368 80.3571374,13.1346001 L80.3571374,7.37797068 C80.3571374,7.32546446 80.3855331,7.2759223 80.4324478,7.25644419 C80.6472674,7.16836924 80.9921311,7.11501614 81.417655,7.11501614 C81.8798053,7.11501614 82.2172614,7.1679458 82.419735,7.25559731 C82.4658266,7.27549886 82.4925762,7.32419415 82.4925762,7.37543005 L82.4925762,12.9978299 C82.4925762,15.5935002 81.1703244,17.1428571 78.076428,17.1428571 C75.2286276,17.1428571 73.8919722,15.824697 73.8919722,13.3514 L73.8919722,7.38008786 C73.8919722,7.32673477 73.9211909,7.27634574 73.9697517,7.25729106 C74.1944481,7.16879267 74.5434271,7.11501614 74.9957006,7.11501614 C75.4599085,7.11501614 75.7977761,7.16836924 76.0105381,7.25644419 C76.0574527,7.2759223 76.0858484,7.32546446 76.0858484,7.37797068 L76.0858484,13.1748267 Z M68.456048,15.4033769 C69.7490811,15.4033769 70.2573229,14.9409834 70.2573229,14.2215635 C70.2573229,12.2233632 65.4197661,13.2972 65.4197661,9.81908643 C65.4197661,7.87593289 66.7852288,6.85714286 69.0227274,6.85714286 C69.9815966,6.85714286 70.7993104,7.0417615 71.5458291,7.43682845 C71.5676403,7.44826126 71.5865708,7.46562219 71.6001513,7.48679405 C71.8717623,7.92293442 72.0215599,8.56655904 71.9915181,9.12464934 C71.9865797,9.22203991 71.8886352,9.28259144 71.8038596,9.23770709 C71.0454064,8.83925263 70.1013524,8.56909967 69.1824017,8.56909967 C68.1074806,8.56909967 67.628046,8.93579633 67.628046,9.56078971 C67.628046,11.4361933 72.4367956,10.4440798 72.4367956,13.9632668 C72.4367956,16.354417 70.6787315,17.1428571 68.4852668,17.1428571 C67.42763,17.1428571 66.4259615,16.9586619 65.6329396,16.6156778 C65.6074246,16.6050918 65.5856134,16.586884 65.5703867,16.5623247 C65.276553,16.0901921 65.1469205,15.3817816 65.1810776,14.8296194 C65.1868391,14.7330757 65.2835491,14.674218 65.3683246,14.7169851 C66.1823346,15.1192505 67.4523219,15.4033769 68.456048,15.4033769 L68.456048,15.4033769 Z M52.2330512,7.38008786 C52.2330512,7.32673477 52.26227,7.27634574 52.3108307,7.25729106 C52.5359386,7.16879267 52.8849176,7.11501614 53.3371911,7.11501614 C53.8009875,7.11501614 54.1392667,7.16836924 54.3516171,7.25644419 C54.3989433,7.2759223 54.4269275,7.32546446 54.4269275,7.37797068 L54.4269275,16.6216059 C54.4269275,16.6741121 54.3989433,16.7236543 54.3516171,16.7431324 C54.1392667,16.8312073 53.8009875,16.8845604 53.3371911,16.8845604 C52.8849176,16.8845604 52.5359386,16.8307839 52.3108307,16.7422855 C52.26227,16.7228074 52.2330512,16.6728418 52.2330512,16.6194887 L52.2330512,7.38008786 Z M40.5912269,8.75922299 L40.5327893,8.75922299 L40.5327893,16.6482824 C40.5327893,16.7012121 40.5043936,16.7511777 40.4562444,16.7706558 C40.2525362,16.8528026 39.9554102,16.8845604 39.5451129,16.8845604 C39.1599191,16.8845604 38.8541509,16.8523792 38.6479735,16.7702324 C38.6002358,16.7511777 38.5714286,16.7012121 38.5714286,16.6482824 L38.5714286,7.37204256 C38.5714286,7.30937384 38.6125818,7.254327 38.6722539,7.24247076 C39.080905,7.1611708 39.7488212,7.11501614 40.3899878,7.11501614 C41.0718961,7.11501614 41.5875455,7.16286455 41.9603933,7.24712857 C42.0056618,7.2577145 42.0402305,7.29285979 42.053811,7.33816758 L44.3419281,14.9409834 L44.3995425,14.9409834 L46.5720192,7.33986132 C46.5851882,7.29328323 46.6201684,7.2577145 46.6658484,7.24670513 C47.0391078,7.16286455 47.5543457,7.11501614 48.2354309,7.11501614 C48.8757744,7.11501614 49.4897799,7.1611708 49.8893774,7.24247076 C49.949461,7.254327 49.9897911,7.30937384 49.9897911,7.37204256 L49.9897911,16.6487059 C49.9897911,16.7012121 49.9613954,16.7511777 49.9140693,16.7706558 C49.7128302,16.8528026 49.4268156,16.8845604 49.0165183,16.8845604 C48.631736,16.8845604 48.314445,16.8523792 48.1053868,16.7702324 C48.0572376,16.7511777 48.0288419,16.7007887 48.0288419,16.647859 L48.0288419,8.75922299 L47.9704044,8.75922299 L45.3781653,16.715609 C45.3658193,16.7537183 45.3390698,16.7850527 45.3020319,16.7986027 C45.0843315,16.877362 44.7641598,16.9116604 44.2978942,16.9116604 C43.8847162,16.9116604 43.5443794,16.877362 43.3229752,16.7981792 C43.2855258,16.7846292 43.2591878,16.7537183 43.2464303,16.715609 L40.5912269,8.75922299 Z" id="Fill-1" fill="#FFFFFF"></path>
                    <path d="M89.9726446,29.3445191 L87.7635306,25.9265336 C88.822802,25.3815699 89.3439981,24.4330704 89.3439981,23.0357275 C89.3439981,20.4057587 87.2509799,19.8345419 84.777151,19.8345419 C83.805569,19.8345419 82.4292984,19.9213465 81.7372521,20.0720902 C81.6837328,20.0830996 81.6343303,20.1423808 81.6343303,20.2020854 L81.6343303,29.4766316 C81.6343303,29.5295612 81.662325,29.5782565 81.7092574,29.598158 C81.9340386,29.6879267 82.2831495,29.7421267 82.7388873,29.7421267 C83.2057407,29.7421267 83.5441476,29.6883502 83.7565782,29.5994284 C83.8022755,29.5791034 83.8290352,29.5304081 83.8290352,29.4787487 L83.8290352,26.4664161 C84.4832063,26.5036786 85.0780944,26.5019849 85.6141113,26.4600646 L87.6149115,29.6095909 C87.6305556,29.6328799 87.6540218,29.6502408 87.6811931,29.6574393 C87.9837833,29.736622 88.3855901,29.7628751 88.9607172,29.7218017 C89.3802266,29.6913142 89.7091647,29.6299158 89.9248888,29.5456518 C89.9985809,29.5155878 90.0249289,29.4249722 89.9726446,29.3445191 L89.9726446,29.3445191 Z M83.8146262,24.6515641 L83.8146262,21.7124861 C84.1340955,21.6578627 84.4617986,21.6303393 84.8109094,21.6303393 C86.208176,21.6303393 87.1200634,21.8628063 87.1200634,23.1229556 C87.1200634,24.5300376 85.9582818,24.8450749 83.8146262,24.6515641 L83.8146262,24.6515641 Z M40.7509011,24.9581333 C42.6331353,24.9581333 44.1086226,24.9661779 44.1086226,23.2537977 C44.1086226,21.9944953 43.1448626,21.6303393 41.7471843,21.6303393 C41.3988968,21.6303393 41.0707821,21.6578627 40.7509011,21.7124861 L40.7509011,24.9581333 Z M38.5714286,20.2020854 C38.5714286,20.1389933 38.613009,20.083523 38.6739387,20.0720902 C39.445029,19.9213465 40.6846194,19.8345419 41.7134259,19.8345419 C44.1872548,19.8345419 46.3321456,20.4434447 46.3321456,23.1610649 C46.3321456,26.0476367 44.4301503,26.760705 40.7657218,26.760705 L40.7657218,29.4787487 C40.7657218,29.531255 40.7377271,29.581644 40.690383,29.6006987 C40.4775407,29.6887736 40.1395454,29.7421267 39.6755739,29.7421267 C39.2231295,29.7421267 38.8740187,29.6883502 38.6488258,29.6002752 C38.6002467,29.5812206 38.5714286,29.5304081 38.5714286,29.4766316 L38.5714286,20.2020854 Z M79.8006751,27.9348965 C79.8554295,27.9348965 79.9035969,27.9700418 79.9229462,28.0229715 C79.9879928,28.2046261 80.0299849,28.4946806 80.0299849,28.8050601 C80.0299849,29.1145927 79.9879928,29.4152332 79.9225346,29.5994284 C79.9035969,29.6527815 79.8554295,29.6883502 79.8002634,29.6883502 L73.0514738,29.6883502 C72.9806636,29.6883502 72.9226157,29.6282221 72.9226157,29.5549674 L72.9226157,20.1601651 C72.9226157,20.0869105 72.9806636,20.0272058 73.0514738,20.0272058 L79.6845793,20.0272058 C79.7393337,20.0272058 79.7875011,20.0619277 79.8068504,20.1152808 C79.871897,20.2960885 79.9134774,20.5865665 79.9134774,20.8965225 C79.9134774,21.2064786 79.871897,21.49738 79.8064387,21.6786111 C79.7875011,21.7315408 79.7393337,21.7666861 79.6845793,21.7666861 L75.0880908,21.7671095 L75.0880908,23.9545864 L79.3202361,23.9541629 C79.371697,23.9541629 79.4202761,23.9838035 79.4383903,24.0333457 C79.5067304,24.216694 79.5503693,24.4927751 79.5503693,24.8099296 C79.5503693,25.1156513 79.5067304,25.401048 79.4383903,25.5865135 C79.4202761,25.6356322 79.3712853,25.6656963 79.3198244,25.6656963 L75.0880908,25.6665432 L75.0880908,27.9361668 L79.8006751,27.9348965 Z M64.5377807,21.7793892 L62.7992253,29.5507331 C62.7881097,29.6011221 62.7514696,29.6409252 62.7024788,29.6515111 C62.3669537,29.723072 61.874164,29.7692267 61.2689837,29.7692267 C60.664215,29.7692267 60.1833643,29.723072 59.8498976,29.6515111 C59.8013185,29.6405018 59.7646783,29.6015455 59.7535628,29.55158 L57.615259,20.2647541 C57.6004383,20.1999682 57.6329616,20.1351823 57.6922445,20.1093527 C57.8947947,20.0208543 58.2159108,19.9725824 58.6819408,19.9725824 C59.125328,19.9725824 59.5069621,20.019584 59.7457407,20.1334886 C59.7819692,20.1508495 59.8062587,20.1864183 59.8140808,20.2270682 L61.3719055,27.9107606 L61.4303651,27.9107606 L63.0832895,20.1618589 C63.0935817,20.1127402 63.1285751,20.0729371 63.1763309,20.0610808 C63.511856,19.9785106 64.0054691,19.9319325 64.6118844,19.9319325 C65.1915401,19.9319325 65.695857,19.9785106 66.0330289,20.0615043 C66.0807847,20.0729371 66.1157781,20.1127402 66.1260703,20.1622823 L67.765409,27.9107606 L67.8230452,27.9107606 L69.4088647,20.2025089 C69.4175101,20.161012 69.4434464,20.124173 69.482145,20.1080824 C69.6970458,20.0183137 70.060154,19.9725824 70.4837802,19.9725824 C70.9316959,19.9725824 71.2289342,20.0106918 71.4244856,20.0860636 C71.4862387,20.1097761 71.5208204,20.1771026 71.5051763,20.242312 L69.3257038,29.5520034 C69.3137649,29.6015455 69.2771247,29.6405018 69.2285456,29.6515111 C68.8954906,29.723072 68.4146399,29.7692267 67.8094596,29.7692267 C67.191517,29.7692267 66.6979039,29.7234955 66.3623788,29.6519346 C66.3129763,29.6409252 66.2759244,29.6006987 66.2652206,29.5498862 L64.5958286,21.7793892 L64.5377807,21.7793892 Z M52.1513454,28.2067432 C53.880432,28.2067432 54.7964362,26.9707299 54.7964362,24.7557296 C54.7964362,22.7177261 53.7499271,21.4944159 52.1513454,21.4944159 C50.4214354,21.4944159 49.4914338,22.6902027 49.4914338,24.7557296 C49.4914338,26.9707299 50.4650742,28.2067432 52.1513454,28.2067432 L52.1513454,28.2067432 Z M57.0631864,24.7557296 C57.0631864,28.1656698 55.1303146,30 52.1513454,30 C48.983,30 47.2242719,28.2749166 47.2242719,24.7557296 C47.2242719,21.5901127 49.2880603,19.7142857 52.1513454,19.7142857 C55.0870874,19.7142857 57.0631864,21.4537659 57.0631864,24.7557296 L57.0631864,24.7557296 Z" id="Fill-3" fill="#FFFFFF"></path>
                    <g id="Group-7" transform="translate(11.142857, 0.000000)">
                        <mask id="mask-2" fill="white">
                            <use xlink:href="#path-1"></use>
                        </mask>
                        <g id="Clip-6"></g>
                        <polygon id="Fill-5" fill="#E31F26" mask="url(#mask-2)" points="0.0222857143 10.0217982 5.40547959 19.6456554 10.7890714 10.0217982 5.40547959 0.398351786"></polygon>
                    </g>
                    <polygon id="Fill-8" fill="#E31F26" points="11.428853 29.1428571 17.1428571 19.7142857 5.71442652 19.7142857 0 29.1428571"></polygon>
                    <polygon id="Fill-10" fill="#E31F26" points="27.7145673 19.7142857 16.2857143 19.7142857 22.0001408 29.1428571 33.4285714 29.1428571"></polygon>
                </g>
            </g>
        </g>
    </g>
</svg>