<?xml version="1.0" encoding="UTF-8"?>
<svg width="100px" height="101px" viewBox="0 0 100 101" version="1.1" xmlns="http://www.w3.org/2000/svg" xmlns:xlink="http://www.w3.org/1999/xlink">
    <title>Group 5</title>
    <defs>
        <polygon id="path-1" points="0 0.0151785714 99.6275714 0.0151785714 99.6275714 99.6428571 0 99.6428571"></polygon>
    </defs>
    <g id="Page-1" stroke="none" stroke-width="1" fill="none" fill-rule="evenodd" opacity="0.8">
        <g id="RESOURCE-CENTER" transform="translate(-510.000000, -1060.000000)">
            <g id="Group-21" transform="translate(250.000000, 800.000000)">
                <g id="Group-5" transform="translate(260.000000, 260.000000)">
                    <polygon id="Fill-1" fill="#FFFFFF" points="38.7370714 69.9675 67.8377857 49.9925 38.7370714 30.0173214"></polygon>
                    <g id="Group-4" transform="translate(0.000000, 0.163393)">
                        <mask id="mask-2" fill="white">
                            <use xlink:href="#path-1"></use>
                        </mask>
                        <g id="Clip-3"></g>
                        <path d="M49.8138214,95.4067857 C24.6822143,95.4067857 4.23614286,74.9607143 4.23614286,49.8291071 C4.23614286,24.6973214 24.6822143,4.25142857 49.8138214,4.25142857 C74.9454286,4.25142857 95.3915,24.6973214 95.3915,49.8291071 C95.3915,74.9607143 74.9454286,95.4067857 49.8138214,95.4067857 M85.0373929,14.6053571 C75.6288214,5.19678571 63.1197143,0.0151785714 49.8138214,0.0151785714 C36.5081071,0.0151785714 23.9986429,5.19678571 14.5900714,14.6053571 C5.1815,24.0139286 -0.000107142857,36.5232143 -0.000107142857,49.8291071 C-0.000107142857,63.1348214 5.1815,75.6441071 14.5900714,85.0526786 C23.9986429,94.4614286 36.5081071,99.6428571 49.8138214,99.6428571 C63.1197143,99.6428571 75.6288214,94.4614286 85.0373929,85.0526786 C94.4461429,75.6441071 99.6275714,63.1348214 99.6275714,49.8291071 C99.6275714,36.5232143 94.4461429,24.0139286 85.0373929,14.6053571" id="Fill-2" fill="#FFFFFF" mask="url(#mask-2)"></path>
                    </g>
                </g>
            </g>
        </g>
    </g>
</svg>