<?xml version="1.0" encoding="UTF-8"?>
<svg width="171px" height="144px" viewBox="0 0 171 144" version="1.1" xmlns="http://www.w3.org/2000/svg" xmlns:xlink="http://www.w3.org/1999/xlink">
    <!-- Generator: Sketch 59.1 (86144) - https://sketch.com -->
    <title>01</title>
    <desc>Created with Sketch.</desc>
    <g id="Page-1" stroke="none" stroke-width="1" fill="none" fill-rule="evenodd">
        <g id="01" transform="translate(-53.000000, -45.000000)">
            <path d="M99.5209098,57.8557232 C128.52091,57.8557232 131.52091,93.8557232 131.52091,117.055723 L131.517126,118.462693 C131.39051,141.681323 127.94091,176.255723 99.5209098,176.255723 C70.5209098,176.255723 67.5209098,140.255723 67.5209098,117.055723 L67.5246938,115.648754 C67.6513098,92.4301232 71.1009098,57.8557232 99.5209098,57.8557232 Z M99.5209098,45.8557232 C62.3209098,45.8557232 53.7209098,84.4557232 53.7209098,117.055723 C53.7209098,146.255723 59.7209098,188.255723 99.5209098,188.255723 C139.32091,188.255723 145.32091,146.255723 145.32091,117.055723 C145.32091,84.4557232 136.72091,45.8557232 99.5209098,45.8557232 Z M179.72091,73.6557232 L211.32091,47.2557232 L223.72091,47.2557232 L223.72091,186.855723 L209.92091,186.855723 L209.92091,62.8557232 L187.32091,82.6557232 L179.72091,73.6557232 Z" fill-opacity="0.706402972" fill="#BBBCBC" fill-rule="nonzero"></path>
            <line x1="104.454894" y1="94.1289062" x2="155.12091" y2="94.1289062" id="Path-Copy-2" stroke="#D6001C" stroke-width="3"></line>
        </g>
    </g>
</svg>