<?xml version="1.0" encoding="UTF-8"?>
<svg width="215px" height="144px" viewBox="0 0 215 144" version="1.1" xmlns="http://www.w3.org/2000/svg" xmlns:xlink="http://www.w3.org/1999/xlink">
    <!-- Generator: Sketch 59.1 (86144) - https://sketch.com -->
    <title>02</title>
    <desc>Created with Sketch.</desc>
    <g id="Page-1" stroke="none" stroke-width="1" fill="none" fill-rule="evenodd">
        <g id="02" transform="translate(-34.000000, -44.144277)">
            <path d="M99.4,57 C128.4,57 131.4,93 131.4,116.2 L131.396216,117.60697 C131.2696,140.8256 127.82,175.4 99.4,175.4 C70.69,175.4 67.4626,140.1164 67.400923,116.899791 L67.4,116.2 C67.4,93 70.4,57 99.4,57 Z M99.4,45 C62.2,45 53.6,83.6 53.6,116.2 C53.6,145.4 59.6,187.4 99.4,187.4 C139.2,187.4 145.2,145.4 145.2,116.2 C145.2,83.6 136.6,45 99.4,45 Z M165,186 L165,174 L197,138.6 L198.511546,136.920222 C214.79288,118.75542 230.6,98.69 230.6,82.2 C230.6,67.4 219.8,57 206,57 C193.4,57 183.4,60.6 172.4,67 L170,54.4 C180.2,49.4 193.8,45 205.2,45 C227.8,45 245.6,56.4 245.6,81.6 C245.6,102.4 225.2,126.6 207.2,146.4 L182,174 L248.8,174 L248.8,186 L165,186 Z" fill-opacity="0.706402972" fill="#BBBCBC" fill-rule="nonzero"></path>
            <line x1="34.6347656" y1="106.839589" x2="85.3007813" y2="106.839589" id="Path-Copy-3" stroke="#D6001C" stroke-width="3"></line>
        </g>
    </g>
</svg>