<?xml version="1.0" encoding="UTF-8"?>
<svg width="197px" height="144px" viewBox="0 0 197 144" version="1.1" xmlns="http://www.w3.org/2000/svg" xmlns:xlink="http://www.w3.org/1999/xlink">
    <!-- Generator: Sketch 59.1 (86144) - https://sketch.com -->
    <title>03</title>
    <desc>Created with Sketch.</desc>
    <g id="Page-1" stroke="none" stroke-width="1" fill="none" fill-rule="evenodd">
        <g id="03" transform="translate(-53.000000, -44.144277)">
            <line x1="116.552734" y1="91.3392173" x2="211.046875" y2="91.3392173" id="Path-Copy-4" stroke="#D6001C" stroke-width="3"></line>
            <path d="M99.4,57 C128.4,57 131.4,93 131.4,116.2 L131.396216,117.60697 C131.2696,140.8256 127.82,175.4 99.4,175.4 C70.69,175.4 67.4626,140.1164 67.400923,116.899791 L67.4,116.2 C67.4,93 70.4,57 99.4,57 Z M99.4,45 C62.2,45 53.6,83.6 53.6,116.2 C53.6,145.4 59.6,187.4 99.4,187.4 C139.2,187.4 145.2,145.4 145.2,116.2 C145.2,83.6 136.6,45 99.4,45 Z M185,119.6 L185,107.6 L188.6,107.6 C207.6,107.6 236,105.6 236,79.6 C236,64 219,57 204,57 C193,57 182.6,59.8 172.8,64.4 L171.6,51.4 C181.8,47.6 193.8,45 205.4,45 C228.4,45 249.8,54.8 249.8,79.6 C249.8,96.6 237.8,108.8 220.8,113 L220.8,113.4 C239.4,114.2 249.8,128.6 249.8,147.2 C249.8,172.6 227.4,187.4 199.4,187.4 C187.4,187.4 176.2,186 165,181.8 L166.6,168.6 C178,174 190.2,175.4 200.2,175.4 C217,175.4 236,167.2 236,146 C236,122.24 213.26168,119.65016 198.252429,119.600739 L185,119.6 Z" fill-opacity="0.706402972" fill="#BBBCBC" fill-rule="nonzero"></path>
        </g>
    </g>
</svg>