<?xml version="1.0" encoding="UTF-8"?>
<svg width="208px" height="144px" viewBox="0 0 208 144" version="1.1" xmlns="http://www.w3.org/2000/svg" xmlns:xlink="http://www.w3.org/1999/xlink">
    <!-- Generator: Sketch 59.1 (86144) - https://sketch.com -->
    <title>04</title>
    <desc>Created with Sketch.</desc>
    <g id="Page-1" stroke="none" stroke-width="1" fill="none" fill-rule="evenodd">
        <g id="04" transform="translate(0.000000, 0.855723)">
            <path d="M46.4,12 C75.4,12 78.4,48 78.4,71.2 L78.396216,72.6069696 C78.2696,95.8256 74.82,130.4 46.4,130.4 C17.69,130.4 14.4626,95.1164 14.400923,71.8997912 L14.4,71.2 C14.4,48 17.4,12 46.4,12 Z M46.4,0 C9.2,0 0.6,38.6 0.6,71.2 C0.6,100.4 6.6,142.4 46.4,142.4 C86.2,142.4 92.2,100.4 92.2,71.2 C92.2,38.6 83.6,0 46.4,0 Z" fill-opacity="0.706402972" fill="#BBBCBC" fill-rule="nonzero"></path>
            <path d="M187,1.4 L187,96.8 L207.6,96.8 L207.6,108.8 L187,108.8 L187,141 L173.2,141 L173.2,108.8 L106.6,108.8 L106.6,95.2 L169.4,1.4 L187,1.4 Z M173.2,15.2 L172.8,15.2 L119.2,96.8 L173.2,96.8 L173.2,15.2 Z" id="Combined-Shape" fill-opacity="0.706402972" fill="#BBBCBC" fill-rule="nonzero"></path>
            <line x1="63.5527344" y1="46.3392173" x2="158.046875" y2="46.3392173" id="Path-Copy-4" stroke="#D6001C" stroke-width="3"></line>
        </g>
    </g>
</svg>