<?xml version="1.0" encoding="UTF-8"?>
<svg width="200px" height="144px" viewBox="0 0 200 144" version="1.1" xmlns="http://www.w3.org/2000/svg" xmlns:xlink="http://www.w3.org/1999/xlink">
    <!-- Generator: Sketch 59.1 (86144) - https://sketch.com -->
    <title>05</title>
    <desc>Created with Sketch.</desc>
    <g id="Page-1" stroke="none" stroke-width="1" fill="none" fill-rule="evenodd">
        <g id="05" transform="translate(-53.000000, -45.000000)">
            <path d="M99.5209098,57.8557232 C128.52091,57.8557232 131.52091,93.8557232 131.52091,117.055723 L131.517126,118.462693 C131.39051,141.681323 127.94091,176.255723 99.5209098,176.255723 C70.5209098,176.255723 67.5209098,140.255723 67.5209098,117.055723 L67.5246938,115.648754 C67.6513098,92.4301232 71.1009098,57.8557232 99.5209098,57.8557232 Z M99.5209098,45.8557232 C62.3209098,45.8557232 53.7209098,84.4557232 53.7209098,117.055723 C53.7209098,146.255723 59.7209098,188.255723 99.5209098,188.255723 C139.32091,188.255723 145.32091,146.255723 145.32091,117.055723 C145.32091,84.4557232 136.72091,45.8557232 99.5209098,45.8557232 Z M246.72091,47.2557232 L246.72091,59.2557232 L188.92091,59.2557232 L187.92091,104.055723 L188.437152,103.878829 C192.957398,102.35394 198.72091,101.055723 209.12091,101.055723 C236.12091,101.055723 252.92091,116.255723 252.92091,141.855723 C252.92091,172.655723 231.92091,188.255723 202.12091,188.255723 C192.12091,188.255723 181.72091,186.855723 172.32091,183.255723 L172.32091,169.055723 C181.12091,173.855723 192.32091,176.255723 202.12091,176.255723 C220.32091,176.255723 239.12091,166.455723 239.12091,144.655723 C239.12091,123.055723 227.72091,113.055723 204.12091,113.055723 C192.32091,113.055723 184.12091,114.455723 173.92091,117.455723 L175.32091,47.2557232 L246.72091,47.2557232 Z" fill-opacity="0.706402972" fill="#BBBCBC" fill-rule="nonzero"></path>
            <line x1="104.454894" y1="94.1289062" x2="155.12091" y2="94.1289062" id="Path-Copy-2" stroke="#D6001C" stroke-width="3"></line>
        </g>
    </g>
</svg>