<?xml version="1.0" encoding="UTF-8"?>
<svg width="995px" height="124px" viewBox="0 0 995 124" version="1.1" xmlns="http://www.w3.org/2000/svg" xmlns:xlink="http://www.w3.org/1999/xlink">
    <!-- Generator: Sketch 59.1 (86144) - https://sketch.com -->
    <title>advanced class gas turbines</title>
    <desc>Created with Sketch.</desc>
    <g id="Page-1" stroke="none" stroke-width="1" fill="none" fill-rule="evenodd">
        <g id="advanced-class-gas-turbines" transform="translate(-95.000000, -1.000000)">
            <path d="M361.18,23 L363.19,23 L365.44,17.39 L376,17.39 L378.25,23 L380.41,23 L372.1,2.06 L369.76,2.06 L361.18,23 Z M375.31,15.59 L366.22,15.59 L370.78,4.04 L375.31,15.59 Z M395.27,21.2 L395.27,3.86 L398.3,3.86 C402.98,3.86 406.79,5.99 406.79,12.38 C406.79,18.8 402.92,21.2 396.98,21.2 L395.27,21.2 Z M393.2,23 L396.86,23 C403.79,23 408.86,20.09 408.86,12.5 C408.86,6.38 405.89,2.06 398.39,2.06 L393.2,2.06 L393.2,23 Z M438.96,2.06 L436.92,2.06 L429.93,20.93 L423.18,2.06 L420.99,2.06 L428.79,23 L431.01,23 L438.96,2.06 Z M447.88,23 L449.89,23 L452.14,17.39 L462.7,17.39 L464.95,23 L467.11,23 L458.8,2.06 L456.46,2.06 L447.88,23 Z M462.01,15.59 L452.92,15.59 L457.48,4.04 L462.01,15.59 Z M479.81,23 L481.88,23 L481.88,4.94 L481.94,4.94 L492.41,23 L495.2,23 L495.2,2.06 L493.13,2.06 L493.13,20.48 L493.07,20.48 L482.42,2.06 L479.81,2.06 L479.81,23 Z M524.58,2.48 C523.5,1.91 521.01,1.7 519.78,1.7 C513.3,1.7 509.22,6.17 509.22,12.53 C509.22,19.01 513.18,23.36 519.78,23.36 C521.1,23.36 523.44,23.15 524.58,22.46 L524.46,20.66 C523.26,21.38 521.16,21.56 519.78,21.56 C514.26,21.56 511.29,17.81 511.29,12.53 C511.29,7.34 514.35,3.5 519.78,3.5 C521.25,3.5 523.14,3.71 524.46,4.4 L524.58,2.48 Z M540.1,23 L550.72,23 L550.72,21.2 L542.17,21.2 L542.17,13.13 L549.94,13.13 L549.94,11.33 L542.17,11.33 L542.17,3.86 L550.36,3.86 L550.36,2.06 L540.1,2.06 L540.1,23 Z M566.99,21.2 L566.99,3.86 L570.02,3.86 C574.7,3.86 578.51,5.99 578.51,12.38 C578.51,18.8 574.64,21.2 568.7,21.2 L566.99,21.2 Z M564.92,23 L568.58,23 C575.51,23 580.58,20.09 580.58,12.5 C580.58,6.38 577.61,2.06 570.11,2.06 L564.92,2.06 L564.92,23 Z M627.94,2.48 C626.86,1.91 624.37,1.7 623.14,1.7 C616.66,1.7 612.58,6.17 612.58,12.53 C612.58,19.01 616.54,23.36 623.14,23.36 C624.46,23.36 626.8,23.15 627.94,22.46 L627.82,20.66 C626.62,21.38 624.52,21.56 623.14,21.56 C617.62,21.56 614.65,17.81 614.65,12.53 C614.65,7.34 617.71,3.5 623.14,3.5 C624.61,3.5 626.5,3.71 627.82,4.4 L627.94,2.48 Z M643.28,23 L653.75,23 L653.75,21.2 L645.35,21.2 L645.35,2.06 L643.28,2.06 L643.28,23 Z M664.59,23 L666.6,23 L668.85,17.39 L679.41,17.39 L681.66,23 L683.82,23 L675.51,2.06 L673.17,2.06 L664.59,23 Z M678.72,15.59 L669.63,15.59 L674.19,4.04 L678.72,15.59 Z M696.01,22.46 C697.12,22.94 698.71,23.36 700.75,23.36 C703.99,23.36 707.62,21.68 707.62,17.45 C707.62,11.33 698.02,11.3 698.02,7.1 C698.02,4.4 700.39,3.5 702.55,3.5 C703.96,3.5 705.43,3.77 706.36,4.28 L706.69,2.39 C705.25,1.85 703.6,1.7 702.58,1.7 C698.89,1.7 695.95,3.8 695.95,7.16 C695.95,12.65 705.55,13.16 705.55,17.27 C705.55,20.24 703.42,21.56 700.84,21.56 C698.89,21.56 697.45,21.11 696.22,20.33 L696.01,22.46 Z M721.01,22.46 L721.22,20.33 C722.45,21.11 723.89,21.56 725.84,21.56 C728.42,21.56 730.55,20.24 730.55,17.27 C730.55,13.16 720.95,12.65 720.95,7.16 C720.95,3.8 723.89,1.7 727.58,1.7 C728.6,1.7 730.25,1.85 731.69,2.39 L731.36,4.28 C730.43,3.77 728.96,3.5 727.55,3.5 C725.39,3.5 723.02,4.4 723.02,7.1 C723.02,11.3 732.62,11.33 732.62,17.45 C732.62,21.68 728.99,23.36 725.75,23.36 C723.71,23.36 722.12,22.94 721.01,22.46 Z" id="ADVANCEDCLASS" fill="#FFFFFF" fill-rule="nonzero"></path>
            <path d="M145.23,98.802 L154.346,98.802 L154.346,114.97 C152.884,115.572 150.562,116.088 147.982,116.088 C136.716,116.088 130.61,107.488 130.61,93.986 C130.61,81.516 136.888,71.884 148.584,71.884 C154.088,71.884 158.904,73.432 162.43,75.582 L163.032,65.692 L162.688071,65.5448588 C160.202837,64.5193488 154.972,63.112 148.412,63.112 C129.148,63.112 118.914,76.184 118.914,93.986 C118.914,111.788 129.148,124.86 148.412,124.86 C156.238,124.86 161.57,123.398 164.666,121.764 L164.666,90.374 L145.23,90.374 L145.23,98.802 Z M217.498667,101.124 L225.754667,73.088 L225.926667,73.088 L233.494667,101.124 L217.498667,101.124 Z M240.030667,124 L251.382667,124 L232.032667,63.972 L219.992667,63.972 L199.868667,124 L210.876667,124 L215.176667,109.552 L235.816667,109.552 L240.030667,124 Z M285.553333,122.194 C288.563333,124 293.207333,124.86 299.227333,124.86 C310.665333,124.86 319.351333,119.012 319.351333,106.8 C319.351333,98.372 315.997333,94.588 308.945333,90.632 L302.495333,87.02 C299.141333,85.128 296.131333,83.408 296.131333,78.936 C296.131333,74.808 298.969333,71.884 304.473333,71.884 C309.547333,71.884 313.073333,73.432 315.739333,74.464 L316.255333,65.262 L314.733927,64.7896894 C312.480849,64.1073694 308.666358,63.112 303.699333,63.112 C293.637333,63.112 284.779333,68.702 284.779333,79.452 C284.779333,87.0512727 288.509885,91.749005 294.261718,95.0102862 L300.852745,98.6618215 C305.717488,101.379074 307.999333,103.288957 307.999333,107.402 C307.999333,113.422 303.699333,116.088 298.883333,116.088 C293.035333,116.088 288.305333,113.766 286.155333,112.39 L285.553333,122.194 Z M413.750667,124 L424.758667,124 L424.758667,72.744 L438.088667,72.744 L438.088667,63.972 L400.334667,63.972 L400.334667,72.744 L413.750667,72.744 L413.750667,124 Z M474.409333,63.972 L474.409333,102.844 C474.409333,118.668 483.525333,124.86 494.877333,124.86 C506.143333,124.86 515.259333,118.668 515.259333,102.844 L515.259333,63.972 L504.251333,63.972 L504.251333,102.844 C504.251333,112.82 501.155333,116.088 494.877333,116.088 C488.427333,116.088 485.417333,112.82 485.417333,102.844 L485.417333,63.972 L474.409333,63.972 Z M555.622,124 L566.63,124 L566.63,98.2 L569.124,98.2 C573.166,98.2 576.004,99.748 577.466,104.478 L583.4,124 L595.096,124 L587.27,101.124 C585.378,95.534 582.884,94.502 580.648,94.158 L580.648,93.9 C587.356,92.868 592.258,87.622 592.258,79.796 C592.258,68.788 585.034,63.972 574.37,63.972 L555.622,63.972 L555.622,124 Z M566.63,90.116 L566.63,72.4 L571.102,72.4 C577.294,72.4 580.906,74.12 580.906,81 C580.906,87.106 576.95,90.116 571.102,90.116 L566.63,90.116 Z M643.284667,72.056 L648.702667,72.056 C653.948667,72.056 657.560667,75.066 657.560667,80.14 C657.560667,85.042 654.378667,89.084 648.960667,89.084 L643.284667,89.084 L643.284667,72.056 Z M643.284667,97.168 L649.046667,97.168 C655.840667,97.168 658.592667,101.124 658.592667,106.37 C658.592667,111.96 655.324667,115.572 649.390667,115.572 L643.284667,115.572 L643.284667,97.168 Z M632.620667,124 L650.938667,124 C661.602667,124 669.600667,118.066 669.600667,107.144 C669.600667,97.082 662.892667,93.814 658.248667,92.782 L658.248667,92.61 L658.783613,92.4080075 C662.724126,90.884532 668.224667,87.8888529 668.224667,78.764 C668.224667,68.616 662.548667,63.972 650.164667,63.972 L632.620667,63.972 L632.620667,124 Z M709.189333,124 L720.197333,124 L720.197333,63.972 L709.189333,63.972 L709.189333,124 Z M761.592,124 L771.568,124 L771.568,77.216 L771.74,77.216 L791.606,124 L804.764,124 L804.764,63.972 L794.788,63.972 L794.788,111.1 L794.616,111.1 L774.664,63.972 L761.592,63.972 L761.592,124 Z M846.072667,124 L878.494667,124 L878.494667,115.228 L857.080667,115.228 L857.080667,97.512 L876.516667,97.512 L876.516667,88.74 L857.080667,88.74 L857.080667,72.744 L877.634667,72.744 L877.634667,63.972 L846.072667,63.972 L846.072667,124 Z M916.363333,122.194 L916.965333,112.39 L917.31626,112.608715 C919.603402,113.998047 924.145231,116.088 929.693333,116.088 C934.509333,116.088 938.809333,113.422 938.809333,107.402 C938.809333,103.195478 936.422589,101.293399 931.327052,98.4752679 L925.393333,95.19 C919.459333,91.922 915.589333,87.192 915.589333,79.452 C915.589333,68.702 924.447333,63.112 934.509333,63.112 C940.873333,63.112 945.345333,64.746 947.065333,65.262 L946.549333,74.464 L945.141481,73.9145556 C942.665,72.959 939.511667,71.884 935.283333,71.884 C929.779333,71.884 926.941333,74.808 926.941333,78.936 C926.941333,83.408 929.951333,85.128 933.305333,87.02 L939.755333,90.632 L940.459751,91.0338997 C947.030869,94.8498788 950.161333,98.6576949 950.161333,106.8 C950.161333,119.012 941.475333,124.86 930.037333,124.86 C924.017333,124.86 919.373333,124 916.363333,122.194 Z" id="GASTURBINES" fill="#FFFFFF" fill-rule="nonzero"></path>
            <g id="Group-6" transform="translate(95.000000, 70.000000)" fill="#E31F27">
                <polygon id="Fill-1" points="248 38 326 38 326 35 248 35"></polygon>
                <polygon id="Fill-2" points="0 3 48 3 48 0 0 0"></polygon>
                <polygon id="Fill-3" points="948 8 995 8 995 5 948 5"></polygon>
                <path d="M715.358799,40 L703.628029,40 L698,40 C698.696163,41.2092575 699.464511,42.2029894 700.29648,43 L703.628029,43 L713.061095,43 L775,43 L775,40 L715.358799,40 Z" id="Fill-4"></path>
            </g>
        </g>
    </g>
</svg>