<?xml version="1.0" encoding="UTF-8"?>
<svg width="995px" height="124px" viewBox="0 0 995 124" version="1.1" xmlns="http://www.w3.org/2000/svg" xmlns:xlink="http://www.w3.org/1999/xlink">
    <!-- Generator: Sketch 59.1 (86144) - https://sketch.com -->
    <title>autonomous power plants</title>
    <desc>Created with Sketch.</desc>
    <g id="Page-1" stroke="none" stroke-width="1" fill="none" fill-rule="evenodd">
        <g id="autonomous-power-plants" transform="translate(-95.000000, -1.000000)">
            <path d="M402.045,23 L404.055,23 L406.305,17.39 L416.865,17.39 L419.115,23 L421.275,23 L412.965,2.06 L410.625,2.06 L402.045,23 Z M416.175,15.59 L407.085,15.59 L411.645,4.04 L416.175,15.59 Z M449.275,2.06 L447.205,2.06 L447.205,15.68 C447.205,19.1 445.315,21.56 441.685,21.56 C438.055,21.56 436.165,19.1 436.165,15.68 L436.165,2.06 L434.095,2.06 L434.095,15.68 C434.095,21.86 438.625,23.36 441.685,23.36 L442.012275,23.3543225 C445.057318,23.2489751 449.275,21.6431579 449.275,15.68 L449.275,2.06 Z M468.155,23 L470.225,23 L470.225,3.86 L476.405,3.86 L476.405,2.06 L461.975,2.06 L461.975,3.86 L468.155,3.86 L468.155,23 Z M488.295,12.53 C488.355,18.95 491.475,23.36 497.505,23.36 C503.535,23.36 506.655,18.95 506.715,12.53 C506.775,6.86 503.805,1.7 497.505,1.7 C491.205,1.7 488.235,6.86 488.295,12.53 Z M497.505,3.5 C502.425,3.5 504.645,8.09 504.645,12.53 C504.645,16.97 502.425,21.56 497.505,21.56 C492.585,21.56 490.365,16.97 490.365,12.53 C490.365,8.09 492.585,3.5 497.505,3.5 Z M520.645,23 L522.715,23 L522.715,4.94 L522.775,4.94 L533.245,23 L536.035,23 L536.035,2.06 L533.965,2.06 L533.965,20.48 L533.905,20.48 L523.255,2.06 L520.645,2.06 L520.645,23 Z M549.965,12.53 C550.025,18.95 553.145,23.36 559.175,23.36 C565.205,23.36 568.325,18.95 568.385,12.53 C568.445,6.86 565.475,1.7 559.175,1.7 C552.875,1.7 549.905,6.86 549.965,12.53 Z M559.175,3.5 C564.095,3.5 566.315,8.09 566.315,12.53 C566.315,16.97 564.095,21.56 559.175,21.56 C554.255,21.56 552.035,16.97 552.035,12.53 C552.035,8.09 554.255,3.5 559.175,3.5 Z M582.585,23 L584.655,23 L584.655,4.13 L584.715,4.13 L592.575,23 L594.345,23 L601.965,4.13 L602.025,4.13 L602.025,23 L604.095,23 L604.095,2.06 L601.125,2.06 L593.445,20.48 L585.795,2.06 L582.585,2.06 L582.585,23 Z M618.295,12.53 C618.355,18.95 621.475,23.36 627.505,23.36 C633.535,23.36 636.655,18.95 636.715,12.53 C636.775,6.86 633.805,1.7 627.505,1.7 C621.205,1.7 618.235,6.86 618.295,12.53 Z M627.505,3.5 C632.425,3.5 634.645,8.09 634.645,12.53 C634.645,16.97 632.425,21.56 627.505,21.56 C622.585,21.56 620.365,16.97 620.365,12.53 C620.365,8.09 622.585,3.5 627.505,3.5 Z M665.945,2.06 L663.875,2.06 L663.875,15.68 C663.875,19.1 661.985,21.56 658.355,21.56 C654.725,21.56 652.835,19.1 652.835,15.68 L652.835,2.06 L650.765,2.06 L650.765,15.68 C650.765,21.86 655.295,23.36 658.355,23.36 L658.682275,23.3543225 C661.727318,23.2489751 665.945,21.6431579 665.945,15.68 L665.945,2.06 Z M680.145,22.46 L680.355,20.33 C681.585,21.11 683.025,21.56 684.975,21.56 C687.555,21.56 689.685,20.24 689.685,17.27 C689.685,13.16 680.085,12.65 680.085,7.16 C680.085,3.8 683.025,1.7 686.715,1.7 C687.735,1.7 689.385,1.85 690.825,2.39 L690.495,4.28 C689.565,3.77 688.095,3.5 686.685,3.5 C684.525,3.5 682.155,4.4 682.155,7.1 C682.155,11.3 691.755,11.33 691.755,17.45 C691.755,21.68 688.125,23.36 684.885,23.36 C682.845,23.36 681.255,22.94 680.145,22.46 Z" id="AUTONOMOUS" fill="#FFFFFF" fill-rule="nonzero"></path>
            <path d="M114.313,92.094 L114.313,72.4 L118.441,72.4 C125.321,72.4 128.331,75.668 128.331,82.204 C128.331,88.74 125.321,92.094 118.441,92.094 L114.313,92.094 Z M103.305,124 L114.313,124 L114.313,100.522 L120.505,100.522 C132.889,100.522 139.339,93.556 139.339,82.204 C139.339,70.852 132.889,63.972 120.505,63.972 L103.305,63.972 L103.305,124 Z M186.065667,93.986 C186.065667,77.474 191.655667,71.54 198.621667,71.54 C205.587667,71.54 211.177667,77.474 211.177667,93.986 C211.177667,110.498 205.587667,116.432 198.621667,116.432 C191.655667,116.432 186.065667,110.498 186.065667,93.986 Z M174.713667,93.986 C174.713667,115.572 186.151667,124.86 198.621667,124.86 C211.091667,124.86 222.529667,115.572 222.529667,93.986 C222.529667,72.4 211.091667,63.112 198.621667,63.112 C186.151667,63.112 174.713667,72.4 174.713667,93.986 Z M298.496333,124 L311.654333,124 L324.038333,63.972 L314.062333,63.972 L305.290333,110.24 L305.118333,110.24 L296.174333,63.972 L282.758333,63.972 L273.728333,110.24 L273.556333,110.24 L265.128333,63.972 L254.808333,63.972 L266.934333,124 L279.920333,124 L289.380333,74.808 L289.552333,74.808 L298.496333,124 Z M360.273,124 L392.695,124 L392.695,115.228 L371.281,115.228 L371.281,97.512 L390.717,97.512 L390.717,88.74 L371.281,88.74 L371.281,72.744 L391.835,72.744 L391.835,63.972 L360.273,63.972 L360.273,124 Z M431.423667,124 L442.431667,124 L442.431667,98.2 L444.925667,98.2 C448.967667,98.2 451.805667,99.748 453.267667,104.478 L459.201667,124 L470.897667,124 L463.071667,101.124 C461.179667,95.534 458.685667,94.502 456.449667,94.158 L456.449667,93.9 C463.157667,92.868 468.059667,87.622 468.059667,79.796 C468.059667,68.788 460.835667,63.972 450.171667,63.972 L431.423667,63.972 L431.423667,124 Z M442.431667,90.116 L442.431667,72.4 L446.903667,72.4 C453.095667,72.4 456.707667,74.12 456.707667,81 C456.707667,87.106 452.751667,90.116 446.903667,90.116 L442.431667,90.116 Z M569.941,92.094 L569.941,72.4 L574.069,72.4 C580.949,72.4 583.959,75.668 583.959,82.204 C583.959,88.74 580.949,92.094 574.069,92.094 L569.941,92.094 Z M558.933,124 L569.941,124 L569.941,100.522 L576.133,100.522 C588.517,100.522 594.967,93.556 594.967,82.204 C594.967,70.852 588.517,63.972 576.133,63.972 L558.933,63.972 L558.933,124 Z M632.233667,124 L663.021667,124 L663.021667,115.228 L643.241667,115.228 L643.241667,63.972 L632.233667,63.972 L632.233667,124 Z M711.382333,101.124 L719.638333,73.088 L719.810333,73.088 L727.378333,101.124 L711.382333,101.124 Z M733.914333,124 L745.266333,124 L725.916333,63.972 L713.876333,63.972 L693.752333,124 L704.760333,124 L709.060333,109.552 L729.700333,109.552 L733.914333,124 Z M780.727,124 L790.703,124 L790.703,77.216 L790.875,77.216 L810.741,124 L823.899,124 L823.899,63.972 L813.923,63.972 L813.923,111.1 L813.751,111.1 L793.799,63.972 L780.727,63.972 L780.727,124 Z M874.065667,124 L885.073667,124 L885.073667,72.744 L898.403667,72.744 L898.403667,63.972 L860.649667,63.972 L860.649667,72.744 L874.065667,72.744 L874.065667,124 Z M933.864333,122.194 L934.466333,112.39 L934.81726,112.608715 C937.104402,113.998047 941.646231,116.088 947.194333,116.088 C952.010333,116.088 956.310333,113.422 956.310333,107.402 C956.310333,103.195478 953.923589,101.293399 948.828052,98.4752679 L942.894333,95.19 C936.960333,91.922 933.090333,87.192 933.090333,79.452 C933.090333,68.702 941.948333,63.112 952.010333,63.112 C958.374333,63.112 962.846333,64.746 964.566333,65.262 L964.050333,74.464 L962.642481,73.9145556 C960.166,72.959 957.012667,71.884 952.784333,71.884 C947.280333,71.884 944.442333,74.808 944.442333,78.936 C944.442333,83.408 947.452333,85.128 950.806333,87.02 L957.256333,90.632 L957.960751,91.0338997 C964.531869,94.8498788 967.662333,98.6576949 967.662333,106.8 C967.662333,119.012 958.976333,124.86 947.538333,124.86 C941.518333,124.86 936.874333,124 933.864333,122.194 Z" id="POWERPLANTS" fill="#FFFFFF" fill-rule="nonzero"></path>
            <g id="Group-6" transform="translate(95.000000, 70.000000)" fill="#E31F27">
                <polygon id="Fill-1" points="248 38 326 38 326 35 248 35"></polygon>
                <polygon id="Fill-2" points="0 3 48 3 48 0 0 0"></polygon>
                <polygon id="Fill-3" points="948 8 995 8 995 5 948 5"></polygon>
                <path d="M715.358799,40 L703.628029,40 L698,40 C698.696163,41.2092575 699.464511,42.2029894 700.29648,43 L703.628029,43 L713.061095,43 L775,43 L775,40 L715.358799,40 Z" id="Fill-4"></path>
            </g>
        </g>
    </g>
</svg>