<?xml version="1.0" encoding="UTF-8"?>
<svg width="995px" height="124px" viewBox="0 0 995 124" version="1.1" xmlns="http://www.w3.org/2000/svg" xmlns:xlink="http://www.w3.org/1999/xlink">
    <!-- Generator: Sketch 59.1 (86144) - https://sketch.com -->
    <title>clean energy disruption</title>
    <desc>Created with Sketch.</desc>
    <g id="Page-1" stroke="none" stroke-width="1" fill="none" fill-rule="evenodd">
        <g id="clean-energy-disruption" transform="translate(-95.000000, -1.000000)">
            <polygon id="Fill-1" fill="#E31F27" points="343 108 421 108 421 105 343 105"></polygon>
            <polygon id="Fill-3" fill="#E31F27" points="1043 78 1090 78 1090 75 1043 75"></polygon>
            <path d="M810.358799,110 L798.628029,110 L793,110 C793.696163,111.209257 794.464511,112.202989 795.29648,113 L798.628029,113 L808.061095,113 L870,113 L870,110 L810.358799,110 Z" id="Fill-4" fill="#E31F27"></path>
            <polygon id="Fill-2" fill="#E31F27" points="95 73 143 73 143 70 95 70"></polygon>
            <path d="M407.885,2.48 C406.805,1.91 404.315,1.7 403.085,1.7 C396.605,1.7 392.525,6.17 392.525,12.53 C392.525,19.01 396.485,23.36 403.085,23.36 C404.405,23.36 406.745,23.15 407.885,22.46 L407.765,20.66 C406.565,21.38 404.465,21.56 403.085,21.56 C397.565,21.56 394.595,17.81 394.595,12.53 C394.595,7.34 397.655,3.5 403.085,3.5 C404.555,3.5 406.445,3.71 407.765,4.4 L407.885,2.48 Z M423.225,23 L433.695,23 L433.695,21.2 L425.295,21.2 L425.295,2.06 L423.225,2.06 L423.225,23 Z M446.725,23 L457.345,23 L457.345,21.2 L448.795,21.2 L448.795,13.13 L456.565,13.13 L456.565,11.33 L448.795,11.33 L448.795,3.86 L456.985,3.86 L456.985,2.06 L446.725,2.06 L446.725,23 Z M469.535,23 L471.545,23 L473.795,17.39 L484.355,17.39 L486.605,23 L488.765,23 L480.455,2.06 L478.115,2.06 L469.535,23 Z M483.665,15.59 L474.575,15.59 L479.135,4.04 L483.665,15.59 Z M501.465,23 L503.535,23 L503.535,4.94 L503.595,4.94 L514.065,23 L516.855,23 L516.855,2.06 L514.785,2.06 L514.785,20.48 L514.725,20.48 L504.075,2.06 L501.465,2.06 L501.465,23 Z M550.085,23 L560.705,23 L560.705,21.2 L552.155,21.2 L552.155,13.13 L559.925,13.13 L559.925,11.33 L552.155,11.33 L552.155,3.86 L560.345,3.86 L560.345,2.06 L550.085,2.06 L550.085,23 Z M574.815,23 L576.885,23 L576.885,4.94 L576.945,4.94 L587.415,23 L590.205,23 L590.205,2.06 L588.135,2.06 L588.135,20.48 L588.075,20.48 L577.425,2.06 L574.815,2.06 L574.815,23 Z M605.095,23 L615.715,23 L615.715,21.2 L607.165,21.2 L607.165,13.13 L614.935,13.13 L614.935,11.33 L607.165,11.33 L607.165,3.86 L615.355,3.86 L615.355,2.06 L605.095,2.06 L605.095,23 Z M632.225,11.33 L632.225,3.86 L634.740844,3.8615834 C637.420888,3.88572314 639.635,4.22545455 639.635,7.49 C639.635,10.4 636.845,11.33 634.415,11.33 L632.225,11.33 Z M630.155,23 L632.225,23 L632.225,13.13 L634.283406,13.1315527 C636.025193,13.1504959 636.887727,13.3836364 638.015,15.92 L641.045,23 L643.325,23 L639.755,14.9 L639.508456,14.3746906 C638.978629,13.2669565 638.51587,12.5626087 637.055,12.38 L637.055,12.32 C639.635,11.99 641.705,10.19 641.705,7.49 C641.705,3.65 639.275,2.06 635.555,2.06 L630.155,2.06 L630.155,23 Z M671.115,20.81 C670.125,21.41 667.965,21.56 666.675,21.56 C661.155,21.56 658.185,17.81 658.185,12.53 C658.185,7.34 661.245,3.5 666.675,3.5 C668.505,3.5 670.425,3.71 672.045,4.61 L672.285,2.69 C670.875,1.97 668.265,1.7 666.675,1.7 C660.195,1.7 656.115,6.17 656.115,12.53 C656.115,19.01 660.075,23.36 666.675,23.36 C668.985,23.36 671.055,23 673.185,22.07 L673.185,11.66 L666.255,11.66 L666.255,13.46 L671.115,13.46 L671.115,20.81 Z M693.985,23 L693.985,14.12 L686.215,2.06 L688.615,2.06 L695.005,12.29 L701.575,2.06 L703.825,2.06 L696.055,14.12 L696.055,23 L693.985,23 Z" id="CLEANENERGY" fill="#FFFFFF" fill-rule="nonzero"></path>
            <path d="M190.451667,124 L206.103667,124 C222.787667,124 234.827667,114.196 234.827667,93.986 C234.827667,74.12 224.851667,63.972 206.103667,63.972 L190.451667,63.972 L190.451667,124 Z M201.459667,72.4 L205.157667,72.4 C217.541667,72.4 223.131667,80.828 223.131667,93.986 C223.131667,107.144 217.541667,115.572 205.157667,115.572 L201.459667,115.572 L201.459667,72.4 Z M273.900333,124 L284.908333,124 L284.908333,63.972 L273.900333,63.972 L273.900333,124 Z M325.013,122.194 C328.023,124 332.667,124.86 338.687,124.86 C350.125,124.86 358.811,119.012 358.811,106.8 C358.811,98.372 355.457,94.588 348.405,90.632 L341.955,87.02 C338.601,85.128 335.591,83.408 335.591,78.936 C335.591,74.808 338.429,71.884 343.933,71.884 C349.007,71.884 352.533,73.432 355.199,74.464 L355.715,65.262 L354.193593,64.7896894 C351.940516,64.1073694 348.126024,63.112 343.159,63.112 C333.097,63.112 324.239,68.702 324.239,79.452 C324.239,87.0512727 327.969552,91.749005 333.721385,95.0102862 L340.312412,98.6618215 C345.177155,101.379074 347.459,103.288957 347.459,107.402 C347.459,113.422 343.159,116.088 338.343,116.088 C332.495,116.088 327.765,113.766 325.615,112.39 L325.013,122.194 Z M397.539667,124 L408.547667,124 L408.547667,98.2 L411.041667,98.2 C415.083667,98.2 417.921667,99.748 419.383667,104.478 L425.317667,124 L437.013667,124 L429.187667,101.124 C427.295667,95.534 424.801667,94.502 422.565667,94.158 L422.565667,93.9 C429.273667,92.868 434.175667,87.622 434.175667,79.796 C434.175667,68.788 426.951667,63.972 416.287667,63.972 L397.539667,63.972 L397.539667,124 Z M408.547667,90.116 L408.547667,72.4 L413.019667,72.4 C419.211667,72.4 422.823667,74.12 422.823667,81 C422.823667,87.106 418.867667,90.116 413.019667,90.116 L408.547667,90.116 Z M473.334333,63.972 L473.334333,102.844 C473.334333,118.668 482.450333,124.86 493.802333,124.86 C505.068333,124.86 514.184333,118.668 514.184333,102.844 L514.184333,63.972 L503.176333,63.972 L503.176333,102.844 C503.176333,112.82 500.080333,116.088 493.802333,116.088 C487.352333,116.088 484.342333,112.82 484.342333,102.844 L484.342333,63.972 L473.334333,63.972 Z M565.555,92.094 L565.555,72.4 L569.683,72.4 C576.563,72.4 579.573,75.668 579.573,82.204 C579.573,88.74 576.563,92.094 569.683,92.094 L565.555,92.094 Z M554.547,124 L565.555,124 L565.555,100.522 L571.747,100.522 C584.131,100.522 590.581,93.556 590.581,82.204 C590.581,70.852 584.131,63.972 571.747,63.972 L554.547,63.972 L554.547,124 Z M637.221667,124 L648.229667,124 L648.229667,72.744 L661.559667,72.744 L661.559667,63.972 L623.805667,63.972 L623.805667,72.744 L637.221667,72.744 L637.221667,124 Z M698.482333,124 L709.490333,124 L709.490333,63.972 L698.482333,63.972 L698.482333,124 Z M759.916673,94.4781912 L759.915,93.986 C759.915,77.474 765.505,71.54 772.471,71.54 C779.36734,71.54 784.915062,77.3559134 785.025327,93.4938088 L785.027,93.986 C785.027,110.498 779.437,116.432 772.471,116.432 C765.57466,116.432 760.026938,110.616087 759.916673,94.4781912 L759.916673,94.4781912 Z M748.563,93.986 C748.563,115.572 760.001,124.86 772.471,124.86 C784.941,124.86 796.379,115.572 796.379,93.986 C796.379,72.4 784.941,63.112 772.471,63.112 C760.001,63.112 748.563,72.4 748.563,93.986 Z M835.279667,124 L835.279667,63.972 L848.351667,63.972 L868.303667,111.1 L868.475667,111.1 L868.475667,63.972 L878.451667,63.972 L878.451667,124 L865.293667,124 L845.427667,77.216 L845.255667,77.216 L845.255667,124 L835.279667,124 Z" id="DISRUPTION" fill="#FFFFFF" fill-rule="nonzero"></path>
        </g>
    </g>
</svg>