<?xml version="1.0" encoding="UTF-8"?>
<svg width="1076px" height="110px" viewBox="0 0 1076 110" version="1.1" xmlns="http://www.w3.org/2000/svg" xmlns:xlink="http://www.w3.org/1999/xlink">
    <!-- Generator: Sketch 59.1 (86144) - https://sketch.com -->
    <title>Group</title>
    <desc>Created with Sketch.</desc>
    <g id="Page-1" stroke="none" stroke-width="1" fill="none" fill-rule="evenodd">
        <g id="Group" transform="translate(0.307000, 0.110000)" fill-rule="nonzero">
            <path d="M19.028,40.89 L22.624,40.89 L22.624,21.518 L34.92,21.518 L34.92,18.154 L22.624,18.154 L22.624,3.77 L35.558,3.77 L35.558,0.406 L19.028,0.406 L19.028,40.89 Z M45.364,40.89 L48.96,40.89 L48.96,0.406 L45.364,0.406 L45.364,40.89 Z M69.3800001,40.89 L72.7440001,40.89 L85.5040001,0.406 L81.9080001,0.406 L71.1200001,35.902 L71.0040001,35.902 L61.0860001,0.406 L57.2580001,0.406 L69.3800001,40.89 Z M93.8020001,40.89 L111.608,40.89 L111.608,37.526 L97.3980001,37.526 L97.3980001,21.518 L110.332,21.518 L110.332,18.154 L97.3980001,18.154 L97.3980001,3.77 L110.97,3.77 L110.97,0.406 L93.8020001,0.406 L93.8020001,40.89 Z M138.934,40.89 L142.53,40.89 L142.53,0.406 L138.934,0.406 L138.934,40.89 Z M154.54,40.89 L157.904,40.89 L157.904,3.77 L158.02,3.77 L170.026,40.89 L172.752,40.89 L184.7,3.77 L184.816,3.77 L184.816,40.89 L188.18,40.89 L188.18,0.406 L182.67,0.406 L171.418,35.554 L171.302,35.554 L160.05,0.406 L154.54,0.406 L154.54,40.89 Z M203.786,19.894 L203.786,3.77 L207.676523,3.77293805 C211.112939,3.81113265 216.314,4.34585714 216.314,11.832 C216.314,18.096 212.776,19.894 207.44,19.894 L203.786,19.894 Z M200.19,40.89 L203.786,40.89 L203.786,23.258 L208.832,23.258 C214.052,23.258 220.142,20.59 220.142,11.832 C220.142,3.654 215.386,0.406 207.788,0.406 L200.19,0.406 L200.19,40.89 Z M228.093784,20.0193453 L228.093784,21.2766547 C228.12767,25.854225 228.8054,41.296 242.36,41.296 C255.62924,41.296 256.558087,26.497561 256.623106,21.5799645 L256.626217,20.0193452 C256.59233,15.441775 255.9146,2.84217094e-14 242.36,2.84217094e-14 C228.8054,2.84217094e-14 228.12767,15.441775 228.093784,20.0193453 L228.093784,20.0193453 Z M231.922804,21.3948646 L231.922804,19.9011354 C231.963455,15.6980832 232.593549,3.364 242.36,3.364 C252.350968,3.364 252.780687,16.2716857 252.799169,20.1778614 L252.797197,21.3948646 C252.756545,25.5979168 252.126452,37.932 242.36,37.932 C232.593549,37.932 231.963455,25.5979168 231.922804,21.3948646 L231.922804,21.3948646 Z M266.956,40.89 L270.552,40.89 L270.552,22.04 L275.134,22.04 C277.955622,22.04 279.130026,23.3028663 280.366758,26.7367943 L285.4,40.89 L289.228,40.89 L283.138,24.128 C282.21,21.518 280.18,20.88 279.02,20.648 L279.02,20.532 L279.377701,20.4600832 C282.748621,19.7324828 286.966,17.394 286.966,10.73 C286.966,4.814 283.312,0.406 276.294,0.406 L266.956,0.406 L266.956,40.89 Z M270.552,18.676 L270.552,3.77 L275.505386,3.77164123 C278.096784,3.80581414 282.97208,4.42790459 283.13387,10.5860774 L283.138,10.904 C283.138,12.064 282.732,18.676 275.482,18.676 L270.552,18.676 Z M292.596,3.77 L301.992,3.77 L301.992,40.89 L305.588,40.89 L305.588,3.77 L314.984,3.77 L314.984,0.406 L292.596,0.406 L292.596,3.77 Z M317.018,40.89 L320.614,40.89 L324.268,29.754 L340.392,29.754 L343.93,40.89 L347.758,40.89 L334.302,0.406 L330.474,0.406 L317.018,40.89 Z M332.33,4.234 L332.446,4.234 L339.29,26.39 L325.312,26.39 L332.33,4.234 Z M355.882,40.89 L359.246,40.89 L359.246,5.162 L359.362,5.162 L376.356,40.89 L380.996,40.89 L380.996,0.406 L377.632,0.406 L377.632,36.366 L377.516,36.366 L360.522,0.406 L355.882,0.406 L355.882,40.89 Z M389.526,3.77 L398.922,3.77 L398.922,40.89 L402.518,40.89 L402.518,3.77 L411.914,3.77 L411.914,0.406 L389.526,0.406 L389.526,3.77 Z M459.83,40.02 L459.656,36.134 L458.821367,36.5266906 C457.017823,37.3618677 455.485044,37.932 452.812,37.932 L452.516978,37.9276277 C447.818059,37.7895677 439.588,34.332375 439.588,20.532 C439.588,4.698 450.028,3.364 452.87,3.364 C455.77,3.364 458.67,4.466 459.772,5.394 L459.946,1.334 C458.032,0.406 455.248,2.84217094e-14 453.16,2.84217094e-14 C440.69,2.84217094e-14 435.76,9.976 435.76,20.416 C435.76,31.262 440.922,41.296 452.928,41.296 C456.292,41.296 458.728,40.426 459.83,40.02 Z M470.97,40.89 L474.566,40.89 L474.566,21.518 L490.342,21.518 L490.342,40.89 L493.938,40.89 L493.938,0.406 L490.342,0.406 L490.342,18.154 L474.566,18.154 L474.566,0.406 L470.97,0.406 L470.97,40.89 Z M502.062,40.89 L505.658,40.89 L509.312,29.754 L525.436,29.754 L528.974,40.89 L532.802,40.89 L519.346,0.406 L515.518,0.406 L502.062,40.89 Z M517.374,4.234 L517.49,4.234 L524.334,26.39 L510.356,26.39 L517.374,4.234 Z M540.926,40.89 L544.29,40.89 L544.29,5.162 L544.406,5.162 L561.4,40.89 L566.04,40.89 L566.04,0.406 L562.676,0.406 L562.676,36.366 L562.56,36.366 L545.566,0.406 L540.926,0.406 L540.926,40.89 Z M592.55,22.504 L599.8,22.504 L599.8,36.714 C597.944,37.7 596.32,37.932 594.232,37.932 C583.67991,37.932 580.272518,28.2356243 580.19728,20.8411742 L580.196,20.59 C580.196,7.772 587.91,3.364 593.71,3.364 C596.784,3.364 600.67,4.698 602.236,5.916 L602.41,1.972 C601.192,1.276 597.19,2.84217094e-14 593.942,2.84217094e-14 C582.696237,2.84217094e-14 576.50206,9.64909701 576.370152,19.9072894 L576.368,20.242 C576.368,27.956 579.848,41.296 594.058,41.296 C597.364,41.296 600.496,40.658 603.396,39.092 L603.396,19.14 L592.55,19.14 L592.55,22.504 Z M615.174,40.89 L632.98,40.89 L632.98,37.526 L618.77,37.526 L618.77,21.518 L631.704,21.518 L631.704,18.154 L618.77,18.154 L618.77,3.77 L632.342,3.77 L632.342,0.406 L615.174,0.406 L615.174,40.89 Z M642.264,39.382 C644.352,40.716 647.426,41.296 649.92,41.296 C656.126,41.296 660.766,36.888 660.766,30.102 C660.766,25.0311429 658.938002,23.0390204 653.179118,18.7369879 L650.551339,16.7968655 C647.565133,14.5780394 645.802,12.9575135 645.802,9.28 C645.802,4.582 649.978,3.364 652.298,3.364 C655.314,3.364 657.17,4.408 658.736,5.336 L658.91,1.276 L658.234698,1.02160651 C657.149937,0.625215976 655.336546,0.0572278107 652.900123,0.00403254438 L652.53,2.84217094e-14 C650.152,2.84217094e-14 641.974,0.812 641.974,9.802 C641.974,14.384 643.656,16.936 649.282,20.764 L650.531218,21.6014048 C654.626937,24.3742637 656.938,26.3436 656.938,30.624 L656.935113,30.7887329 C656.877552,32.5122222 655.909467,37.932 649.63,37.932 L649.422851,37.9291785 C648.198865,37.8968789 645.116236,37.5532941 642.496,35.206 L642.264,39.382 Z M687.744,40.89 L691.34,40.89 L691.34,0.406 L687.744,0.406 L687.744,40.89 Z M703.35,40.89 L706.714,40.89 L706.714,5.162 L706.83,5.162 L723.824,40.89 L728.464,40.89 L728.464,0.406 L725.1,0.406 L725.1,36.366 L724.984,36.366 L707.99,0.406 L703.35,0.406 L703.35,40.89 Z M760.720001,19.894 L760.720001,3.77 L764.610524,3.77293805 C768.046939,3.81113265 773.248001,4.34585714 773.248001,11.832 C773.248001,18.096 769.710001,19.894 764.374001,19.894 L760.720001,19.894 Z M757.124001,40.89 L760.720001,40.89 L760.720001,23.258 L765.766001,23.258 C770.986001,23.258 777.076001,20.59 777.076001,11.832 C777.076001,3.654 772.320001,0.406 764.722001,0.406 L757.124001,0.406 L757.124001,40.89 Z M785.027784,20.0193453 L785.027784,21.2766547 C785.061671,25.854225 785.739401,41.296 799.294001,41.296 C813.562001,41.296 813.562001,24.186 813.562001,20.648 L813.557107,19.7160355 C813.492087,14.798439 812.563241,2.84217094e-14 799.294001,2.84217094e-14 C785.739401,2.84217094e-14 785.061671,15.441775 785.027784,20.0193453 L785.027784,20.0193453 Z M788.856804,21.3948646 L788.856804,19.9011354 C788.897455,15.6980832 789.527549,3.364 799.294001,3.364 C809.284968,3.364 809.714687,16.2716857 809.73317,20.1778614 L809.731197,21.3948646 C809.690546,25.5979168 809.060452,37.932 799.294001,37.932 C789.527549,37.932 788.897455,25.5979168 788.856804,21.3948646 L788.856804,21.3948646 Z M828.936001,40.89 L833.170001,40.89 L841.754001,4.466 L841.870001,4.466 L849.816001,40.89 L854.340001,40.89 L863.678001,0.406 L860.082001,0.406 L852.194001,36.598 L852.078001,36.598 L844.480001,0.406 L839.550001,0.406 L831.140001,36.598 L831.024001,36.598 L823.774001,0.406 L819.946001,0.406 L828.936001,40.89 Z M871.744001,40.89 L889.550001,40.89 L889.550001,37.526 L875.340001,37.526 L875.340001,21.518 L888.274001,21.518 L888.274001,18.154 L875.340001,18.154 L875.340001,3.77 L888.912001,3.77 L888.912001,0.406 L871.744001,0.406 L871.744001,40.89 Z M900.226001,40.89 L903.822001,40.89 L903.822001,22.04 L908.404001,22.04 C911.304001,22.04 912.464001,23.374 913.740001,27.028 L918.670001,40.89 L922.498001,40.89 L916.408001,24.128 C915.480001,21.518 913.450001,20.88 912.290001,20.648 L912.290001,20.532 L912.647701,20.4600832 C916.018621,19.7324828 920.236001,17.394 920.236001,10.73 C920.236001,4.814 916.582001,0.406 909.564001,0.406 L900.226001,0.406 L900.226001,40.89 Z M903.822001,18.676 L903.822001,3.77 L908.775387,3.77164123 C911.410706,3.80639334 916.408001,4.44916129 916.408001,10.904 L916.397497,11.2699515 C916.302791,13.0567686 915.435594,18.676 908.752001,18.676 L903.822001,18.676 Z M941.936001,3.77 L951.332001,3.77 L951.332001,40.89 L954.928001,40.89 L954.928001,3.77 L964.324001,3.77 L964.324001,0.406 L941.936001,0.406 L941.936001,3.77 Z M972.854001,40.89 L976.450001,40.89 L976.450001,21.518 L992.226001,21.518 L992.226001,40.89 L995.822001,40.89 L995.822001,0.406 L992.226001,0.406 L992.226001,18.154 L976.450001,18.154 L976.450001,0.406 L972.854001,0.406 L972.854001,40.89 Z M1003.946,40.89 L1007.542,40.89 L1011.196,29.754 L1027.32,29.754 L1030.858,40.89 L1034.686,40.89 L1021.23,0.406 L1017.402,0.406 L1003.946,40.89 Z M1019.258,4.234 L1019.374,4.234 L1026.218,26.39 L1012.24,26.39 L1019.258,4.234 Z M1036.72,3.77 L1046.116,3.77 L1046.116,40.89 L1049.712,40.89 L1049.712,3.77 L1059.108,3.77 L1059.108,0.406 L1036.72,0.406 L1036.72,3.77 Z M10.208,108.89 L13.804,108.89 L13.804,91.316 L24.012,68.406 L20.184,68.406 L12.064,88.01 L3.828,68.406 L0,68.406 L10.208,91.316 L10.208,108.89 Z M29.5857835,88.0193453 L29.5857835,89.2766547 C29.61967,93.854225 30.2974,109.296 43.852,109.296 C57.12124,109.296 58.0500868,94.497561 58.1151061,89.5799645 L58.1182165,88.0193453 C58.08433,83.441775 57.4066,68 43.852,68 C30.2974,68 29.61967,83.441775 29.5857835,88.0193452 L29.5857835,88.0193453 Z M33.4148036,89.3948646 L33.4148036,87.9011354 C33.4554548,83.6980832 34.0855484,71.364 43.852,71.364 C53.8429678,71.364 54.2726868,84.2716857 54.2911693,88.1778614 L54.2891965,89.3948646 C54.2485453,93.5979168 53.6184516,105.932 43.852,105.932 C34.0855484,105.932 33.4554548,93.5979168 33.4148036,89.3948646 L33.4148036,89.3948646 Z M68.448,68.406 L68.448,93.984 L68.4527186,94.6167934 C68.579354,103.002603 71.2871708,109.296 80.454,109.296 C89.85,109.296 92.46,101.988 92.46,93.984 L92.46,68.406 L88.864,68.406 L88.864,93.926 C88.864,99.378 88.052,105.932 80.454,105.932 C73.3106177,105.932 72.0794347,100.188721 72.0447683,94.1945453 L72.044,68.406 L68.448,68.406 Z M104.47,108.89 L108.066,108.89 L108.066,90.04 L112.648,90.04 C115.469622,90.04 116.644026,91.3028663 117.880758,94.7367943 L122.914,108.89 L126.742,108.89 L120.652,92.128 C119.724,89.518 117.694,88.88 116.534,88.648 L116.534,88.532 L116.8917,88.4600832 C120.262621,87.7324828 124.48,85.394 124.48,78.73 C124.48,72.814 120.826,68.406 113.808,68.406 L104.47,68.406 L104.47,108.89 Z M108.066,86.676 L108.066,71.77 L113.019386,71.7716412 C115.610784,71.8058141 120.48608,72.4279046 120.64787,78.5860774 L120.652,78.904 C120.652,80.064 120.246,86.676 112.996,86.676 L108.066,86.676 Z M156.446,71.77 L161.492,71.77 C166.77,71.77 168.858,74.844 168.858,78.672 C168.858,83.486 165.61,86.212 161.376,86.212 L156.446,86.212 L156.446,71.77 Z M156.446,89.576 L161.956,89.576 C166.849887,89.576 169.622159,92.8700862 169.725031,97.4862312 L169.725173,97.9592551 C169.680905,99.607124 169.024091,105.526 161.55,105.526 L156.446,105.526 L156.446,89.576 Z M152.85,68.406 L152.85,108.89 L160.35022,108.888184 C163.856877,108.856594 173.556,108.275326 173.556,97.58 C173.556,91.664 170.018,88.764 166.306,87.72 L166.306,87.604 L166.611815,87.4751426 C169.152348,86.3723306 172.686,84.003451 172.686,78.208 C172.686,73.22 169.38,68.406 162.304,68.406 L152.85,68.406 Z M184.58,68.406 L184.58,93.984 L184.584719,94.6167934 C184.711354,103.002603 187.419171,109.296 196.586,109.296 C205.982,109.296 208.592,101.988 208.592,93.984 L208.592,68.406 L204.996,68.406 L204.996,93.926 C204.996,99.378 204.184,105.932 196.586,105.932 C189.442618,105.932 188.211435,100.188721 188.176768,94.1945453 L188.176,68.406 L184.58,68.406 Z M219.21,107.382 C221.298,108.716 224.372,109.296 226.866,109.296 C233.072,109.296 237.712,104.888 237.712,98.102 C237.712,92.6334286 235.586012,90.7454694 228.69653,85.679517 L227.763987,84.9942645 C224.616371,82.6715851 222.748,81.0656757 222.748,77.28 C222.748,72.582 226.924,71.364 229.244,71.364 C232.26,71.364 234.116,72.408 235.682,73.336 L235.856,69.276 L235.180697,69.0216065 C234.095936,68.625216 232.282545,68.0572278 229.846123,68.0040325 L229.476,68 C227.098,68 218.92,68.812 218.92,77.802 C218.92,82.384 220.602,84.936 226.228,88.764 L227.477218,89.6014048 C231.473041,92.306633 233.770204,94.2470568 233.879883,98.3148793 L233.884,98.624 C233.884,100.132 233.072,105.932 226.576,105.932 L226.368851,105.929179 C225.144865,105.896879 222.062235,105.553294 219.442,103.206 L219.21,107.382 Z M248.04,108.89 L251.636,108.89 L251.636,68.406 L248.04,68.406 L248.04,108.89 Z M263.646,108.89 L267.01,108.89 L267.01,73.162 L267.126,73.162 L284.12,108.89 L288.76,108.89 L288.76,68.406 L285.396,68.406 L285.396,104.366 L285.28,104.366 L268.286,68.406 L263.646,68.406 L263.646,108.89 Z M300.77,108.89 L318.576,108.89 L318.576,105.526 L304.366,105.526 L304.366,89.518 L317.3,89.518 L317.3,86.154 L304.366,86.154 L304.366,71.77 L317.938,71.77 L317.938,68.406 L300.77,68.406 L300.77,108.89 Z M327.86,107.382 C329.948,108.716 333.022,109.296 335.516,109.296 C341.722,109.296 346.362,104.888 346.362,98.102 C346.362,92.6334286 344.236012,90.7454694 337.34653,85.679517 L336.413987,84.9942645 C333.266371,82.6715851 331.398,81.0656757 331.398,77.28 C331.398,72.582 335.574,71.364 337.894,71.364 C340.91,71.364 342.766,72.408 344.332,73.336 L344.506,69.276 L343.830698,69.0216065 C342.745936,68.625216 340.932545,68.0572278 338.496123,68.0040325 L338.126,68 C335.748,68 327.57,68.812 327.57,77.802 C327.57,82.384 329.252,84.936 334.878,88.764 L336.127218,89.6014048 C340.123041,92.306633 342.420204,94.2470568 342.529883,98.3148793 L342.534,98.624 C342.534,100.132 341.722,105.932 335.226,105.932 L335.018851,105.929179 C333.794865,105.896879 330.712236,105.553294 328.092,103.206 L327.86,107.382 Z M355.298,107.382 C357.386,108.716 360.46,109.296 362.954,109.296 C369.16,109.296 373.8,104.888 373.8,98.102 C373.8,92.6334286 371.674012,90.7454694 364.78453,85.679517 L363.851987,84.9942645 C360.704371,82.6715851 358.836,81.0656757 358.836,77.28 C358.836,72.582 363.012,71.364 365.332,71.364 C368.348,71.364 370.204,72.408 371.77,73.336 L371.944,69.276 L371.268698,69.0216065 C370.183937,68.625216 368.370546,68.0572278 365.934123,68.0040325 L365.564,68 C363.186,68 355.008,68.812 355.008,77.802 C355.008,82.384 356.69,84.936 362.316,88.764 L363.565218,89.6014048 C367.561041,92.306633 369.858204,94.2470568 369.967883,98.3148793 L369.972,98.624 C369.972,100.132 369.16,105.932 362.664,105.932 L362.456851,105.929179 C361.232865,105.896879 358.150236,105.553294 355.53,103.206 L355.298,107.382 Z M400.778,108.89 L404.142,108.89 L404.142,73.162 L404.258,73.162 L421.252,108.89 L425.892,108.89 L425.892,68.406 L422.528,68.406 L422.528,104.366 L422.412,104.366 L405.418,68.406 L400.778,68.406 L400.778,108.89 Z M437.902,108.89 L455.708,108.89 L455.708,105.526 L441.498,105.526 L441.498,89.518 L454.432,89.518 L454.432,86.154 L441.498,86.154 L441.498,71.77 L455.07,71.77 L455.07,68.406 L437.902,68.406 L437.902,108.89 Z M466.384,108.89 L484.19,108.89 L484.19,105.526 L469.98,105.526 L469.98,89.518 L482.914,89.518 L482.914,86.154 L469.98,86.154 L469.98,71.77 L483.552,71.77 L483.552,68.406 L466.384,68.406 L466.384,108.89 Z M494.866,108.89 L501.13,108.89 C514.18,108.89 519.922,99.842 519.922,88.068 C519.922,74.96 513.6,68.406 500.144,68.406 L494.866,68.406 L494.866,108.89 Z M498.462,71.77 L501.536,71.77 C514.97228,71.77 516.073022,82.1159356 516.093693,88.4570846 L516.094,88.648 C516.094,98.798 511.164,105.526 502.174,105.526 L498.462,105.526 L498.462,71.77 Z M528.452,107.382 C530.54,108.716 533.614,109.296 536.108,109.296 C542.314,109.296 546.954,104.888 546.954,98.102 C546.954,92.6334286 544.828012,90.7454694 537.93853,85.679517 L537.005988,84.9942645 C533.858371,82.6715851 531.99,81.0656757 531.99,77.28 C531.99,72.582 536.166,71.364 538.486,71.364 C541.502,71.364 543.358,72.408 544.924,73.336 L545.098,69.276 L544.422698,69.0216065 C543.337937,68.625216 541.524546,68.0572278 539.088123,68.0040325 L538.718,68 C536.34,68 528.162,68.812 528.162,77.802 C528.162,82.384 529.844,84.936 535.47,88.764 L536.719218,89.6014048 C540.715041,92.306633 543.012204,94.2470568 543.121884,98.3148793 L543.126,98.624 C543.126,100.132 542.314,105.932 535.818,105.932 L535.610851,105.929179 C534.386865,105.896879 531.304236,105.553294 528.684,103.206 L528.452,107.382 Z M567.262,71.77 L576.658,71.77 L576.658,108.89 L580.254,108.89 L580.254,71.77 L589.65,71.77 L589.65,68.406 L567.262,68.406 L567.262,71.77 Z M593.889784,88.0193453 L593.889784,89.2766547 C593.92367,93.854225 594.6014,109.296 608.156,109.296 C622.424,109.296 622.424,92.186 622.424,88.648 L622.419106,87.7160355 C622.354087,82.798439 621.42524,68 608.156,68 C594.6014,68 593.92367,83.441775 593.889784,88.0193452 L593.889784,88.0193453 Z M597.718804,89.3948646 L597.718804,87.9011354 C597.759455,83.6980832 598.389549,71.364 608.156,71.364 C618.146968,71.364 618.576687,84.2716857 618.59517,88.1778614 L618.593197,89.3948646 C618.552546,93.5979168 617.922452,105.932 608.156,105.932 C598.389549,105.932 597.759455,93.5979168 597.718804,89.3948646 L597.718804,89.3948646 Z M652.998,71.77 L658.044,71.77 C663.322,71.77 665.41,74.844 665.41,78.672 C665.41,83.486 662.162,86.212 657.928,86.212 L652.998,86.212 L652.998,71.77 Z M652.998,89.576 L658.508,89.576 C663.401887,89.576 666.174159,92.8700862 666.277031,97.4862312 L666.277173,97.9592551 C666.232905,99.607124 665.576091,105.526 658.102,105.526 L652.998,105.526 L652.998,89.576 Z M649.402,68.406 L649.402,108.89 L656.90222,108.888184 C660.408878,108.856594 670.108,108.275326 670.108,97.58 C670.108,91.664 666.57,88.764 662.858,87.72 L662.858,87.604 L663.163815,87.4751426 C665.704349,86.3723306 669.238,84.003451 669.238,78.208 C669.238,73.22 665.932,68.406 658.856,68.406 L649.402,68.406 Z M681.132,108.89 L698.938,108.89 L698.938,105.526 L684.728,105.526 L684.728,89.518 L697.662,89.518 L697.662,86.154 L684.728,86.154 L684.728,71.77 L698.3,71.77 L698.3,68.406 L681.132,68.406 L681.132,108.89 Z M729.86,87.894 L729.86,71.77 L733.750524,71.772938 C737.186939,71.8111327 742.388,72.3458571 742.388,79.832 C742.388,86.096 738.85,87.894 733.514,87.894 L729.86,87.894 Z M726.264,108.89 L729.86,108.89 L729.86,91.258 L734.906,91.258 C740.126,91.258 746.216,88.59 746.216,79.832 C746.216,71.654 741.46,68.406 733.862,68.406 L726.264,68.406 L726.264,108.89 Z M755.848001,108.89 L759.444001,108.89 L759.444001,90.04 L764.026001,90.04 C766.926001,90.04 768.086001,91.374 769.362001,95.028 L774.292001,108.89 L778.120001,108.89 L772.030001,92.128 C771.102001,89.518 769.072001,88.88 767.912001,88.648 L767.912001,88.532 L768.269701,88.4600832 C771.640621,87.7324828 775.858001,85.394 775.858001,78.73 C775.858001,72.814 772.204001,68.406 765.186001,68.406 L755.848001,68.406 L755.848001,108.89 Z M759.444001,86.676 L759.444001,71.77 L764.397387,71.7716412 C767.032706,71.8063933 772.030001,72.4491613 772.030001,78.904 L772.019497,79.2699515 C771.924791,81.0567686 771.057594,86.676 764.374001,86.676 L759.444001,86.676 Z M787.578001,108.89 L805.384001,108.89 L805.384001,105.526 L791.174001,105.526 L791.174001,89.518 L804.108001,89.518 L804.108001,86.154 L791.174001,86.154 L791.174001,71.77 L804.746001,71.77 L804.746001,68.406 L787.578001,68.406 L787.578001,108.89 Z M819.656001,87.894 L819.656001,71.77 L823.546524,71.772938 C826.982939,71.8111327 832.184001,72.3458571 832.184001,79.832 C832.184001,86.096 828.646001,87.894 823.310001,87.894 L819.656001,87.894 Z M816.060001,108.89 L819.656001,108.89 L819.656001,91.258 L824.702001,91.258 C829.922001,91.258 836.012001,88.59 836.012001,79.832 C836.012001,71.654 831.256001,68.406 823.658001,68.406 L816.060001,68.406 L816.060001,108.89 Z M838.568001,108.89 L842.164001,108.89 L845.818001,97.754 L861.942001,97.754 L865.480001,108.89 L869.308001,108.89 L855.852001,68.406 L852.024001,68.406 L838.568001,108.89 Z M853.880001,72.234 L853.996001,72.234 L860.840001,94.39 L846.862001,94.39 L853.880001,72.234 Z M877.432001,108.89 L881.028001,108.89 L881.028001,90.04 L885.610001,90.04 C888.510001,90.04 889.670001,91.374 890.946001,95.028 L895.876001,108.89 L899.704001,108.89 L893.614001,92.128 C892.686001,89.518 890.656001,88.88 889.496001,88.648 L889.496001,88.532 L889.853701,88.4600832 C893.224621,87.7324828 897.442001,85.394 897.442001,78.73 C897.442001,72.814 893.788001,68.406 886.770001,68.406 L877.432001,68.406 L877.432001,108.89 Z M881.028001,86.676 L881.028001,71.77 L885.981387,71.7716412 C888.616706,71.8063933 893.614001,72.4491613 893.614001,78.904 L893.603497,79.2699515 C893.508791,81.0567686 892.641594,86.676 885.958001,86.676 L881.028001,86.676 Z M909.162001,108.89 L926.968001,108.89 L926.968001,105.526 L912.758001,105.526 L912.758001,89.518 L925.692001,89.518 L925.692001,86.154 L912.758001,86.154 L912.758001,71.77 L926.330001,71.77 L926.330001,68.406 L909.162001,68.406 L909.162001,108.89 Z M937.644001,108.89 L943.908001,108.89 C956.958001,108.89 962.700001,99.842 962.700001,88.068 C962.700001,74.96 956.378001,68.406 942.922001,68.406 L937.644001,68.406 L937.644001,108.89 Z M941.240001,71.77 L944.314001,71.77 C957.886001,71.77 958.872001,82.326 958.872001,88.648 C958.872001,98.798 953.942001,105.526 944.952001,105.526 L941.240001,105.526 L941.240001,71.77 Z M989.272001,108.89 L992.868001,108.89 L992.868001,89.518 L1005.164,89.518 L1005.164,86.154 L992.868001,86.154 L992.868001,71.77 L1005.802,71.77 L1005.802,68.406 L989.272001,68.406 L989.272001,108.89 Z M1013.92778,88.0193453 L1013.92778,89.2766547 C1013.96167,93.854225 1014.6394,109.296 1028.194,109.296 C1042.462,109.296 1042.462,92.186 1042.462,88.648 L1042.45711,87.7160355 C1042.39209,82.798439 1041.46324,68 1028.194,68 C1014.6394,68 1013.96167,83.441775 1013.92778,88.0193452 L1013.92778,88.0193453 Z M1017.7568,89.3948646 L1017.7568,87.9011354 C1017.79746,83.6980832 1018.42755,71.364 1028.194,71.364 C1038.18497,71.364 1038.61469,84.2716857 1038.63317,88.1778614 L1038.6312,89.3948646 C1038.59055,93.5979168 1037.96045,105.932 1028.194,105.932 C1018.42755,105.932 1017.79746,93.5979168 1017.7568,89.3948646 L1017.7568,89.3948646 Z M1052.79,108.89 L1056.386,108.89 L1056.386,90.04 L1060.968,90.04 C1063.868,90.04 1065.028,91.374 1066.304,95.028 L1071.234,108.89 L1075.062,108.89 L1068.972,92.128 C1068.044,89.518 1066.014,88.88 1064.854,88.648 L1064.854,88.532 L1065.2117,88.4600832 C1068.58262,87.7324828 1072.8,85.394 1072.8,78.73 C1072.8,72.814 1069.146,68.406 1062.128,68.406 L1052.79,68.406 L1052.79,108.89 Z M1056.386,86.676 L1056.386,71.77 L1061.33939,71.7716412 C1063.97471,71.8063933 1068.972,72.4491613 1068.972,78.904 L1068.9615,79.2699515 C1068.86679,81.0567686 1067.99959,86.676 1061.316,86.676 L1056.386,86.676 Z" id="FIVEIMPORTANTCHANGESINPOWERTHATYOURBUSINESSNEEDSTOBEPREPAREDFOR" fill="#000000"></path>
            <polygon id="Path-Copy" fill="#D6001C" points="620.693 99.89 666.693 99.89 666.693 97.89 620.693 97.89"></polygon>
            <polygon id="Path" fill="#D6001C" points="309.359993 28.89 354.026008 28.89 354.026008 26.89 309.359993 26.89"></polygon>
        </g>
    </g>
</svg>