<?xml version="1.0" encoding="UTF-8"?>
<svg width="1081px" height="124px" viewBox="0 0 1081 124" version="1.1" xmlns="http://www.w3.org/2000/svg" xmlns:xlink="http://www.w3.org/1999/xlink">
    <!-- Generator: Sketch 59.1 (86144) - https://sketch.com -->
    <title>less carbon intensive power</title>
    <desc>Created with Sketch.</desc>
    <g id="Page-1" stroke="none" stroke-width="1" fill="none" fill-rule="evenodd">
        <g id="less-carbon-intensive-power" transform="translate(-9.000000, -1.000000)">
            <path d="M409.045,23 L419.515,23 L419.515,21.2 L411.115,21.2 L411.115,2.06 L409.045,2.06 L409.045,23 Z M432.545,23 L443.165,23 L443.165,21.2 L434.615,21.2 L434.615,13.13 L442.385,13.13 L442.385,11.33 L434.615,11.33 L434.615,3.86 L442.805,3.86 L442.805,2.06 L432.545,2.06 L432.545,23 Z M456.765,22.46 C457.875,22.94 459.465,23.36 461.505,23.36 C464.745,23.36 468.375,21.68 468.375,17.45 C468.375,11.33 458.775,11.3 458.775,7.1 C458.775,4.4 461.145,3.5 463.305,3.5 C464.715,3.5 466.185,3.77 467.115,4.28 L467.445,2.39 C466.005,1.85 464.355,1.7 463.335,1.7 C459.645,1.7 456.705,3.8 456.705,7.16 C456.705,12.65 466.305,13.16 466.305,17.27 C466.305,20.24 464.175,21.56 461.595,21.56 C459.645,21.56 458.205,21.11 456.975,20.33 L456.765,22.46 Z M481.765,22.46 C482.875,22.94 484.465,23.36 486.505,23.36 C489.745,23.36 493.375,21.68 493.375,17.45 C493.375,11.33 483.775,11.3 483.775,7.1 C483.775,4.4 486.145,3.5 488.305,3.5 C489.715,3.5 491.185,3.77 492.115,4.28 L492.445,2.39 C491.005,1.85 489.355,1.7 488.335,1.7 C484.645,1.7 481.705,3.8 481.705,7.16 C481.705,12.65 491.305,13.16 491.305,17.27 C491.305,20.24 489.175,21.56 486.595,21.56 C484.645,21.56 483.205,21.11 481.975,20.33 L481.765,22.46 Z M540.375,2.48 C539.295,1.91 536.805,1.7 535.575,1.7 C529.095,1.7 525.015,6.17 525.015,12.53 C525.015,19.01 528.975,23.36 535.575,23.36 C536.895,23.36 539.235,23.15 540.375,22.46 L540.255,20.66 C539.055,21.38 536.955,21.56 535.575,21.56 C530.055,21.56 527.085,17.81 527.085,12.53 C527.085,7.34 530.145,3.5 535.575,3.5 C537.045,3.5 538.935,3.71 540.255,4.4 L540.375,2.48 Z M553.705,23 L555.715,23 L557.965,17.39 L568.525,17.39 L570.775,23 L572.935,23 L564.625,2.06 L562.285,2.06 L553.705,23 Z M567.835,15.59 L558.745,15.59 L563.305,4.04 L567.835,15.59 Z M588.035,11.33 L588.035,3.86 L590.550844,3.8615834 C593.230888,3.88572314 595.445,4.22545455 595.445,7.49 C595.445,10.4 592.655,11.33 590.225,11.33 L588.035,11.33 Z M585.965,23 L588.035,23 L588.035,13.13 L590.093406,13.1315527 C591.835193,13.1504959 592.697727,13.3836364 593.825,15.92 L596.855,23 L599.135,23 L595.565,14.9 L595.318456,14.3746906 C594.788629,13.2669565 594.32587,12.5626087 592.865,12.38 L592.865,12.32 C595.445,11.99 597.515,10.19 597.515,7.49 C597.515,3.65 595.085,2.06 591.365,2.06 L585.965,2.06 L585.965,23 Z M612.405,23 L616.575,23 C620.925,23 624.645,21.59 624.645,17.03 C624.645,14.27 622.845,12.53 620.205,12.05 L620.205,11.99 C622.785,11.48 624.015,9.89 624.015,7.22 C624.015,3.28553191 620.940143,2.1098144 617.602984,2.06156497 L612.405,2.06 L612.405,23 Z M614.475,21.2 L614.475,13.01 L616.305,13.01 C619.365,13.01 622.575,13.4 622.575,17.12 C622.575,20.45 619.425,21.2 616.635,21.2 L614.475,21.2 Z M614.535,11.21 L614.535,3.86 L617.385,3.86 C619.155,3.86 621.945,4.28 621.945,7.31 C621.945,10.5607143 619.171922,11.1812925 617.002604,11.2090011 L614.535,11.21 Z M638.305,12.53 C638.365,18.95 641.485,23.36 647.515,23.36 C653.545,23.36 656.665,18.95 656.725,12.53 C656.785,6.86 653.815,1.7 647.515,1.7 C641.215,1.7 638.245,6.86 638.305,12.53 Z M647.515,3.5 C652.435,3.5 654.655,8.09 654.655,12.53 C654.655,16.97 652.435,21.56 647.515,21.56 C642.595,21.56 640.375,16.97 640.375,12.53 C640.375,8.09 642.595,3.5 647.515,3.5 Z M670.655,23 L670.655,2.06 L673.265,2.06 L683.915,20.48 L683.975,20.48 L683.975,2.06 L686.045,2.06 L686.045,23 L683.255,23 L672.785,4.94 L672.725,4.94 L672.725,23 L670.655,23 Z" id="LESSCARBON" fill="#FFFFFF" fill-rule="nonzero"></path>
            <path d="M9.135,124 L20.143,124 L20.143,63.972 L9.135,63.972 L9.135,124 Z M61.5376667,124 L71.5136667,124 L71.5136667,77.216 L71.6856667,77.216 L91.5516667,124 L104.709667,124 L104.709667,63.972 L94.7336667,63.972 L94.7336667,111.1 L94.5616667,111.1 L74.6096667,63.972 L61.5376667,63.972 L61.5376667,124 Z M154.876333,124 L165.884333,124 L165.884333,72.744 L179.214333,72.744 L179.214333,63.972 L141.460333,63.972 L141.460333,72.744 L154.876333,72.744 L154.876333,124 Z M216.051,124 L248.473,124 L248.473,115.228 L227.059,115.228 L227.059,97.512 L246.495,97.512 L246.495,88.74 L227.059,88.74 L227.059,72.744 L247.613,72.744 L247.613,63.972 L216.051,63.972 L216.051,124 Z M287.631667,124 L297.607667,124 L297.607667,77.216 L297.779667,77.216 L317.645667,124 L330.803667,124 L330.803667,63.972 L320.827667,63.972 L320.827667,111.1 L320.655667,111.1 L300.703667,63.972 L287.631667,63.972 L287.631667,124 Z M370.736333,122.194 C373.746333,124 378.390333,124.86 384.410333,124.86 C395.848333,124.86 404.534333,119.012 404.534333,106.8 C404.534333,98.372 401.180333,94.588 394.128333,90.632 L387.678333,87.02 C384.324333,85.128 381.314333,83.408 381.314333,78.936 C381.314333,74.808 384.152333,71.884 389.656333,71.884 C394.730333,71.884 398.256333,73.432 400.922333,74.464 L401.438333,65.262 L399.916927,64.7896894 C397.663849,64.1073694 393.849358,63.112 388.882333,63.112 C378.820333,63.112 369.962333,68.702 369.962333,79.452 C369.962333,87.0512727 373.692885,91.749005 379.444718,95.0102862 L386.035745,98.6618215 C390.900488,101.379074 393.182333,103.288957 393.182333,107.402 C393.182333,113.422 388.882333,116.088 384.066333,116.088 C378.218333,116.088 373.488333,113.766 371.338333,112.39 L370.736333,122.194 Z M443.865,124 L454.873,124 L454.873,63.972 L443.865,63.972 L443.865,124 Z M508.737667,124 L520.347667,124 L538.665667,63.972 L527.313667,63.972 L514.843667,110.24 L514.671667,110.24 L502.545667,63.972 L490.677667,63.972 L508.737667,124 Z M574.384333,124 L606.806333,124 L606.806333,115.228 L585.392333,115.228 L585.392333,97.512 L604.828333,97.512 L604.828333,88.74 L585.392333,88.74 L585.392333,72.744 L605.946333,72.744 L605.946333,63.972 L574.384333,63.972 L574.384333,124 Z M707.569667,92.094 L707.569667,72.4 L711.697667,72.4 C718.577667,72.4 721.587667,75.668 721.587667,82.204 C721.587667,88.74 718.577667,92.094 711.697667,92.094 L707.569667,92.094 Z M696.561667,124 L707.569667,124 L707.569667,100.522 L713.761667,100.522 C726.145667,100.522 732.595667,93.556 732.595667,82.204 C732.595667,70.852 726.145667,63.972 713.761667,63.972 L696.561667,63.972 L696.561667,124 Z M779.322333,93.986 C779.322333,77.474 784.912333,71.54 791.878333,71.54 C798.844333,71.54 804.434333,77.474 804.434333,93.986 C804.434333,110.498 798.844333,116.432 791.878333,116.432 C784.912333,116.432 779.322333,110.498 779.322333,93.986 Z M767.970333,93.986 C767.970333,115.572 779.408333,124.86 791.878333,124.86 C804.348333,124.86 815.786333,115.572 815.786333,93.986 C815.786333,72.4 804.348333,63.112 791.878333,63.112 C779.408333,63.112 767.970333,72.4 767.970333,93.986 Z M891.753,124 L904.911,124 L917.295,63.972 L907.319,63.972 L898.547,110.24 L898.375,110.24 L889.431,63.972 L876.015,63.972 L866.985,110.24 L866.813,110.24 L858.385,63.972 L848.065,63.972 L860.191,124 L873.177,124 L882.637,74.808 L882.809,74.808 L891.753,124 Z M953.529667,124 L985.951667,124 L985.951667,115.228 L964.537667,115.228 L964.537667,97.512 L983.973667,97.512 L983.973667,88.74 L964.537667,88.74 L964.537667,72.744 L985.091667,72.744 L985.091667,63.972 L953.529667,63.972 L953.529667,124 Z M1024.68033,124 L1035.68833,124 L1035.68833,98.2 L1038.18233,98.2 C1042.22433,98.2 1045.06233,99.748 1046.52433,104.478 L1052.45833,124 L1064.15433,124 L1056.32833,101.124 C1054.43633,95.534 1051.94233,94.502 1049.70633,94.158 L1049.70633,93.9 C1056.41433,92.868 1061.31633,87.622 1061.31633,79.796 C1061.31633,68.788 1054.09233,63.972 1043.42833,63.972 L1024.68033,63.972 L1024.68033,124 Z M1035.68833,90.116 L1035.68833,72.4 L1040.16033,72.4 C1046.35233,72.4 1049.96433,74.12 1049.96433,81 C1049.96433,87.106 1046.00833,90.116 1040.16033,90.116 L1035.68833,90.116 Z" id="INTENSIVEPOWER" fill="#FFFFFF" fill-rule="nonzero"></path>
            <g id="Group-6" transform="translate(95.000000, 70.000000)" fill="#E31F27">
                <polygon id="Fill-1" points="248 38 326 38 326 35 248 35"></polygon>
                <polygon id="Fill-2" points="0 3 48 3 48 0 0 0"></polygon>
                <polygon id="Fill-3" points="948 8 995 8 995 5 948 5"></polygon>
                <path d="M715.358799,40 L703.628029,40 L698,40 C698.696163,41.2092575 699.464511,42.2029894 700.29648,43 L703.628029,43 L713.061095,43 L775,43 L775,40 L715.358799,40 Z" id="Fill-4"></path>
            </g>
        </g>
    </g>
</svg>