<?xml version="1.0" encoding="UTF-8"?>
<svg width="192px" height="193px" viewBox="0 0 192 193" version="1.1" xmlns="http://www.w3.org/2000/svg" xmlns:xlink="http://www.w3.org/1999/xlink">
    <!-- Generator: Sketch 59.1 (86144) - https://sketch.com -->
    <title>Group</title>
    <desc>Created with Sketch.</desc>
    <g id="Page-1" stroke="none" stroke-width="1" fill="none" fill-rule="evenodd">
        <g id="Group">
            <ellipse id="Oval-Copy-2" fill="#000000" cx="95.8125557" cy="96.5" rx="95.8125557" ry="96.5"></ellipse>
            <polygon id="Path-6-Copy-6" fill="#E02129" fill-rule="nonzero" points="0.566087963 163.5 133.370421 163.5 133.370421 159.5 0.566087963 159.5"></polygon>
            <path d="M15.1984614,92 L18.3664614,92 L18.3664614,80.336 L27.1504614,80.336 L27.1504614,92 L30.3184614,92 L30.3184614,66.872 L27.1504614,66.872 L27.1504614,77.6 L18.3664614,77.6 L18.3664614,66.872 L15.1984614,66.872 L15.1984614,92 Z M41.545846,92 L44.713846,92 L44.713846,81.452 L52.237846,66.872 L48.745846,66.872 L43.165846,77.996 L37.621846,66.872 L34.021846,66.872 L41.545846,81.452 L41.545846,92 Z M55.5812307,92 L59.5052307,92 C68.9372307,92 72.3932307,86.312 72.3932307,79.04 C72.3932307,73.5194419 70.0921122,70.3686923 67.9052111,68.7826393 L67.7492307,68.672 C66.3092307,67.664 64.4012307,66.872 61.0532307,66.872 L55.5812307,66.872 L55.5812307,92 Z M58.7492307,69.608 L60.6572307,69.608 C66.8492307,69.608 69.0812307,73.784 69.0812307,79.04 C69.0812307,85.484 66.2012307,89.264 60.6572307,89.264 L58.7492307,89.264 L58.7492307,69.608 Z M77.3206153,92 L80.4886153,92 L80.4886153,80.624 L81.9286153,80.624 C84.3046153,80.624 85.2046153,81.416 85.9246153,83.504 L88.8046153,92 L92.2246153,92 L88.6966153,81.92 C88.1926153,80.48 87.4726153,79.76 85.9606153,79.472 L85.9606153,79.4 C89.6686153,78.608 90.9286153,76.052 90.9286153,73.388 C90.9286153,71.552 90.3526153,69.824 89.0566153,68.6 C87.9046153,67.52 86.4286153,66.872 83.7646153,66.872 L77.3206153,66.872 L77.3206153,92 Z M80.4886153,69.464 L83.0086153,69.464 C85.7806153,69.464 87.6166153,70.796 87.6166153,73.604 C87.6166153,75.8 86.3206153,78.032 82.9366153,78.032 L80.4886153,78.032 L80.4886153,69.464 Z M95.676,79.688 C95.676,87.464 99.24,92.252 104.82,92.252 C110.76,92.252 114.252,87.86 114.252,79.184 C114.252,71.408 110.688,66.62 105.108,66.62 C99.168,66.62 95.676,71.012 95.676,79.688 Z M98.9895774,79.9646659 L98.988,79.688 C98.988,71.948 101.796,69.212 105.108,69.212 C109.356,69.212 110.94,74.108 110.94,79.184 C110.94,86.924 108.132,89.66 104.82,89.66 C100.649236,89.66 99.0464807,84.9404179 98.9895774,79.9646659 L98.9895774,79.9646659 Z M135.955385,78.176 L128.719385,78.176 L128.719385,80.912 L132.931385,80.912 L132.931385,88.832 C132.103385,89.264 130.807385,89.516 129.799385,89.516 C124.327385,89.516 121.735385,85.232 121.735385,78.752 C121.735385,72.632 125.479385,69.356 129.583385,69.356 C131.419385,69.356 133.543385,69.932 135.451385,70.904 L135.451385,67.736 C133.723385,66.908 131.707385,66.62 129.547385,66.62 C122.995385,66.62 118.423385,71.552 118.423385,79.4 C118.423385,86.204 121.771385,92.252 129.727385,92.252 C131.959385,92.252 134.479385,91.496 135.955385,90.956 L135.955385,78.176 Z M142.214769,92 L154.382769,92 L154.382769,89.264 L145.382769,89.264 L145.382769,80.336 L153.518769,80.336 L153.518769,77.6 L145.382769,77.6 L145.382769,69.608 L153.914769,69.608 L153.914769,66.872 L142.214769,66.872 L142.214769,92 Z M159.598154,92 L162.622154,92 L162.622154,71.408 L162.694154,71.408 L172.162154,92 L176.086154,92 L176.086154,66.872 L173.062154,66.872 L173.062154,87.608 L172.990154,87.608 L163.522154,66.872 L159.598154,66.872 L159.598154,92 Z M22.796769,128 L25.964769,128 L25.964769,102.872 L22.796769,102.872 L22.796769,128 Z M32.2241537,128 L35.2481537,128 L35.2481537,107.408 L35.3201537,107.408 L44.7881537,128 L48.7121537,128 L48.7121537,102.872 L45.6881537,102.872 L45.6881537,123.608 L45.6161537,123.608 L36.1481537,102.872 L32.2241537,102.872 L32.2241537,128 Z M68.286923,102.872 L59.862923,128 L63.030923,128 L65.046923,121.448 L74.622923,121.448 L76.638923,128 L79.950923,128 L71.742923,102.872 L68.286923,102.872 Z M65.910923,118.712 L69.870923,106.184 L69.942923,106.184 L73.794923,118.712 L65.910923,118.712 Z M97.9103077,124.328 C96.6143077,125.084 95.0303077,125.516 93.4103077,125.516 C87.9383077,125.516 85.3463077,121.232 85.3463077,114.752 C85.3463077,108.632 89.0903077,105.356 93.1943077,105.356 C94.9583077,105.356 96.5423077,105.752 97.9103077,106.616 L97.9103077,103.52 C96.7583077,102.944 94.9583077,102.62 93.1583077,102.62 C86.6063077,102.62 82.0343077,107.552 82.0343077,115.4 C82.0343077,122.204 85.3823077,128.252 93.3383077,128.252 C94.8143077,128.252 96.3983077,127.964 97.9103077,127.496 L97.9103077,124.328 Z M106.761692,128 L109.929692,128 L109.929692,105.608 L115.689692,105.608 L115.689692,102.872 L101.001692,102.872 L101.001692,105.608 L106.761692,105.608 L106.761692,128 Z M119.825077,128 L122.993077,128 L122.993077,102.872 L119.825077,102.872 L119.825077,128 Z M128.208462,115.688 C128.208462,123.464 131.772462,128.252 137.352462,128.252 C143.292462,128.252 146.784462,123.86 146.784462,115.184 C146.784462,107.408 143.220462,102.62 137.640462,102.62 C131.700462,102.62 128.208462,107.012 128.208462,115.688 Z M131.520462,115.688 C131.520462,107.948 134.328462,105.212 137.640462,105.212 C141.888462,105.212 143.472462,110.108 143.472462,115.184 C143.472462,122.924 140.664462,125.66 137.352462,125.66 C133.104462,125.66 131.520462,120.764 131.520462,115.688 Z M151.999846,128 L151.999846,102.872 L155.923846,102.872 L165.391846,123.608 L165.463846,123.608 L165.463846,102.872 L168.487846,102.872 L168.487846,128 L164.563846,128 L155.095846,107.408 L155.023846,107.408 L155.023846,128 L151.999846,128 Z" id="HYDROGENINACTION" fill="#FFFFFF" fill-rule="nonzero"></path>
        </g>
    </g>
</svg>