<?xml version="1.0" encoding="UTF-8"?>
<svg width="1095px" height="123px" viewBox="0 0 1095 123" version="1.1" xmlns="http://www.w3.org/2000/svg" xmlns:xlink="http://www.w3.org/1999/xlink">
    <!-- Generator: Sketch 59.1 (86144) - https://sketch.com -->
    <title>the hydrogen effect</title>
    <desc>Created with Sketch.</desc>
    <g id="Page-1" stroke="none" stroke-width="1" fill="none" fill-rule="evenodd">
        <g id="the-hydrogen-effect" transform="translate(-36.000000, -2.000000)">
            <path d="M559.975,23 L562.045,23 L562.045,3.86 L568.225,3.86 L568.225,2.06 L553.795,2.06 L553.795,3.86 L559.975,3.86 L559.975,23 Z M581.135,23 L583.205,23 L583.205,13.13 L593.795,13.13 L593.795,23 L595.865,23 L595.865,2.06 L593.795,2.06 L593.795,11.33 L583.205,11.33 L583.205,2.06 L581.135,2.06 L581.135,23 Z M611.085,23 L611.085,2.06 L621.345,2.06 L621.345,3.86 L613.155,3.86 L613.155,11.33 L620.925,11.33 L620.925,13.13 L613.155,13.13 L613.155,21.2 L621.705,21.2 L621.705,23 L611.085,23 Z" id="THE" fill="#FFFFFF" fill-rule="nonzero"></path>
            <path d="M36.504,124 L47.512,124 L47.512,97.512 L65.314,97.512 L65.314,124 L76.322,124 L76.322,63.972 L65.314,63.972 L65.314,88.396 L47.512,88.396 L47.512,63.972 L36.504,63.972 L36.504,124 Z M129.756667,124 L140.764667,124 L140.764667,100.178 L158.480667,63.972 L146.612667,63.972 L135.604667,87.966 L123.908667,63.972 L112.040667,63.972 L129.756667,99.92 L129.756667,124 Z M193.683333,124 L209.335333,124 C226.019333,124 238.059333,114.196 238.059333,93.986 C238.059333,74.12 228.083333,63.972 209.335333,63.972 L193.683333,63.972 L193.683333,124 Z M204.691333,72.4 L208.389333,72.4 C220.773333,72.4 226.363333,80.828 226.363333,93.986 C226.363333,107.144 220.773333,115.572 208.389333,115.572 L204.691333,115.572 L204.691333,72.4 Z M276.53,124 L287.538,124 L287.538,98.2 L290.032,98.2 C294.074,98.2 296.912,99.748 298.374,104.478 L304.308,124 L316.004,124 L308.178,101.124 C306.286,95.534 303.792,94.502 301.556,94.158 L301.556,93.9 C308.264,92.868 313.166,87.622 313.166,79.796 C313.166,68.788 305.942,63.972 295.278,63.972 L276.53,63.972 L276.53,124 Z M287.538,90.116 L287.538,72.4 L292.01,72.4 C298.202,72.4 301.814,74.12 301.814,81 C301.814,87.106 297.858,90.116 292.01,90.116 L287.538,90.116 Z M362.472667,93.986 C362.472667,77.474 368.062667,71.54 375.028667,71.54 C381.994667,71.54 387.584667,77.474 387.584667,93.986 C387.584667,110.498 381.994667,116.432 375.028667,116.432 C368.062667,116.432 362.472667,110.498 362.472667,93.986 Z M351.120667,93.986 C351.120667,115.572 362.558667,124.86 375.028667,124.86 C387.498667,124.86 398.936667,115.572 398.936667,93.986 C398.936667,72.4 387.498667,63.112 375.028667,63.112 C362.558667,63.112 351.120667,72.4 351.120667,93.986 Z M461.831333,98.802 L470.947333,98.802 L470.947333,114.97 C469.485333,115.572 467.163333,116.088 464.583333,116.088 C453.317333,116.088 447.211333,107.488 447.211333,93.986 C447.211333,81.516 453.489333,71.884 465.185333,71.884 C470.689333,71.884 475.505333,73.432 479.031333,75.582 L479.633333,65.692 L479.289405,65.5448588 C476.804171,64.5193488 471.573333,63.112 465.013333,63.112 C445.749333,63.112 435.515333,76.184 435.515333,93.986 C435.515333,111.788 445.749333,124.86 465.013333,124.86 C472.839333,124.86 478.171333,123.398 481.267333,121.764 L481.267333,90.374 L461.831333,90.374 L461.831333,98.802 Z M522.318,124 L554.74,124 L554.74,115.228 L533.326,115.228 L533.326,97.512 L552.762,97.512 L552.762,88.74 L533.326,88.74 L533.326,72.744 L553.88,72.744 L553.88,63.972 L522.318,63.972 L522.318,124 Z M593.898667,124 L603.874667,124 L603.874667,77.216 L604.046667,77.216 L623.912667,124 L637.070667,124 L637.070667,63.972 L627.094667,63.972 L627.094667,111.1 L626.922667,111.1 L606.970667,63.972 L593.898667,63.972 L593.898667,124 Z M729.406,124 L761.828,124 L761.828,115.228 L740.414,115.228 L740.414,97.512 L759.85,97.512 L759.85,88.74 L740.414,88.74 L740.414,72.744 L760.968,72.744 L760.968,63.972 L729.406,63.972 L729.406,124 Z M801.072667,124 L812.080667,124 L812.080667,97.856 L830.570667,97.856 L830.570667,89.084 L812.080667,89.084 L812.080667,72.744 L831.430667,72.744 L831.430667,63.972 L801.072667,63.972 L801.072667,124 Z M869.557333,124 L880.565333,124 L880.565333,97.856 L899.055333,97.856 L899.055333,89.084 L880.565333,89.084 L880.565333,72.744 L899.915333,72.744 L899.915333,63.972 L869.557333,63.972 L869.557333,124 Z M938.042,124 L970.464,124 L970.464,115.228 L949.05,115.228 L949.05,97.512 L968.486,97.512 L968.486,88.74 L949.05,88.74 L949.05,72.744 L969.604,72.744 L969.604,63.972 L938.042,63.972 L938.042,124 Z M1047.29067,112.648 C1044.79667,114.454 1041.27067,115.744 1035.93867,115.744 C1026.82267,115.744 1018.99667,109.552 1018.99667,93.986 C1018.99667,78.42 1026.82267,72.228 1035.93867,72.228 C1041.52867,72.228 1045.05467,74.378 1047.29067,75.496 L1047.89267,65.606 L1047.31243,65.3890284 C1044.86212,64.4981842 1040.18661,63.112 1034.56267,63.112 C1016.67467,63.112 1007.30067,76.442 1007.30067,93.986 C1007.30067,111.53 1016.67467,124.86 1034.90667,124.86 C1040.32467,124.86 1045.65667,123.914 1047.89267,122.71 L1047.29067,112.648 Z M1095.04933,124 L1095.04933,72.744 L1081.63333,72.744 L1081.63333,63.972 L1119.38733,63.972 L1119.38733,72.744 L1106.05733,72.744 L1106.05733,124 L1095.04933,124 Z" id="HYDROGENEFFECT" fill="#FFFFFF" fill-rule="nonzero"></path>
            <g id="Group-6" transform="translate(136.000000, 70.000000)" fill="#E31F27">
                <polygon id="Fill-1" points="248 38 326 38 326 35 248 35"></polygon>
                <polygon id="Fill-2" points="0 3 48 3 48 0 0 0"></polygon>
                <polygon id="Fill-3" points="948 8 995 8 995 5 948 5"></polygon>
                <path d="M715.358799,40 L703.628029,40 L698,40 C698.696163,41.2092575 699.464511,42.2029894 700.29648,43 L703.628029,43 L713.061095,43 L775,43 L775,40 L715.358799,40 Z" id="Fill-4"></path>
            </g>
        </g>
    </g>
</svg>