<?xml version="1.0" encoding="utf-8"?>
<!-- Generator: Adobe Illustrator 24.1.0, SVG Export Plug-In . SVG Version: 6.00 Build 0)  -->
<svg version="1.1" id="Layer_1" xmlns="http://www.w3.org/2000/svg" xmlns:xlink="http://www.w3.org/1999/xlink" x="0px" y="0px"
	 viewBox="0 0 40.5 40.5" style="enable-background:new 0 0 40.5 40.5;" xml:space="preserve">
<style type="text/css">
	.st0{fill:#FFFFFF;}
</style>
<g transform="translate(0,-952.36218)">
	<path class="st0" d="M39.4,953.5c-1.6-1.6-4.1-1.6-5.7,0L20.3,967L6.8,953.5c-1.6-1.6-4.1-1.6-5.7,0c-1.6,1.6-1.6,4.1,0,5.7
		l13.4,13.4L1.2,986.1c-1.6,1.6-1.6,4.1,0,5.7c1.6,1.6,4.1,1.6,5.7,0l13.4-13.4l13.4,13.4c1.6,1.6,4.1,1.6,5.7,0
		c1.6-1.6,1.6-4.1,0-5.7l-13.4-13.4l13.4-13.4C40.9,957.6,40.9,955.1,39.4,953.5L39.4,953.5z"/>
</g>
</svg>
