<?xml version="1.0" encoding="UTF-8"?>
<svg width="43px" height="32px" viewBox="0 0 43 32" version="1.1" xmlns="http://www.w3.org/2000/svg" xmlns:xlink="http://www.w3.org/1999/xlink">
    <title>Group 5</title>
    <g id="Page-1" stroke="none" stroke-width="1" fill="none" fill-rule="evenodd">
        <g id="GATED-LANDING-PAGE" transform="translate(-729.000000, -910.000000)" stroke="#E31F26">
            <g id="Group-5" transform="translate(730.000000, 911.000000)">
                <path d="M33.3888837,13.0786047 C32.4686512,13.0786047 31.6307442,13.2460465 31.2121395,13.4134884 C32.3005116,10.232093 36.1516744,6.54837209 38.8307442,5.37627907 L32.7191163,0.436744186 C26.1895814,5.04139535 22.2546977,11.487907 22.2546977,18.8553488 C22.2546977,25.7197674 26.8593488,29.6546512 31.9656279,29.6546512 C36.654,29.6546512 40.671907,25.7197674 40.671907,20.8646512 C40.671907,16.1762791 37.4074884,13.0786047 33.3888837,13.0786047 Z" id="Stroke-1"></path>
                <path d="M11.4830233,13.0786047 C10.5627907,13.0786047 9.72488372,13.2460465 9.30627907,13.4134884 C10.3946512,10.232093 14.245814,6.54837209 16.9248837,5.37627907 L10.8132558,0.436744186 C4.28372093,5.04139535 0.348837209,11.487907 0.348837209,18.8553488 C0.348837209,25.7197674 4.95348837,29.6546512 10.0597674,29.6546512 C14.7481395,29.6546512 18.7660465,25.7197674 18.7660465,20.8646512 C18.7660465,16.1762791 15.5016279,13.0786047 11.4830233,13.0786047 Z" id="Stroke-3"></path>
            </g>
        </g>
    </g>
</svg>