<?xml version="1.0" encoding="UTF-8"?>
<svg width="128px" height="131px" viewBox="0 0 128 131" version="1.1" xmlns="http://www.w3.org/2000/svg" xmlns:xlink="http://www.w3.org/1999/xlink">
    <title>Group 7</title>
    <defs>
        <path d="M6.98181818,9.12910448 C6.98181818,13.5141791 10.5483636,17.0843284 14.9313939,17.0843284 L14.9313939,17.0843284 C16.7738182,17.0843284 18.4513939,16.4265672 19.8012121,15.3710448 L19.8012121,15.3710448 L28.4916364,24.0713433 L34.9129697,24.0713433 L34.9129697,36.1050746 L15.8060606,36.1050746 C15.3231515,32.1759701 12.0048485,29.1122388 7.95151515,29.1122388 L7.95151515,29.1122388 C3.56654545,29.1122388 0,32.6785075 0,37.0655224 L0,37.0655224 C0,41.4525373 3.56654545,45.0226866 7.95151515,45.0226866 L7.95151515,45.0226866 C11.9990303,45.0226866 15.3153939,41.9667164 15.8041212,38.0453731 L15.8041212,38.0453731 L34.9129697,38.0453731 L34.9129697,50.0752239 L28.4916364,50.0752239 L19.8050909,58.7619403 C18.4552727,57.7025373 16.777697,57.0467164 14.9313939,57.0467164 L14.9313939,57.0467164 C10.5483636,57.0467164 6.98181818,60.6149254 6.98181818,65.0019403 L6.98181818,65.0019403 C6.98181818,69.3870149 10.5483636,72.9571642 14.9313939,72.9571642 L14.9313939,72.9571642 C19.3163636,72.9571642 22.8829091,69.3870149 22.8829091,65.0019403 L22.8829091,65.0019403 C22.8829091,63.160597 22.2293333,61.4861194 21.1762424,60.1356716 L21.1762424,60.1356716 L29.2945455,52.0155224 L34.9129697,52.0155224 L34.9129697,58.0323881 C34.9129697,62.4174627 38.4775758,65.9856716 42.8625455,65.9856716 L42.8625455,65.9856716 L55.8526061,65.9856716 L55.8526061,72.0025373 C55.8526061,72.54 56.2870303,72.9746269 56.822303,72.9746269 L56.822303,72.9746269 C57.3595152,72.9746269 57.792,72.54 57.792,72.0025373 L57.792,72.0025373 L57.792,65.9856716 L62.8344242,65.9856716 L62.8344242,72.0025373 C62.8344242,72.54 63.2688485,72.9746269 63.8060606,72.9746269 L63.8060606,72.9746269 C64.3413333,72.9746269 64.7738182,72.54 64.7738182,72.0025373 L64.7738182,72.0025373 L64.7738182,65.9856716 L69.8162424,65.9856716 L69.8162424,72.0025373 C69.8162424,72.54 70.2506667,72.9746269 70.7859394,72.9746269 L70.7859394,72.9746269 C71.3231515,72.9746269 71.7575758,72.54 71.7575758,72.0025373 L71.7575758,72.0025373 L71.7575758,65.9856716 L84.7534545,65.9856716 C89.1384242,65.9856716 92.7069091,62.4174627 92.7069091,58.0323881 L92.7069091,58.0323881 L92.7069091,45.0304478 L98.7170909,45.0304478 C99.254303,45.0304478 99.6867879,44.5958209 99.6867879,44.0602985 L99.6867879,44.0602985 C99.6867879,43.5228358 99.254303,43.0901493 98.7170909,43.0901493 L98.7170909,43.0901493 L92.7069091,43.0901493 L92.7069091,38.0453731 L98.7170909,38.0453731 C99.254303,38.0453731 99.6867879,37.6107463 99.6867879,37.0752239 L99.6867879,37.0752239 C99.6867879,36.5377612 99.254303,36.1050746 98.7170909,36.1050746 L98.7170909,36.1050746 L92.7069091,36.1050746 L92.7069091,31.0602985 L98.7170909,31.0602985 C99.254303,31.0602985 99.6867879,30.6256716 99.6867879,30.0901493 L99.6867879,30.0901493 C99.6867879,29.5526866 99.254303,29.12 98.7170909,29.12 L98.7170909,29.12 L92.7069091,29.12 L92.7069091,16.12 C92.7069091,11.7349254 89.1384242,8.16477612 84.7534545,8.16477612 L84.7534545,8.16477612 L71.7575758,8.16477612 L71.7575758,2.14791045 C71.7575758,1.61238806 71.3231515,1.1758209 70.7859394,1.1758209 L70.7859394,1.1758209 C70.2506667,1.1758209 69.8162424,1.61238806 69.8162424,2.14791045 L69.8162424,2.14791045 L69.8162424,8.16477612 L64.7738182,8.16477612 L64.7738182,2.14791045 C64.7738182,1.61238806 64.3413333,1.1758209 63.8060606,1.1758209 L63.8060606,1.1758209 C63.2688485,1.1758209 62.8344242,1.61238806 62.8344242,2.14791045 L62.8344242,2.14791045 L62.8344242,8.16477612 L57.792,8.16477612 L57.792,2.14791045 C57.792,1.61238806 57.3595152,1.1758209 56.822303,1.1758209 L56.822303,1.1758209 C56.2870303,1.1758209 55.8526061,1.61238806 55.8526061,2.14791045 L55.8526061,2.14791045 L55.8526061,8.16477612 L42.8625455,8.16477612 C38.4775758,8.16477612 34.9129697,11.7349254 34.9129697,16.12 L34.9129697,16.12 L34.9129697,22.1310448 L29.2945455,22.1310448 L21.1723636,13.9992537 C22.2293333,12.6468657 22.8829091,10.9704478 22.8829091,9.12910448 L22.8829091,9.12910448 C22.8829091,4.74208955 19.3163636,1.1738806 14.9313939,1.1738806 L14.9313939,1.1738806 C10.5483636,1.1738806 6.98181818,4.74208955 6.98181818,9.12910448 M8.92121212,9.12910448 C8.92121212,5.81119403 11.6169697,3.11223881 14.9313939,3.11223881 L14.9313939,3.11223881 C18.2477576,3.11223881 20.9435152,5.81119403 20.9435152,9.12910448 L20.9435152,9.12910448 C20.9435152,12.4450746 18.2477576,15.1440299 14.9313939,15.1440299 L14.9313939,15.1440299 C11.6169697,15.1440299 8.92121212,12.4450746 8.92121212,9.12910448 M36.8523636,58.0323881 L36.8523636,16.12 C36.8523636,12.8040299 39.5481212,10.1050746 42.8625455,10.1050746 L42.8625455,10.1050746 L84.7534545,10.1050746 C88.0678788,10.1050746 90.7655758,12.8040299 90.7655758,16.12 L90.7655758,16.12 L90.7655758,58.0323881 C90.7655758,61.3464179 88.0678788,64.0453731 84.7534545,64.0453731 L84.7534545,64.0453731 L42.8625455,64.0453731 C39.5481212,64.0453731 36.8523636,61.3464179 36.8523636,58.0323881 M1.93939394,37.0655224 C1.93939394,33.7495522 4.63515152,31.0525373 7.95151515,31.0525373 L7.95151515,31.0525373 C11.2659394,31.0525373 13.9636364,33.7495522 13.9636364,37.0655224 L13.9636364,37.0655224 C13.9636364,40.3834328 11.2659394,43.0823881 7.95151515,43.0823881 L7.95151515,43.0823881 C4.63515152,43.0823881 1.93939394,40.3834328 1.93939394,37.0655224 M8.92121212,65.0019403 C8.92121212,61.6840299 11.6169697,58.9870149 14.9313939,58.9870149 L14.9313939,58.9870149 C18.2477576,58.9870149 20.9435152,61.6840299 20.9435152,65.0019403 L20.9435152,65.0019403 C20.9435152,68.3179104 18.2477576,71.0168657 14.9313939,71.0168657 L14.9313939,71.0168657 C11.6169697,71.0168657 8.92121212,68.3179104 8.92121212,65.0019403" id="path-1"></path>
        <linearGradient x1="23.6100564%" y1="19.5815795%" x2="70.3271512%" y2="77.8898695%" id="linearGradient-3">
            <stop stop-color="#64AFD1" offset="0%"></stop>
            <stop stop-color="#006487" offset="100%"></stop>
        </linearGradient>
        <path d="M16.1493333,0.401641791 C15.6761212,0.401641791 15.2727273,0.745074627 15.1932121,1.21268657 L15.1932121,1.21268657 L12.6584242,16.3586567 C8.96581818,17.4277612 5.40121212,18.9256716 2.05381818,20.8116418 L2.05381818,20.8116418 C1.58642424,21.0735821 1.41963636,21.6653731 1.68339394,22.1310448 L1.68339394,22.1310448 C1.94715152,22.5967164 2.54060606,22.7655224 3.00606061,22.5016418 L3.00606061,22.5016418 C6.39612121,20.5904478 10.0189091,19.0983582 13.7716364,18.0583582 L13.7716364,18.0583582 C14.134303,17.959403 14.4058182,17.6567164 14.4678788,17.2841791 L14.4678788,17.2841791 L16.9716364,2.3419403 L36.3733333,2.3419403 L38.8770909,17.2861194 C38.9391515,17.6586567 39.2087273,17.9613433 39.5752727,18.0622388 L39.5752727,18.0622388 C43.3260606,19.1002985 46.9469091,20.5943284 50.3389091,22.5055224 L50.3389091,22.5055224 C50.6666667,22.6898507 51.072,22.6665672 51.3745455,22.451194 L51.3745455,22.451194 L63.7653333,13.6422388 L77.4807273,27.3 L68.6370909,39.6286567 C68.416,39.9352239 68.3946667,40.3446269 68.5827879,40.6725373 L68.5827879,40.6725373 C70.5008485,44.050597 72.0019394,47.6576119 73.0414545,51.3907463 L73.0414545,51.3907463 C73.142303,51.7555224 73.4448485,52.0252239 73.8172121,52.0892537 L73.8172121,52.0892537 L88.8261818,54.5786567 L88.8261818,73.8885075 L73.8152727,76.3798507 C73.4429091,76.4438806 73.142303,76.7135821 73.0395152,77.0783582 L73.0395152,77.0783582 C71.9980606,80.8134328 70.4969697,84.4185075 68.5769697,87.7946269 L68.5769697,87.7946269 C68.3907879,88.1244776 68.4121212,88.5319403 68.6332121,88.8404478 L68.6332121,88.8404478 L77.4749091,101.167164 L63.7575758,114.824925 L51.3687273,106.01403 C51.062303,105.796716 50.6569697,105.777313 50.3311515,105.961642 L50.3311515,105.961642 C46.9372121,107.870896 43.3144242,109.364925 39.5655758,110.401045 L39.5655758,110.401045 C39.2029091,110.50194 38.9313939,110.804627 38.8673939,111.177164 L38.8673939,111.177164 L36.3655758,126.119403 L16.9638788,126.119403 L14.4601212,111.175224 C14.3980606,110.802687 14.1284848,110.50194 13.7619394,110.399104 L13.7619394,110.399104 C10.0111515,109.362985 6.39030303,107.867015 2.99830303,105.957761 L2.99830303,105.957761 C2.53090909,105.69 1.93939394,105.858806 1.67757576,106.326418 L1.67757576,106.326418 C1.41575758,106.79209 1.58060606,107.383881 2.048,107.647761 L2.048,107.647761 C5.39539394,109.533731 8.96,111.029701 12.6487273,112.102687 L12.6487273,112.102687 L15.1873939,127.248657 C15.2649697,127.718209 15.6683636,128.059701 16.1435152,128.059701 L16.1435152,128.059701 L37.1859394,128.059701 C37.6610909,128.059701 38.0644848,127.718209 38.144,127.248657 L38.144,127.248657 L40.6787879,112.104627 C44.169697,111.091791 47.5500606,109.696716 50.7442424,107.950448 L50.7442424,107.950448 L63.2998788,116.881642 C63.6819394,117.155224 64.2113939,117.110597 64.5469091,116.776866 L64.5469091,116.776866 L79.4278788,101.960746 C79.7653333,101.625075 79.8099394,101.093433 79.5306667,100.705373 L79.5306667,100.705373 L70.5687273,88.2098507 C72.32,85.0335821 73.7202424,81.6710448 74.7384242,78.1959701 L74.7384242,78.1959701 L89.9549091,75.6677612 C90.422303,75.5920896 90.7655758,75.1865672 90.7655758,74.711194 L90.7655758,74.711194 L90.7655758,53.7559701 C90.7655758,53.280597 90.422303,52.8770149 89.9549091,52.799403 L89.9549091,52.799403 L74.7403636,50.2731343 C73.7241212,46.7980597 72.3238788,43.4355224 70.5726061,40.2592537 L70.5726061,40.2592537 L79.5364848,27.7598507 C79.8138182,27.3737313 79.7711515,26.8420896 79.4317576,26.5064179 L79.4317576,26.5064179 L64.5527273,11.6883582 C64.2191515,11.3546269 63.6916364,11.3138806 63.3076364,11.5855224 L63.3076364,11.5855224 L50.7500606,20.5147761 C47.5597576,18.7685075 44.1813333,17.3734328 40.6884848,16.360597 L40.6884848,16.360597 L38.1498182,1.21268657 C38.0722424,0.745074627 37.6688485,0.401641791 37.193697,0.401641791 L37.193697,0.401641791 L16.1493333,0.401641791 Z" id="path-4"></path>
        <linearGradient x1="27.8105532%" y1="4.6443035%" x2="62.0518029%" y2="89.549841%" id="linearGradient-6">
            <stop stop-color="#64AFD1" offset="0%"></stop>
            <stop stop-color="#006487" offset="100%"></stop>
        </linearGradient>
    </defs>
    <g id="Page-1" stroke="none" stroke-width="1" fill="none" fill-rule="evenodd">
        <g id="HOMEPAGE" transform="translate(-775.000000, -906.000000)">
            <g id="Group-9" transform="translate(250.000000, 690.000000)">
                <g id="Group-7" transform="translate(525.000000, 216.000000)">
                    <g id="Group-3" transform="translate(0.000000, 28.702836)">
                        <mask id="mask-2" fill="white">
                            <use xlink:href="#path-1"></use>
                        </mask>
                        <g id="Clip-2"></g>
                        <path d="M6.98181818,9.12910448 C6.98181818,13.5141791 10.5483636,17.0843284 14.9313939,17.0843284 L14.9313939,17.0843284 C16.7738182,17.0843284 18.4513939,16.4265672 19.8012121,15.3710448 L19.8012121,15.3710448 L28.4916364,24.0713433 L34.9129697,24.0713433 L34.9129697,36.1050746 L15.8060606,36.1050746 C15.3231515,32.1759701 12.0048485,29.1122388 7.95151515,29.1122388 L7.95151515,29.1122388 C3.56654545,29.1122388 0,32.6785075 0,37.0655224 L0,37.0655224 C0,41.4525373 3.56654545,45.0226866 7.95151515,45.0226866 L7.95151515,45.0226866 C11.9990303,45.0226866 15.3153939,41.9667164 15.8041212,38.0453731 L15.8041212,38.0453731 L34.9129697,38.0453731 L34.9129697,50.0752239 L28.4916364,50.0752239 L19.8050909,58.7619403 C18.4552727,57.7025373 16.777697,57.0467164 14.9313939,57.0467164 L14.9313939,57.0467164 C10.5483636,57.0467164 6.98181818,60.6149254 6.98181818,65.0019403 L6.98181818,65.0019403 C6.98181818,69.3870149 10.5483636,72.9571642 14.9313939,72.9571642 L14.9313939,72.9571642 C19.3163636,72.9571642 22.8829091,69.3870149 22.8829091,65.0019403 L22.8829091,65.0019403 C22.8829091,63.160597 22.2293333,61.4861194 21.1762424,60.1356716 L21.1762424,60.1356716 L29.2945455,52.0155224 L34.9129697,52.0155224 L34.9129697,58.0323881 C34.9129697,62.4174627 38.4775758,65.9856716 42.8625455,65.9856716 L42.8625455,65.9856716 L55.8526061,65.9856716 L55.8526061,72.0025373 C55.8526061,72.54 56.2870303,72.9746269 56.822303,72.9746269 L56.822303,72.9746269 C57.3595152,72.9746269 57.792,72.54 57.792,72.0025373 L57.792,72.0025373 L57.792,65.9856716 L62.8344242,65.9856716 L62.8344242,72.0025373 C62.8344242,72.54 63.2688485,72.9746269 63.8060606,72.9746269 L63.8060606,72.9746269 C64.3413333,72.9746269 64.7738182,72.54 64.7738182,72.0025373 L64.7738182,72.0025373 L64.7738182,65.9856716 L69.8162424,65.9856716 L69.8162424,72.0025373 C69.8162424,72.54 70.2506667,72.9746269 70.7859394,72.9746269 L70.7859394,72.9746269 C71.3231515,72.9746269 71.7575758,72.54 71.7575758,72.0025373 L71.7575758,72.0025373 L71.7575758,65.9856716 L84.7534545,65.9856716 C89.1384242,65.9856716 92.7069091,62.4174627 92.7069091,58.0323881 L92.7069091,58.0323881 L92.7069091,45.0304478 L98.7170909,45.0304478 C99.254303,45.0304478 99.6867879,44.5958209 99.6867879,44.0602985 L99.6867879,44.0602985 C99.6867879,43.5228358 99.254303,43.0901493 98.7170909,43.0901493 L98.7170909,43.0901493 L92.7069091,43.0901493 L92.7069091,38.0453731 L98.7170909,38.0453731 C99.254303,38.0453731 99.6867879,37.6107463 99.6867879,37.0752239 L99.6867879,37.0752239 C99.6867879,36.5377612 99.254303,36.1050746 98.7170909,36.1050746 L98.7170909,36.1050746 L92.7069091,36.1050746 L92.7069091,31.0602985 L98.7170909,31.0602985 C99.254303,31.0602985 99.6867879,30.6256716 99.6867879,30.0901493 L99.6867879,30.0901493 C99.6867879,29.5526866 99.254303,29.12 98.7170909,29.12 L98.7170909,29.12 L92.7069091,29.12 L92.7069091,16.12 C92.7069091,11.7349254 89.1384242,8.16477612 84.7534545,8.16477612 L84.7534545,8.16477612 L71.7575758,8.16477612 L71.7575758,2.14791045 C71.7575758,1.61238806 71.3231515,1.1758209 70.7859394,1.1758209 L70.7859394,1.1758209 C70.2506667,1.1758209 69.8162424,1.61238806 69.8162424,2.14791045 L69.8162424,2.14791045 L69.8162424,8.16477612 L64.7738182,8.16477612 L64.7738182,2.14791045 C64.7738182,1.61238806 64.3413333,1.1758209 63.8060606,1.1758209 L63.8060606,1.1758209 C63.2688485,1.1758209 62.8344242,1.61238806 62.8344242,2.14791045 L62.8344242,2.14791045 L62.8344242,8.16477612 L57.792,8.16477612 L57.792,2.14791045 C57.792,1.61238806 57.3595152,1.1758209 56.822303,1.1758209 L56.822303,1.1758209 C56.2870303,1.1758209 55.8526061,1.61238806 55.8526061,2.14791045 L55.8526061,2.14791045 L55.8526061,8.16477612 L42.8625455,8.16477612 C38.4775758,8.16477612 34.9129697,11.7349254 34.9129697,16.12 L34.9129697,16.12 L34.9129697,22.1310448 L29.2945455,22.1310448 L21.1723636,13.9992537 C22.2293333,12.6468657 22.8829091,10.9704478 22.8829091,9.12910448 L22.8829091,9.12910448 C22.8829091,4.74208955 19.3163636,1.1738806 14.9313939,1.1738806 L14.9313939,1.1738806 C10.5483636,1.1738806 6.98181818,4.74208955 6.98181818,9.12910448 M8.92121212,9.12910448 C8.92121212,5.81119403 11.6169697,3.11223881 14.9313939,3.11223881 L14.9313939,3.11223881 C18.2477576,3.11223881 20.9435152,5.81119403 20.9435152,9.12910448 L20.9435152,9.12910448 C20.9435152,12.4450746 18.2477576,15.1440299 14.9313939,15.1440299 L14.9313939,15.1440299 C11.6169697,15.1440299 8.92121212,12.4450746 8.92121212,9.12910448 M36.8523636,58.0323881 L36.8523636,16.12 C36.8523636,12.8040299 39.5481212,10.1050746 42.8625455,10.1050746 L42.8625455,10.1050746 L84.7534545,10.1050746 C88.0678788,10.1050746 90.7655758,12.8040299 90.7655758,16.12 L90.7655758,16.12 L90.7655758,58.0323881 C90.7655758,61.3464179 88.0678788,64.0453731 84.7534545,64.0453731 L84.7534545,64.0453731 L42.8625455,64.0453731 C39.5481212,64.0453731 36.8523636,61.3464179 36.8523636,58.0323881 M1.93939394,37.0655224 C1.93939394,33.7495522 4.63515152,31.0525373 7.95151515,31.0525373 L7.95151515,31.0525373 C11.2659394,31.0525373 13.9636364,33.7495522 13.9636364,37.0655224 L13.9636364,37.0655224 C13.9636364,40.3834328 11.2659394,43.0823881 7.95151515,43.0823881 L7.95151515,43.0823881 C4.63515152,43.0823881 1.93939394,40.3834328 1.93939394,37.0655224 M8.92121212,65.0019403 C8.92121212,61.6840299 11.6169697,58.9870149 14.9313939,58.9870149 L14.9313939,58.9870149 C18.2477576,58.9870149 20.9435152,61.6840299 20.9435152,65.0019403 L20.9435152,65.0019403 C20.9435152,68.3179104 18.2477576,71.0168657 14.9313939,71.0168657 L14.9313939,71.0168657 C11.6169697,71.0168657 8.92121212,68.3179104 8.92121212,65.0019403" id="Fill-1" fill="url(#linearGradient-3)" mask="url(#mask-2)"></path>
                    </g>
                    <g id="Group-6" transform="translate(36.848485, 1.538657)">
                        <mask id="mask-5" fill="white">
                            <use xlink:href="#path-4"></use>
                        </mask>
                        <g id="Clip-5"></g>
                        <path d="M16.1493333,0.401641791 C15.6761212,0.401641791 15.2727273,0.745074627 15.1932121,1.21268657 L15.1932121,1.21268657 L12.6584242,16.3586567 C8.96581818,17.4277612 5.40121212,18.9256716 2.05381818,20.8116418 L2.05381818,20.8116418 C1.58642424,21.0735821 1.41963636,21.6653731 1.68339394,22.1310448 L1.68339394,22.1310448 C1.94715152,22.5967164 2.54060606,22.7655224 3.00606061,22.5016418 L3.00606061,22.5016418 C6.39612121,20.5904478 10.0189091,19.0983582 13.7716364,18.0583582 L13.7716364,18.0583582 C14.134303,17.959403 14.4058182,17.6567164 14.4678788,17.2841791 L14.4678788,17.2841791 L16.9716364,2.3419403 L36.3733333,2.3419403 L38.8770909,17.2861194 C38.9391515,17.6586567 39.2087273,17.9613433 39.5752727,18.0622388 L39.5752727,18.0622388 C43.3260606,19.1002985 46.9469091,20.5943284 50.3389091,22.5055224 L50.3389091,22.5055224 C50.6666667,22.6898507 51.072,22.6665672 51.3745455,22.451194 L51.3745455,22.451194 L63.7653333,13.6422388 L77.4807273,27.3 L68.6370909,39.6286567 C68.416,39.9352239 68.3946667,40.3446269 68.5827879,40.6725373 L68.5827879,40.6725373 C70.5008485,44.050597 72.0019394,47.6576119 73.0414545,51.3907463 L73.0414545,51.3907463 C73.142303,51.7555224 73.4448485,52.0252239 73.8172121,52.0892537 L73.8172121,52.0892537 L88.8261818,54.5786567 L88.8261818,73.8885075 L73.8152727,76.3798507 C73.4429091,76.4438806 73.142303,76.7135821 73.0395152,77.0783582 L73.0395152,77.0783582 C71.9980606,80.8134328 70.4969697,84.4185075 68.5769697,87.7946269 L68.5769697,87.7946269 C68.3907879,88.1244776 68.4121212,88.5319403 68.6332121,88.8404478 L68.6332121,88.8404478 L77.4749091,101.167164 L63.7575758,114.824925 L51.3687273,106.01403 C51.062303,105.796716 50.6569697,105.777313 50.3311515,105.961642 L50.3311515,105.961642 C46.9372121,107.870896 43.3144242,109.364925 39.5655758,110.401045 L39.5655758,110.401045 C39.2029091,110.50194 38.9313939,110.804627 38.8673939,111.177164 L38.8673939,111.177164 L36.3655758,126.119403 L16.9638788,126.119403 L14.4601212,111.175224 C14.3980606,110.802687 14.1284848,110.50194 13.7619394,110.399104 L13.7619394,110.399104 C10.0111515,109.362985 6.39030303,107.867015 2.99830303,105.957761 L2.99830303,105.957761 C2.53090909,105.69 1.93939394,105.858806 1.67757576,106.326418 L1.67757576,106.326418 C1.41575758,106.79209 1.58060606,107.383881 2.048,107.647761 L2.048,107.647761 C5.39539394,109.533731 8.96,111.029701 12.6487273,112.102687 L12.6487273,112.102687 L15.1873939,127.248657 C15.2649697,127.718209 15.6683636,128.059701 16.1435152,128.059701 L16.1435152,128.059701 L37.1859394,128.059701 C37.6610909,128.059701 38.0644848,127.718209 38.144,127.248657 L38.144,127.248657 L40.6787879,112.104627 C44.169697,111.091791 47.5500606,109.696716 50.7442424,107.950448 L50.7442424,107.950448 L63.2998788,116.881642 C63.6819394,117.155224 64.2113939,117.110597 64.5469091,116.776866 L64.5469091,116.776866 L79.4278788,101.960746 C79.7653333,101.625075 79.8099394,101.093433 79.5306667,100.705373 L79.5306667,100.705373 L70.5687273,88.2098507 C72.32,85.0335821 73.7202424,81.6710448 74.7384242,78.1959701 L74.7384242,78.1959701 L89.9549091,75.6677612 C90.422303,75.5920896 90.7655758,75.1865672 90.7655758,74.711194 L90.7655758,74.711194 L90.7655758,53.7559701 C90.7655758,53.280597 90.422303,52.8770149 89.9549091,52.799403 L89.9549091,52.799403 L74.7403636,50.2731343 C73.7241212,46.7980597 72.3238788,43.4355224 70.5726061,40.2592537 L70.5726061,40.2592537 L79.5364848,27.7598507 C79.8138182,27.3737313 79.7711515,26.8420896 79.4317576,26.5064179 L79.4317576,26.5064179 L64.5527273,11.6883582 C64.2191515,11.3546269 63.6916364,11.3138806 63.3076364,11.5855224 L63.3076364,11.5855224 L50.7500606,20.5147761 C47.5597576,18.7685075 44.1813333,17.3734328 40.6884848,16.360597 L40.6884848,16.360597 L38.1498182,1.21268657 C38.0722424,0.745074627 37.6688485,0.401641791 37.193697,0.401641791 L37.193697,0.401641791 L16.1493333,0.401641791 Z" id="Fill-4" fill="url(#linearGradient-6)" mask="url(#mask-5)"></path>
                    </g>
                </g>
            </g>
        </g>
    </g>
</svg>