<?xml version="1.0" encoding="utf-8"?>
<!-- Generator: Adobe Illustrator 24.1.0, SVG Export Plug-In . SVG Version: 6.00 Build 0)  -->
<svg version="1.1" id="Layer_1" xmlns="http://www.w3.org/2000/svg" xmlns:xlink="http://www.w3.org/1999/xlink" x="0px" y="0px"
	 viewBox="0 0 157.6 158.2" style="enable-background:new 0 0 157.6 158.2;" xml:space="preserve">
<style type="text/css">
	.st0{fill:none;stroke:#CA001B;stroke-linecap:round;stroke-linejoin:round;}
</style>
<g id="Group_73" transform="translate(0.5 0.5)">
	<g id="Group_74" transform="translate(21.327 128.872)">
		<line id="Line_14" class="st0" x1="0" y1="0.2" x2="16.6" y2="0"/>
		<path id="Path_59" class="st0" d="M84.1,19.8c-4.4,1.6-8.9,2.8-13.5,3.7c-6.3,1.3-12.8,1.8-19.2,1.5c-6.6-0.2-13.1-1.4-19.3-3.5
			C19.8,17.2,9.7,8.6,0,0.2l0.2,15.9"/>
	</g>
	<path id="Path_60" class="st0" d="M12.7,117.7c-2.6-4.8-4.8-9.9-6.5-15.1C2,89.2,1.6,74.9,5.1,61.3c0.9-3.4,2.1-6.8,3.6-10"/>
	<circle id="Ellipse_26" class="st0" cx="23.8" cy="23.8" r="23.8"/>
	<circle id="Ellipse_27" class="st0" cx="132.8" cy="133.4" r="23.8"/>
	<path id="Path_61" class="st0" d="M62.6,81c0.7-3-0.1-4.9-2.5-6.7c-7.4-5.6-14.7-11.6-22-17.4c2.7-5.4,11.2-12.7,19.5-11.5
		c1.4,0,2.6,1.1,2.8,2.6c1.5,6.8,3.1,13.5,4.7,20.3c0,0.1,0.1,0.1,0.3,0.4c1.8-1.7,3.5-3.1,3-6.3c-1.3-8.6-2-17.3-3-25.9
		c-0.1-0.9-0.1-1.8-0.2-2.7c6.8-2.3,16.9,0.2,21.3,5.2c1.3,1.5,1.8,2.8,0.5,4.8c-3.9,6-7.5,12.2-11.3,18.4c3.6,1,4.4,0.8,6.4-2.1
		c5.6-7.9,11.3-15.8,17-23.8c6.4,4.4,11.7,9.4,12.2,17.7c0.2,3.3-0.1,3.8-3.3,4.7c-7,2.1-14,4.1-21.4,6.3c1.9,1.6,2.8,3.4,5.8,2.9
		c9.7-1.7,19.4-2.8,29.1-4.2c0.4,0,0.8,0,1.2,0c2.5,6.4,0.3,16.8-4.5,21.4c-1.6,1.6-3,2.1-5.2,0.7c-5.7-3.7-11.7-7.1-17.6-10.6
		c-0.7-0.4-1.4-0.8-2.1-1.2c-0.4,3,1,4.8,3.3,6.5c7.9,5.9,15.7,12.1,23.8,18.4c-5.1,6.4-10.3,11.8-19.1,11.6c-2-0.1-3.1-0.7-3.6-2.9
		c-1.6-7.4-3.5-14.8-5.4-22.5c-2.1,1.9-3,3.9-2.7,6.6c1.1,9.7,1.9,19.5,2.9,29.2c0,0.3,0,0.7-0.1,1c-7.5,1.3-14.7,1.1-20.8-4.3
		c-2.4-2.1-2.5-3-0.9-5.7c3.5-6.1,7.1-12.1,10.7-18.4c-2.6-0.3-4.4,0.2-6,2.4c-5.5,7.6-11.3,14.9-17.1,22.5
		c-5.9-4.3-10.6-9.2-11.5-16.8c-0.5-4.2,0-5.1,4-6.1c5.9-1.5,11.9-3,18-4.5c-1.1-1.7-2.3-2.5-4.2-2.3c-8.4,0.9-16.7,1.6-25.1,2.4
		c-1.6,0.1-3.1,0.2-4.6,0.3c-2.3-7.7,0.6-17.5,6.3-21.8c1-1.1,2.6-1.1,3.7-0.2C50.8,73.3,56.6,77.1,62.6,81 M77.8,84.4
		c3.5,0,6.4-2.8,6.5-6.3c-0.1-3.5-2.8-6.3-6.3-6.5c-3.5-0.1-6.5,2.7-6.6,6.2s2.7,6.5,6.2,6.6C77.7,84.4,77.8,84.4,77.8,84.4"/>
	<g id="Group_75" transform="translate(16.469 9.183)">
		<path id="Path_62" class="st0" d="M0,9.5c0-2.8,2.3-5.1,5.1-5.1h9.5"/>
		<path id="Path_63" class="st0" d="M0,24.8h9.5c2.8,0,5.1-2.3,5.1-5.1l0,0c0-2.8-2.3-5.1-5.1-5.1H5.1C2.3,14.6,0,12.3,0,9.5"/>
		<line id="Line_15" class="st0" x1="7.3" y1="0" x2="7.3" y2="4.4"/>
		<line id="Line_16" class="st0" x1="7.3" y1="24.8" x2="7.3" y2="29.1"/>
	</g>
	<path id="Path_64" class="st0" d="M139.2,117.5c-0.7,4.3-6.6,5.9-10.9,8.8c-4.3,3-7.1,8.5-3.7,13.2c3.4,4.8,10.1,3.7,14.5-2
		S143.5,124.5,139.2,117.5z"/>
	<path id="Path_65" class="st0" d="M136.2,126.7c-0.8,3-5,6.7-6.9,12.1c-1.1,3.2-1.6,6.7-1.4,10.1"/>
	<path id="Path_66" class="st0" d="M143.5,42.2c11.5,20,13.2,44.2,4.6,65.7"/>
	<path id="Path_67" class="st0" d="M52.2,8.9c29.5-10.8,62.5-2.2,83,21.6"/>
	<path id="Path_68" class="st0" d="M118.3,30.9l17.5,0.2l-1-17.2"/>
</g>
</svg>
