<?xml version="1.0" encoding="utf-8"?>
<!-- Generator: Adobe Illustrator 24.1.0, SVG Export Plug-In . SVG Version: 6.00 Build 0)  -->
<svg version="1.1" id="Layer_1" xmlns="http://www.w3.org/2000/svg" xmlns:xlink="http://www.w3.org/1999/xlink" x="0px" y="0px"
	 viewBox="0 0 159 168.3" style="enable-background:new 0 0 159 168.3;" xml:space="preserve">
<style type="text/css">
	.st0{fill:none;stroke:#CA001B;stroke-linecap:round;stroke-linejoin:round;}
</style>
<g id="Group_82" transform="translate(0.5 0.5)">
	<path id="Path_42" class="st0" d="M74.6,115.8V22.4L62.4,34.7v-16L80.2,0l18.2,18.9V34L86.2,22l0.4,74.4"/>
	<path id="Path_43" class="st0" d="M77,122.2c-1.2-3.7-2.7-7.4-4.4-10.9c-9.9-22.4-25.5-42.9-47.1-55.1l16.9-7.6l-15.1-5.8l-23.8,11
		L14.4,78l14.9,5.6l-6.9-16c3.6,2.2,7,4.7,10.2,7.3c12.7,10.4,21.3,23.4,28.7,38c1.7,3.4,3.4,6.9,4.9,10.4c2.9,6.4,5.2,13,6.9,19.8
		c0.2,0.6,0.3,1.2,0.4,1.9"/>
	<path id="Path_44" class="st0" d="M72.5,156.1c-2-2.8-4.2-5.5-6.6-8c-4.9-4.8-10.3-9.1-16.1-12.8c-5.6-3.5-11.4-6.4-17.6-8.7
		c-3.4-1.3-6.9-2.4-10.4-3.3l10.2,12H16.4L0,114.6l17.6-14.9h16.9l-14,12.4c5.2,1,10.3,2.3,15.3,4c5.8,1.9,11.3,4.4,16.7,7.3
		c5.9,3.3,11.4,7.3,16.4,11.8c1.1,1,3,2.9,3,2.9"/>
	<path id="Path_45" class="st0" d="M86.5,135.2c2.8-2.7,5.9-5.2,9-7.5c5.1-3.7,10.5-6.9,16.2-9.5c4.9-2.2,9.9-4.2,15-5.8
		c4-1.3,7.5-2.2,10.1-2.9l-15.1-13.1l16.9-1.3l19.3,17.3l-17.3,20.7l-15.1,0.4l10.4-13.2c-3,1-6.1,2.1-9.2,3.2
		c-6.4,2.4-12.5,5.2-18.4,8.6c-11.4,6.7-19.8,14.6-23.5,19"/>
	<path id="Path_46" class="st0" d="M84.4,165.8c-0.9,0.1-11.7,1.3-11.7,1.5c-0.1-8.1,0.3-16.2,1.1-24.2
		c2.9-27.7,13.3-54.9,32.4-75.5c5.2-5.6,11.5-9.9,18.1-13.7c2.5-1.4,4.6-2.5,6.1-3.2l-17.8-8.9L128,36l23.8,10.7l-10,24.4l-15,5.8
		l6.8-15.8c-2,1-3.9,2.1-5.8,3.3c-20.2,13.3-34.1,37.4-39.7,60.5c-1.4,6.2-2.3,12.5-2.8,18.8C84.7,151.1,84.5,158.4,84.4,165.8z"/>
</g>
</svg>
