<?xml version="1.0" encoding="utf-8"?>
<!-- Generator: Adobe Illustrator 23.0.4, SVG Export Plug-In . SVG Version: 6.00 Build 0)  -->
<svg version="1.1" id="Logo_1" xmlns="http://www.w3.org/2000/svg" xmlns:xlink="http://www.w3.org/1999/xlink" x="0px" y="0px"
	 viewBox="0 0 449.5 129.5" style="enable-background:new 0 0 449.5 129.5;" xml:space="preserve">
<style type="text/css">
	.st0{fill:#000810;}
	.st1{fill:#878A8F;}
	.st2{fill:#E52823;}
	.st3{fill:none;}
</style>
<g id="C_">
	<g>
		<path class="st0" d="M369.9,90.4c5.2,2.7,11,4.1,16.8,4c5.2,0,10.1-1.1,10.1-5.9c0-11.4-28.9-4.2-28.9-26.4
			c0-14.7,14.4-18.7,26.6-18.7c5.3-0.1,10.7,0.7,15.8,2.3l-1.1,12.6c-4.3-1.9-8.9-2.8-13.6-2.8c-4.1,0-10.9,0.3-10.9,5.7
			c0,9.9,28.9,3.2,28.9,25.3c0,15.8-13.3,20.1-26.9,20.1c-6.2,0-12.3-0.9-18.2-2.6L369.9,90.4z"/>
		<path class="st0" d="M312.6,44.3h19.4c18.6,0,27.4,6.3,27.4,20c0,12.3-9,19.7-24.2,19.7h-6.3v21.3h-16.3V44.3z M328.9,72.5h4.2
			c5.6,0,10.1-2,10.1-8.4c0-6.2-4.5-8.2-10.1-8.2h-4.2V72.5z"/>
		<polygon class="st0" points="247.1,44.3 263.4,44.3 263.4,67.7 282.6,67.7 282.6,44.3 298.9,44.3 298.9,105.4 282.6,105.4 
			282.6,79.3 263.4,79.3 263.4,105.4 247.1,105.4 		"/>
		<polygon class="st0" points="156,44.3 181.6,44.3 194.6,85 194.8,85 208.3,44.3 233,44.3 233,105.4 217.1,105.4 217.4,58.5 
			217.2,58.5 201.6,105.4 186.6,105.4 171.8,58.5 171.6,58.5 171.9,105.4 156,105.4 		"/>
	</g>
	<g>
		<polygon class="st1" points="95.3,24 95.3,55.1 85.8,55.1 85.8,24 65,24 61.2,59 60.7,59 56.8,24 36,24 36,105.5 48.7,105.5 
			48.7,48.9 49.3,48.9 56,105.5 65.8,105.5 72.6,48.9 73.2,48.9 73.2,105.5 85.8,105.5 85.8,64 95.3,64 95.3,105.5 108,105.5 
			108,24 		"/>
		<path class="st2" d="M134.2,61c2.1,0,2.2-0.7,0.1-1c-43.9-6.6-88.2,9.6-117.5,43c-1.5,1.7-0.9,2.2,0.8,0.8
			c14.7-12.2,31.3-22.1,49-29.2C88.1,65.8,111,61.2,134.2,61"/>
	</g>
	<rect class="st3" width="449.5" height="129.5"/>
</g>
</svg>
