<?xml version="1.0" encoding="utf-8"?>
<!-- Generator: Adobe Illustrator 24.1.0, SVG Export Plug-In . SVG Version: 6.00 Build 0)  -->
<svg version="1.1" id="Layer_1" xmlns="http://www.w3.org/2000/svg" xmlns:xlink="http://www.w3.org/1999/xlink" x="0px" y="0px"
	 viewBox="0 0 156 156.5" style="enable-background:new 0 0 156 156.5;" xml:space="preserve">
<style type="text/css">
	.st0{fill:none;stroke:#CA001B;stroke-linecap:round;stroke-linejoin:round;}
</style>
<g id="Group_85" transform="translate(0.548 0.554)">
	<path id="Path_40" class="st0" d="M56.4,128c-3.2-2.9-3.2-4.2-0.9-8.2c5.3-9.2,10.7-18.4,16.2-27.8c-4-0.5-6.7,0.4-9.1,3.7
		c-8.4,11.5-17.1,22.6-25.9,34.1c-8.9-6.5-16.1-14-17.4-25.5c-0.7-6.4,0.1-7.7,6-9.3c9-2.3,18-4.5,27.3-6.9
		c-1.7-2.6-3.5-3.8-6.4-3.5c-12.7,1.3-25.4,2.4-38,3.6c-2.4,0.2-4.7,0.3-7,0.5c-3.4-11.6,1-26.5,9.5-33.1c2-1.5,3.4-1.8,5.7-0.3
		c8.6,5.9,17.4,11.6,26.6,17.6 M96.5,113.1C94,101.8,91.1,90.7,88.3,79c-3.2,2.9-4.6,5.9-4.1,10.1c1.2,10.5,2.2,20.9,3.2,31.4
		 M128.7,77.8c-0.4,0.4-0.7,0.8-1.1,1.2c-2.4,2.4-4.5,3.1-7.9,1C111,74.4,102,69.3,93.1,64c-1.1-0.6-2.1-1.2-3.2-1.8
		c-0.6,4.6,1.5,7.3,5,9.9c8.1,6.1,16.2,12.4,24.3,18.7 M42.9,72.9c1-4.6-0.2-7.4-3.7-10.1C27.9,54.2,16.9,45.2,5.8,36.4
		C9.9,28.2,22.7,17.2,35.4,19c2.5,0.4,3.6,1.3,4.2,3.9c2.2,10.3,4.7,20.5,7.2,30.7c0,0.1,0.1,0.2,0.4,0.6c2.8-2.6,5.2-4.6,4.5-9.5
		c-1.9-13-3-26.2-4.5-39.3C47.1,4,47.1,2.6,47,1.3c10.4-3.5,25.7,0.3,32.3,7.9c2,2.3,2.7,4.2,0.8,7.2C74.2,25.6,68.6,35,62.9,44.3
		c5.4,1.6,6.6,1.2,9.7-3.2c8.5-12,17.1-23.9,25.8-36.2c9.7,6.7,17.7,14.2,18.6,26.8c0.3,5-0.2,5.7-5,7.1
		c-10.6,3.1-21.2,6.3-32.4,9.6c2.9,2.4,4.3,5.2,8.8,4.4c14.6-2.5,29.4-4.3,44.1-6.4c0.6,0,1.2,0,1.8,0c2.5,6.5,1.9,15.7-1.1,23.1
		 M66.2,78.1c5.3,0,9.6-4.2,9.9-9.5c-0.1-5.3-4.3-9.6-9.6-9.8c-5.3-0.2-9.8,4-10,9.4c-0.2,5.3,4,9.8,9.4,10
		C66,78.1,66.1,78.1,66.2,78.1"/>
	<g id="Group_71" transform="translate(43.825 69.75)">
		<path id="Path_41" class="st0" d="M101.4,24.1l9.7,9.7V0H77.4l9.7,9.7L46.4,50.5c-0.9,0.9-2.5,0.9-3.4,0c0,0,0,0,0,0l-8.3-8.3
			c-1.5-1.5-3.9-1.5-5.4,0c0,0,0,0,0,0L1.4,70c-1.9,1.9-1.9,5,0,7c0,0,0,0,0,0l7.3,7.3c1.9,1.9,5,1.9,7,0l17-17
			c0.9-0.9,2.4-0.9,3.4,0c0,0,0,0,0,0l8.3,8.3c1.5,1.5,3.9,1.5,5.4,0c0,0,0,0,0,0L101.4,24.1z"/>
	</g>
</g>
</svg>
