<?xml version="1.0" encoding="utf-8"?>
<!-- Generator: Adobe Illustrator 24.1.0, SVG Export Plug-In . SVG Version: 6.00 Build 0)  -->
<svg version="1.1" id="Layer_1" xmlns="http://www.w3.org/2000/svg" xmlns:xlink="http://www.w3.org/1999/xlink" x="0px" y="0px"
	 viewBox="0 0 163.2 163.2" style="enable-background:new 0 0 163.2 163.2;" xml:space="preserve">
<style type="text/css">
	.st0{fill:none;stroke:#CA001B;stroke-linecap:round;stroke-linejoin:round;}
	.st1{fill:none;stroke:#CA001B;stroke-linecap:round;stroke-linejoin:round;stroke-dasharray:1,2,1,2,1,2;}
</style>
<g id="Group_74" transform="translate(-926.514 -27.564)">
	<path id="Path_69" class="st0" d="M1021.6,33.8c10.9,1.9,21.2,6.2,30.2,12.5"/>
	<path id="Path_70" class="st0" d="M1070.9,152.9c6.3-9,10.6-19.4,12.5-30.2"/>
	<path id="Path_71" class="st0" d="M964.4,172c9,6.3,19.4,10.6,30.2,12.5"/>
	<path id="Path_72" class="st0" d="M932.7,95.6c1.9-10.9,6.2-21.2,12.5-30.2"/>
	<path id="Path_73" class="st0" d="M964.4,46.3c9-6.3,19.4-10.6,30.2-12.5"/>
	<path id="Path_74" class="st0" d="M932.7,122.7c1.9,10.9,6.2,21.2,12.5,30.2"/>
	<path id="Path_75" class="st0" d="M1021.6,184.5c10.9-1.9,21.2-6.2,30.2-12.5"/>
	<path id="Path_76" class="st0" d="M1070.9,65.4c6.3,9,10.6,19.4,12.5,30.2"/>
	<path id="Path_77" class="st0" d="M1089.2,122.7v-27h-14.9c-1.7-8.5-5.1-16.5-9.8-23.7l10.5-10.5l-19.1-19.1l-10.6,10.5
		c-7.2-4.8-15.3-8.1-23.7-9.8V28.1h-27V43c-8.5,1.7-16.5,5.1-23.7,9.8l-10.6-10.5l-19.1,19.1l10.5,10.5c-4.8,7.2-8.1,15.3-9.8,23.7
		H927v27h14.9c1.7,8.5,5.1,16.5,9.8,23.7l-10.5,10.5l19.1,19.1l10.5-10.5c7.2,4.8,15.3,8.1,23.7,9.8v14.9h27v-14.9
		c8.5-1.7,16.5-5.1,23.7-9.8l10.5,10.5l19.1-19.1l-10.5-10.5c4.8-7.2,8.1-15.3,9.8-23.7L1089.2,122.7z"/>
	<circle id="Ellipse_28" class="st0" cx="1008.1" cy="109.1" r="54.1"/>
	<path id="Path_78" class="st0" d="M963,109.1c0-24.9,20.2-45,45-45"/>
	<path id="Path_79" class="st0" d="M1053.1,109.1c0,24.9-20.2,45-45,45"/>
	<path id="Path_80" class="st1" d="M1008.1,154.2c-24.9,0-45-20.2-45-45"/>
	<circle id="Ellipse_29" class="st0" cx="1008.1" cy="109.1" r="4.5"/>
	<line id="Line_17" class="st0" x1="1008.1" y1="75.4" x2="1008.1" y2="104.6"/>
</g>
</svg>
