<?xml version="1.0" encoding="UTF-8"?>
<svg width="171px" height="144px" viewBox="0 0 171 144" version="1.1" xmlns="http://www.w3.org/2000/svg" xmlns:xlink="http://www.w3.org/1999/xlink">
    <g id="Page-1" stroke="none" stroke-width="1" fill="none" fill-rule="evenodd">
        <g id="MHPS_Desktop--2" transform="translate(-1060.000000, -1143.000000)">
            <g id="Group-5" transform="translate(1060.000000, 1143.000000)">
                <path d="M46.5209098,12.8557232 C17.5209098,12.8557232 14.5209098,48.8557232 14.5209098,72.0557232 C14.5209098,95.2557232 17.5209098,131.255723 46.5209098,131.255723 C75.5209098,131.255723 78.5209098,95.2557232 78.5209098,72.0557232 C78.5209098,48.8557232 75.5209098,12.8557232 46.5209098,12.8557232 Z M46.5209098,0.8557232 C83.7209098,0.8557232 92.3209098,39.4557232 92.3209098,72.0557232 C92.3209098,101.255723 86.3209098,143.255723 46.5209098,143.255723 C6.72090985,143.255723 0.72090985,101.255723 0.72090985,72.0557232 C0.72090985,39.4557232 9.32090985,0.8557232 46.5209098,0.8557232 Z M126.72091,28.6557232 L158.32091,2.2557232 L170.72091,2.2557232 L170.72091,141.855723 L156.92091,141.855723 L156.92091,17.8557232 L134.32091,37.6557232 L126.72091,28.6557232 Z" id="01" fill="#BBBCBC"></path>
                <path d="M51.4548942,49.1289062 L102.12091,49.1289062" id="Path-Copy-2" stroke="#D6001C" stroke-width="3"></path>
            </g>
        </g>
    </g>
</svg>