<?xml version="1.0" encoding="UTF-8"?>
<svg width="216px" height="144px" viewBox="0 0 216 144" version="1.1" xmlns="http://www.w3.org/2000/svg" xmlns:xlink="http://www.w3.org/1999/xlink">
    <g id="Page-1" stroke="none" stroke-width="1" fill="none" fill-rule="evenodd">
        <g id="MHPS_Desktop--2" transform="translate(-172.000000, -1598.000000)">
            <g id="Group" transform="translate(172.000000, 1598.000000)">
                <path d="M65.9,12.875 C36.9,12.875 33.9,48.875 33.9,72.075 C33.9,95.275 36.9,131.275 65.9,131.275 C94.9,131.275 97.9,95.275 97.9,72.075 C97.9,48.875 94.9,12.875 65.9,12.875 Z M65.9,0.875 C103.1,0.875 111.7,39.475 111.7,72.075 C111.7,101.275 105.7,143.275 65.9,143.275 C26.1,143.275 20.1,101.275 20.1,72.075 C20.1,39.475 28.7,0.875 65.9,0.875 Z M131.5,141.875 L131.5,129.875 L163.5,94.475 C180.3,75.875 197.1,55.075 197.1,38.075 C197.1,23.275 186.3,12.875 172.5,12.875 C159.9,12.875 149.9,16.475 138.9,22.875 L136.5,10.275 C146.7,5.275 160.3,0.875 171.7,0.875 C194.3,0.875 212.1,12.275 212.1,37.475 C212.1,58.275 191.7,82.475 173.7,102.275 L148.5,129.875 L215.3,129.875 L215.3,141.875 L131.5,141.875 Z" id="02" fill="#BBBCBC"></path>
                <path d="M0.634765625,62.6953125 L51.3007813,62.6953125" id="Path-Copy-3" stroke="#D6001C" stroke-width="3"></path>
            </g>
        </g>
    </g>
</svg>