<?xml version="1.0" encoding="UTF-8"?>
<svg width="197px" height="144px" viewBox="0 0 197 144" version="1.1" xmlns="http://www.w3.org/2000/svg" xmlns:xlink="http://www.w3.org/1999/xlink">
    <g id="Page-1" stroke="none" stroke-width="1" fill="none" fill-rule="evenodd">
        <g id="MHPS_Desktop--2" transform="translate(-1060.000000, -2068.000000)">
            <g id="Group-2" transform="translate(1060.000000, 2068.000000)">
                <path d="M46.5209098,12.809128 C17.5209098,12.809128 14.5209098,48.809128 14.5209098,72.009128 C14.5209098,95.209128 17.5209098,131.209128 46.5209098,131.209128 C75.5209098,131.209128 78.5209098,95.209128 78.5209098,72.009128 C78.5209098,48.809128 75.5209098,12.809128 46.5209098,12.809128 Z M46.5209098,0.809128037 C83.7209098,0.809128037 92.3209098,39.409128 92.3209098,72.009128 C92.3209098,101.209128 86.3209098,143.209128 46.5209098,143.209128 C6.72090985,143.209128 0.72090985,101.209128 0.72090985,72.009128 C0.72090985,39.409128 9.32090985,0.809128037 46.5209098,0.809128037 Z M132.12091,75.409128 L132.12091,63.409128 L135.72091,63.409128 C154.72091,63.409128 183.12091,61.409128 183.12091,35.409128 C183.12091,19.809128 166.12091,12.809128 151.12091,12.809128 C140.12091,12.809128 129.72091,15.609128 119.92091,20.209128 L118.72091,7.20912804 C128.92091,3.40912804 140.92091,0.809128037 152.52091,0.809128037 C175.52091,0.809128037 196.92091,10.609128 196.92091,35.409128 C196.92091,52.409128 184.92091,64.609128 167.92091,68.809128 L167.92091,69.209128 C186.52091,70.009128 196.92091,84.409128 196.92091,103.009128 C196.92091,128.409128 174.52091,143.209128 146.52091,143.209128 C134.52091,143.209128 123.32091,141.809128 112.12091,137.609128 L113.72091,124.409128 C125.12091,129.809128 137.32091,131.209128 147.32091,131.209128 C164.12091,131.209128 183.12091,123.009128 183.12091,101.809128 C183.12091,77.809128 159.92091,75.409128 144.92091,75.409128 L132.12091,75.409128 Z" id="03" fill="#BBBCBC"></path>
                <path d="M63.5527344,47.1949405 L158.046875,47.1949405" id="Path-Copy-4" stroke="#D6001C" stroke-width="3"></path>
            </g>
        </g>
    </g>
</svg>