<?xml version="1.0" encoding="UTF-8"?>
<svg width="219px" height="143px" viewBox="0 0 219 143" version="1.1" xmlns="http://www.w3.org/2000/svg" xmlns:xlink="http://www.w3.org/1999/xlink">
    <g id="Page-1" stroke="none" stroke-width="1" fill="none" fill-rule="evenodd">
        <g id="MHPS_Desktop--2" transform="translate(-172.000000, -2520.000000)">
            <g id="Group-3" transform="translate(172.000000, 2520.000000)">
                <path d="M57.4,12.1226786 C28.4,12.1226786 25.4,48.1226786 25.4,71.3226786 C25.4,94.5226786 28.4,130.522679 57.4,130.522679 C86.4,130.522679 89.4,94.5226786 89.4,71.3226786 C89.4,48.1226786 86.4,12.1226786 57.4,12.1226786 Z M57.4,0.122678601 C94.6,0.122678601 103.2,38.7226786 103.2,71.3226786 C103.2,100.522679 97.2,142.522679 57.4,142.522679 C17.6,142.522679 11.6,100.522679 11.6,71.3226786 C11.6,38.7226786 20.2,0.122678601 57.4,0.122678601 Z M184.2,96.9226786 L184.2,15.3226786 L183.8,15.3226786 L130.2,96.9226786 L184.2,96.9226786 Z M117.6,108.922679 L117.6,95.3226786 L180.4,1.5226786 L198,1.5226786 L198,96.9226786 L218.6,96.9226786 L218.6,108.922679 L198,108.922679 L198,141.122679 L184.2,141.122679 L184.2,108.922679 L117.6,108.922679 Z" id="04" fill="#BBBCBC"></path>
                <path d="M0.634765625,99.2281474 L75.25,99.2281474" id="Path-Copy-5" stroke="#D6001C" stroke-width="3"></path>
            </g>
        </g>
    </g>
</svg>