<?xml version="1.0" encoding="UTF-8"?>
<svg width="200px" height="144px" viewBox="0 0 200 144" version="1.1" xmlns="http://www.w3.org/2000/svg" xmlns:xlink="http://www.w3.org/1999/xlink">
    <g id="Page-1" stroke="none" stroke-width="1" fill="none" fill-rule="evenodd">
        <g id="MHPS_Desktop--2" transform="translate(-1060.000000, -3024.000000)">
            <g id="Group-6" transform="translate(1060.000000, 3024.000000)">
                <path d="M46.5209098,12.875 C17.5209098,12.875 14.5209098,48.875 14.5209098,72.075 C14.5209098,95.275 17.5209098,131.275 46.5209098,131.275 C75.5209098,131.275 78.5209098,95.275 78.5209098,72.075 C78.5209098,48.875 75.5209098,12.875 46.5209098,12.875 Z M46.5209098,0.875 C83.7209098,0.875 92.3209098,39.475 92.3209098,72.075 C92.3209098,101.275 86.3209098,143.275 46.5209098,143.275 C6.72090985,143.275 0.72090985,101.275 0.72090985,72.075 C0.72090985,39.475 9.32090985,0.875 46.5209098,0.875 Z M193.72091,2.275 L193.72091,14.275 L135.92091,14.275 L134.92091,59.075 C139.52091,57.475 145.32091,56.075 156.12091,56.075 C183.12091,56.075 199.92091,71.275 199.92091,96.875 C199.92091,127.675 178.92091,143.275 149.12091,143.275 C139.12091,143.275 128.72091,141.875 119.32091,138.275 L119.32091,124.075 C128.12091,128.875 139.32091,131.275 149.12091,131.275 C167.32091,131.275 186.12091,121.475 186.12091,99.675 C186.12091,78.075 174.72091,68.075 151.12091,68.075 C139.32091,68.075 131.12091,69.475 120.92091,72.475 L122.32091,2.275 L193.72091,2.275 Z" id="05" fill="#BBBCBC"></path>
                <path d="M63.5527344,40.34375 L134.652344,40.34375" id="Path-Copy-6" stroke="#D6001C" stroke-width="3"></path>
            </g>
        </g>
    </g>
</svg>