<svg id="c13365c5-fcf7-4c08-adc6-15ee0facdc66" data-name="c3eabb2d-fcd7-4a01-9827-cd3399c1c916" xmlns="http://www.w3.org/2000/svg" xmlns:xlink="http://www.w3.org/1999/xlink" viewBox="0 0 243.73 204.45"><defs><linearGradient id="b5df82b2-0be9-4952-913f-a71c0ca3ed87" x1="134.54" y1="196.67" x2="34.48" y2="106.85" gradientTransform="matrix(1, 0, 0, -1, 0, 206)" gradientUnits="userSpaceOnUse"><stop offset="0" stop-color="#b2b4b5"/><stop offset="1" stop-color="#e6e7e8"/></linearGradient><linearGradient id="48170a4d-1894-4a35-8c85-bf5a6149b697" x1="111.24" y1="173.64" x2="210.98" y2="105.32" gradientTransform="matrix(1, 0, 0, -1, 0, 206)" gradientUnits="userSpaceOnUse"><stop offset="0" stop-color="#e52723"/><stop offset="1" stop-color="#670000"/></linearGradient><linearGradient id="988d0168-95f0-4df3-841d-6a8366ef6d17" x1="33.3" y1="122.02" x2="209.85" y2="122.02" gradientTransform="matrix(1, 0, 0, -1, 0, 206)" gradientUnits="userSpaceOnUse"><stop offset="0" stop-color="#474c55"/><stop offset="1" stop-color="#9f9ca2"/></linearGradient></defs><polygon points="120.89 5.59 40.11 97.52 91.92 63.57 120.89 5.59" fill="url(#b5df82b2-0be9-4952-913f-a71c0ca3ed87)"/><polygon points="126.4 0 94.57 63.69 206.37 101 126.4 0" fill="url(#48170a4d-1894-4a35-8c85-bf5a6149b697)"/><polygon points="93.03 65.74 37.36 102.23 202.38 102.23 93.03 65.74" fill="url(#988d0168-95f0-4df3-841d-6a8366ef6d17)"/><path d="M0,179.05H8L14,198H14L20,179.05h8v25H23.18v-20.6h-.07L16.38,204H11.59l-6.73-20.6-.07.07V204H0Z" fill="#fff"/><path d="M33.33,179.05h5v10.09h10V179.05h5v25h-5V193.08h-10V204h-5Z" fill="#fff"/><path d="M58.09,179.05h6.33c5.44,0,10.41,1.58,10.41,7.55s-4.25,7.94-9.62,7.94H63.1V204h-5Zm5,11.56h1.75c2.5,0,4.76-.82,4.76-3.72s-2.18-3.9-4.76-3.9H63.1Z" fill="#fff"/><path d="M91.37,183.63a13,13,0,0,0-5.08-1.07c-1.72,0-3.93.75-3.93,3.47,0,4.33,10.94,2.5,10.94,10.87,0,5.48-4.33,7.55-9.37,7.55a22,22,0,0,1-6.4-1L78,199a12,12,0,0,0,5.65,1.54c1.9,0,4.43-1,4.43-3.22,0-4.76-10.94-2.79-10.94-11.06,0-5.58,4.33-7.62,8.73-7.62a18.92,18.92,0,0,1,6,.9Z" fill="#fff"/><path d="M98,194.51v-3.93h9.41v3.93Z" fill="#fff"/><path d="M113.44,183h-7.16v-3.94H125.6V183h-7.16v21h-5Z" fill="#fff"/><path d="M138.69,178.62c7.83,0,12.23,5.3,12.23,12.85s-4.33,13-12.23,13-12.24-5.33-12.24-13S130.75,178.62,138.69,178.62Zm0,21.9c5.11,0,7-4.55,7-9.05s-2-8.91-7-8.91-7,4.51-7,8.91,1.89,9.05,7,9.05Z" fill="#fff"/><path d="M154.42,179.05h8L168.37,198h.07l5.94-18.93h8v25H177.6v-20.6h-.07L170.8,204H166l-6.73-20.6-.07.07V204h-4.79Z" fill="#fff"/><path d="M198,178.62c7.83,0,12.23,5.3,12.23,12.85s-4.33,13-12.23,13-12.24-5.33-12.24-13S190.09,178.62,198,178.62Zm0,21.9c5.11,0,7-4.55,7-9.05s-2-8.91-7-8.91-7,4.51-7,8.91,1.9,9.05,7,9.05Z" fill="#fff"/><path d="M213.18,179.05h6.15l9.52,18.68h.07V179.05h4.79v25H227.6l-9.55-18.67H218V204h-4.8Z" fill="#fff"/><path d="M238.72,179.05h5v25h-5Z" fill="#fff"/><path d="M44.1,152.93h4.28c4.31,0,7.74,2.66,7.74,7.13,0,4.87-2.95,7.38-7.74,7.38H44.1Zm2.08,12.68h2.18c3.58,0,5.55-1.72,5.55-5.47a5.05,5.05,0,0,0-4.72-5.38h-3Z" fill="#fff"/><path d="M61.23,154.46H59v-2.2h2.2Zm-2.08,2.37h2v10.6h-2Z" fill="#fff"/><path d="M74.19,167c0,3.22-1.66,5.07-5.47,5.07a10.78,10.78,0,0,1-3.8-.73l.21-1.81a8.12,8.12,0,0,0,3.83,1c2.06,0,3.28-1.4,3.28-3.64v-1h0a4.42,4.42,0,0,1-3.56,1.64c-3,0-4.53-2.47-4.53-5.22s1.54-5.63,4.74-5.63c1.87,0,2.91.68,3.5,1.83h0v-1.58H74.2Zm-2-4.73c0-2.19-1-4.1-3.1-4.1s-3,2.15-3,4c0,2,1.12,3.74,3,3.74S72.24,164.24,72.24,162.26Z" fill="#fff"/><path d="M79.71,154.47h-2.2v-2.2h2.2Zm-2.08,2.37h2v10.6h-2Z" fill="#fff"/><path d="M88.89,158.42H86.08v5.8a1.69,1.69,0,0,0,1.46,1.88h.19a2.41,2.41,0,0,0,1.33-.37v1.66a6.29,6.29,0,0,1-1.67.29c-2,0-3.26-1-3.26-3.08v-6.2H81.74v-1.58h2.39v-2.45l2-.62v3.07h2.81Z" fill="#fff"/><path d="M92.1,157.59a6.64,6.64,0,0,1,3.49-1c3,0,4.27,1.5,4.27,4.38v4.39a16,16,0,0,0,.08,2.08H98.11v-1.37h0a3.91,3.91,0,0,1-3.29,1.62c-2.29,0-3.89-1-3.89-3.3,0-2.67,2.92-3.5,4.93-3.5.77,0,1.31,0,2.08,0,0-1.83-.66-2.76-2.62-2.76a4.94,4.94,0,0,0-3.08,1.08Zm5.8,4.8c-.42,0-.83,0-1.25,0-1.06,0-3.68.17-3.68,2a1.88,1.88,0,0,0,2,1.73,2.67,2.67,0,0,0,3-2.79Z" fill="#fff"/><path d="M103.11,151.85h2v15.6h-2Z" fill="#fff"/><path d="M121,155.11a6.46,6.46,0,0,0-2.73-.6c-1.16,0-2.53.42-2.53,1.94,0,2.78,6.23,2.14,6.23,6.92,0,3.1-2.39,4.33-5.3,4.33a10.06,10.06,0,0,1-3-.6l.21-1.94a9,9,0,0,0,3,.71c1.19,0,2.85-.67,2.85-2.37,0-3.25-6.24-2.35-6.24-6.86,0-2.58,2-3.95,4.66-3.95a9.59,9.59,0,0,1,3.1.51Z" fill="#fff"/><path d="M128.63,156.59a5.23,5.23,0,0,1,5.4,5.06c0,.16,0,.33,0,.49a5.4,5.4,0,0,1-10.79.42,2.94,2.94,0,0,1,0-.42,5.24,5.24,0,0,1,4.9-5.55Zm0,9.52c2.29,0,3.31-2.08,3.31-4s-1.23-4-3.31-4-3.32,2-3.32,4S126.33,166.11,128.63,166.11Z" fill="#fff"/><path d="M136.11,151.85h2v15.6h-2Z" fill="#fff"/><path d="M150.66,167.44h-1.9v-1.68h0a3.8,3.8,0,0,1-3.47,1.93c-2.74,0-4-1.7-4-4.55v-6.3h1.95v5.49c0,2.47.54,3.68,2.25,3.78,2.23,0,3.22-1.79,3.22-4.37v-4.9h2Z" fill="#fff"/><path d="M159.84,158.51H157v5.8a1.69,1.69,0,0,0,1.46,1.88h.18a2.34,2.34,0,0,0,1.33-.38v1.67a6.29,6.29,0,0,1-1.66.29c-2,0-3.27-1-3.27-3.08v-6.2h-2.39v-1.58h2.39v-2.45l2-.63v3.08h2.81Z" fill="#fff"/><path d="M165,154.47h-2.2v-2.2H165Zm-2.08,2.37h2v10.6h-2Z" fill="#fff"/><path d="M173,156.59a5.22,5.22,0,0,1,5.39,5.06,4,4,0,0,1,0,.49,5.4,5.4,0,0,1-10.8.42v-.42a5.24,5.24,0,0,1,4.91-5.55Zm0,9.52c2.29,0,3.31-2.08,3.31-4s-1.23-4-3.31-4-3.33,2-3.33,4S170.69,166.11,173,166.11Z" fill="#fff"/><path d="M180.92,156.84h1.9v1.68h0a3.8,3.8,0,0,1,3.47-1.93c2.74,0,4,1.7,4,4.55v6.3h-2V162c0-2.47-.54-3.68-2.25-3.78-2.22,0-3.22,1.79-3.22,4.36v4.91h-2Z" fill="#fff"/><path d="M193.12,165.36a5.13,5.13,0,0,0,2.43.75c.9,0,2-.37,2-1.52,0-1.93-4.6-1.76-4.6-4.74,0-2.2,1.65-3.26,3.75-3.26a8.1,8.1,0,0,1,2.43.41l-.17,1.71a5.61,5.61,0,0,0-2.06-.54c-1,0-1.87.41-1.87,1.29,0,2.16,4.6,1.54,4.6,4.93,0,2.26-1.81,3.3-3.7,3.3a6.05,6.05,0,0,1-2.91-.58Z" fill="#fff"/></svg>