<svg id="adbd8e3e-f911-45fa-bbf6-bbf9f397866d" data-name="Layer 1" xmlns="http://www.w3.org/2000/svg" xmlns:xlink="http://www.w3.org/1999/xlink" viewBox="0 0 1092 124"><defs><mask id="6c013d7a-e3f2-4484-a0a1-c0d8b48ccc70" x="0" y="0.7" width="1074" height="123.3" maskUnits="userSpaceOnUse"><g id="31d8226c-85b8-4cc6-8695-366edd5e6854" data-name="mask-2"><polygon id="c8b85fa4-13a7-4c51-a6cf-80ea2ffe80e2" data-name="path-1" points="0 124 1074 124 1074 0.7 0 0.7 0 124" fill="#fff"/></g></mask></defs><g id="1a8bc9d4-ecc9-4333-891f-7736fa5ec15a" data-name="Page-1"><g id="57f608db-ab98-4830-8ad1-df2d7b6a251a" data-name="MHPS Desktop--2"><g id="f1f8c037-d8f8-404e-9eb0-17ed3c5d8cb2" data-name="Group-8"><g id="cb8845e0-adc1-4021-b3a8-410c2e82ca00" data-name="Group-25"><polygon id="4a3858b1-d9b2-4b48-bb96-2ebe87603b30" data-name="Fill-1" points="427 2 427 23 438 23 438 21.2 429.17 21.2 429.17 2 427 2" fill="#fff"/><polygon id="e15ba7ac-3314-4c82-a3a2-3ca77f2084e5" data-name="Fill-2" points="451 2 451 23 462 23 462 21.2 453.14 21.2 453.14 13.1 461.19 13.1 461.19 11.3 453.14 11.3 453.14 3.8 461.63 3.8 461.63 2 451 2" fill="#fff"/><path id="2102a2b5-ae89-49fc-b0d0-f49e23d76d96" data-name="Fill-3" d="M481.92,2,473,23h2.09l2.34-5.63h11L490.75,23H493L484.36,2ZM483,4l4.72,11.58h-9.46Z" fill="#fff"/><g id="52b98722-23ca-4879-b5c4-24a3d6c3dbee" data-name="Group-24"><path id="63532e22-3a05-43e5-8b3f-2d7568f5d713" data-name="Fill-4" d="M506.55,20.64h1.74c6.06,0,10-2.45,10-9s-3.89-8.71-8.66-8.71h-3.09ZM504.43,1.07h5.3c7.65,0,10.68,4.41,10.68,10.67,0,7.77-5.17,10.74-12.24,10.74h-3.74Z" fill="#fff"/><g mask="url(#6c013d7a-e3f2-4484-a0a1-c0d8b48ccc70)"><polygon id="df0adcbe-8aa1-45ec-9389-328788e37a00" data-name="Fill-6" points="533.94 22.48 536.05 22.48 536.05 1.07 533.94 1.07 533.94 22.48" fill="#fff"/></g><g mask="url(#6c013d7a-e3f2-4484-a0a1-c0d8b48ccc70)"><polygon id="8d65775a-d6f6-485d-8013-e96242105ff4" data-name="Fill-8" points="549.92 1.07 552.58 1.07 563.45 19.91 563.51 19.91 563.51 1.07 565.62 1.07 565.62 22.48 562.77 22.48 552.09 4.01 552.03 4.01 552.03 22.48 549.92 22.48 549.92 1.07" fill="#fff"/></g><g mask="url(#6c013d7a-e3f2-4484-a0a1-c0d8b48ccc70)"><path id="31e59588-9a46-48fd-9921-c7fb29de144d" data-name="Fill-9" d="M594.42,12.73h-4.95V10.89h7.07V21.53a16,16,0,0,1-6.65,1.32c-6.73,0-10.77-4.45-10.77-11.07S583.28.7,589.89.7a15,15,0,0,1,5.73,1l-.25,2a11.21,11.21,0,0,0-5.48-1.13c-5.53,0-8.66,3.93-8.66,9.24s3,9.23,8.66,9.23c1.32,0,3.52-.15,4.53-.77Z" fill="#fff"/></g><g mask="url(#6c013d7a-e3f2-4484-a0a1-c0d8b48ccc70)"><path id="ac960833-a1a3-4012-8e64-5cd510de36a3" data-name="Fill-10" d="M636.33,3.09l-4.65,11.82H641Zm-1-2h2.39l8.47,21.41H644l-2.3-5.73H630.88l-2.29,5.73h-2.05Z" fill="#fff"/></g><g mask="url(#6c013d7a-e3f2-4484-a0a1-c0d8b48ccc70)"><path id="ddfc42f7-9d4d-4e61-8d02-d650d127769b" data-name="Fill-11" d="M41.61,121.79C39.32,123,33.86,124,28.3,124,9.61,124,0,110.3,0,92.26S9.61,60.53,28,60.53a39,39,0,0,1,13.66,2.56L41,73.26c-2.3-1.15-5.91-3.36-11.64-3.36C20,69.9,12,76.26,12,92.26s8,22.37,17.37,22.37c5.46,0,9.08-1.33,11.64-3.18Z" fill="#fff"/></g><g mask="url(#6c013d7a-e3f2-4484-a0a1-c0d8b48ccc70)"><polygon id="d9e047b1-5961-458f-9bd8-c77718a96a20" data-name="Fill-12" points="77.93 61.41 89.21 61.41 89.21 86.52 107.46 86.52 107.46 61.41 118.75 61.41 118.75 123.12 107.46 123.12 107.46 95.89 89.21 95.89 89.21 123.12 77.93 123.12 77.93 61.41" fill="#fff"/></g><g mask="url(#6c013d7a-e3f2-4484-a0a1-c0d8b48ccc70)"><path id="d0ff5d06-8244-4561-ab3f-c41b4ca2910d" data-name="Fill-13" d="M186.71,99.6,179,70.78h-.18L170.32,99.6Zm2.38,8.67H167.94l-4.41,14.85H152.24l20.63-61.71h12.35l19.83,61.71H193.42Z" fill="#fff"/></g><g mask="url(#6c013d7a-e3f2-4484-a0a1-c0d8b48ccc70)"><polygon id="552447f3-fdaf-4f73-9364-1c4bf72fc01c" data-name="Fill-14" points="238.46 61.41 251.86 61.41 272.31 109.86 272.49 109.86 272.49 61.41 282.71 61.41 282.71 123.12 269.23 123.12 248.86 75.03 248.69 75.03 248.69 123.12 238.46 123.12 238.46 61.41" fill="#fff"/></g><g mask="url(#6c013d7a-e3f2-4484-a0a1-c0d8b48ccc70)"><path id="9ca8e4ac-3b6a-496b-bf72-8cca4370239d" data-name="Fill-15" d="M346.63,88.55h19.92v32.27c-3.17,1.68-8.64,3.18-16.66,3.18-19.75,0-30.24-13.44-30.24-31.74s10.49-31.73,30.24-31.73a40,40,0,0,1,15,2.65l-.62,10.16a27.45,27.45,0,0,0-14.2-3.8c-12,0-18.42,9.9-18.42,22.72,0,13.88,6.26,22.72,17.81,22.72a18,18,0,0,0,6.52-1.15V97.21h-9.34Z" fill="#fff"/></g><g mask="url(#6c013d7a-e3f2-4484-a0a1-c0d8b48ccc70)"><polygon id="991cfdd6-a063-4f5b-9258-8a0094e9a672" data-name="Fill-16" points="405.69 61.41 438.04 61.41 438.04 70.43 416.97 70.43 416.97 86.87 436.9 86.87 436.9 95.89 416.97 95.89 416.97 114.1 438.93 114.1 438.93 123.12 405.69 123.12 405.69 61.41" fill="#fff"/></g><g mask="url(#6c013d7a-e3f2-4484-a0a1-c0d8b48ccc70)"><polygon id="ed7c25e6-70f0-4692-b1ce-1ddd4eaa0db7" data-name="Fill-17" points="525.67 123.12 536.95 123.12 536.95 61.41 525.67 61.41 525.67 123.12" fill="#fff"/></g><g mask="url(#6c013d7a-e3f2-4484-a0a1-c0d8b48ccc70)"><polygon id="d5baa2a9-5e15-498a-8101-dd9411e8bdc5" data-name="Fill-18" points="576.45 61.41 589.85 61.41 610.3 109.86 610.48 109.86 610.48 61.41 620.7 61.41 620.7 123.12 607.22 123.12 586.85 75.03 586.67 75.03 586.67 123.12 576.45 123.12 576.45 61.41" fill="#fff"/></g><g mask="url(#6c013d7a-e3f2-4484-a0a1-c0d8b48ccc70)"><path id="e2307612-bf13-4cce-806e-26f942e7e55f" data-name="Fill-19" d="M724.46,90.32c7,0,10.14-3.45,10.14-10.17s-3.09-10.08-10.14-10.08h-4.23V90.32ZM708.94,61.41h17.64c12.69,0,19.3,7.07,19.3,18.74S739.27,99,726.58,99h-6.35v24.14H708.94Z" fill="#fff"/></g><g mask="url(#6c013d7a-e3f2-4484-a0a1-c0d8b48ccc70)"><path id="ad669d0e-8ef6-46fd-bf17-c08a2cb6be7e" data-name="Fill-20" d="M803.71,115.34c7.14,0,12.87-6.1,12.87-23.08s-5.73-23.07-12.87-23.07-12.87,6.1-12.87,23.07,5.73,23.08,12.87,23.08m0-54.81c12.78,0,24.51,9.54,24.51,31.73S816.49,124,803.71,124s-24.51-9.55-24.51-31.74,11.73-31.73,24.51-31.73" fill="#fff"/></g><g mask="url(#6c013d7a-e3f2-4484-a0a1-c0d8b48ccc70)"><polygon id="ee03be96-c9c7-4183-8ba0-4cf0cc4cfbab" data-name="Fill-21" points="893.98 72.55 893.81 72.55 884.11 123.12 870.8 123.12 858.37 61.41 868.95 61.41 877.59 108.97 877.76 108.97 887.02 61.41 900.77 61.41 909.94 108.97 910.12 108.97 919.11 61.41 929.34 61.41 916.64 123.12 903.15 123.12 893.98 72.55" fill="#fff"/></g><g mask="url(#6c013d7a-e3f2-4484-a0a1-c0d8b48ccc70)"><polygon id="8e08c95c-f7f4-4b27-b277-adc464945a24" data-name="Fill-22" points="963.53 61.41 995.89 61.41 995.89 70.43 974.82 70.43 974.82 86.87 994.74 86.87 994.74 95.89 974.82 95.89 974.82 114.1 996.77 114.1 996.77 123.12 963.53 123.12 963.53 61.41" fill="#fff"/></g><g mask="url(#6c013d7a-e3f2-4484-a0a1-c0d8b48ccc70)"><path id="8be9197f-7cf6-4d68-bcc4-5380fa73c08a" data-name="Fill-23" d="M1049.4,88.29c6,0,10-3.1,10-9.38,0-7.07-3.7-8.84-10-8.84h-4.58V88.29Zm-15.87-26.88h19.22c10.93,0,18.34,5,18.34,16.27,0,8-5,13.43-11.9,14.5v.26c2.29.35,4.85,1.41,6.78,7.16l8,23.52h-12l-6.09-20.07c-1.5-4.86-4.4-6.45-8.55-6.45h-2.55v26.52h-11.29Z" fill="#fff"/></g></g></g><g id="d94493eb-e904-4534-9e48-f44c234537fd" data-name="Group-6"><polygon id="03b6406c-9433-41ba-8510-a5a859d99ef3" data-name="Fill-1" points="345 107 423 107 423 104 345 104 345 107" fill="#e31f27"/><polygon id="6201aadc-df5b-4335-9e8e-943ad85538eb" data-name="Fill-2" points="97 72 145 72 145 69 97 69 97 72" fill="#e31f27"/><polygon id="2834aa32-fe96-4069-b7ba-b9d574247539" data-name="Fill-3" points="1045 77 1092 77 1092 74 1045 74 1045 77" fill="#e31f27"/><path id="15036019-9ce6-4d28-93fe-8203b1c958b7" data-name="Fill-4" d="M812.36,109H795a13.25,13.25,0,0,0,2.3,3H872v-3Z" fill="#e31f27"/></g></g></g></g></svg>