<svg id="3098eee7-55ae-420f-b6a2-3a7579dade30" data-name="Layer 1" xmlns="http://www.w3.org/2000/svg" viewBox="0 0 528 124"><g id="33f64dd8-5496-440e-99f9-b223c4eb66fb" data-name="Page-1"><g id="6d7c715b-4f4a-436f-92c5-f33f810cc6d5" data-name="MHPS Desktop--2"><g id="77ed47df-883e-4bd4-abb4-7646f836273d" data-name="Group-9"><path id="8388470d-7745-4022-8cee-14c421395ffe" data-name="Five-Important-Chang" d="M49.75,43V2.52h22.5V8.9H57.87v10H71.56v6.38H57.87V43ZM81,43V13.13h7.77V43ZM81,7.68V.25h7.77V7.68ZM107.41,43,96.33,13.13h8.35l7.43,21.75h.11l7.2-21.75h7.77L116.17,43Zm32.71-17.86h13.23c-.23-3.77-2-7-6.32-7S140.47,21.13,140.12,25.14ZM158.57,35v6.32A20.58,20.58,0,0,1,148.3,43.7c-9.86,0-15.6-5.69-15.6-15.49,0-8.64,4.58-15.78,13.86-15.78,11.08,0,14.21,7.6,14.21,18H140.12c.35,4.82,3.72,7.54,8.53,7.54A20.19,20.19,0,0,0,158.57,35Zm29.88,8V2.52h8.12V43Zm18.73,0V13.13h7.25v4.18h.12a10.52,10.52,0,0,1,8.88-4.88c4.17,0,7.13,1.57,8.81,5.28,1.8-3.59,5.69-5.28,9.34-5.28,7.37,0,9.45,5.05,9.45,11.72V43h-7.77V25.19c0-2.78,0-6.72-4.47-6.72-5.16,0-5.8,6.14-5.8,10V43h-7.77V25.19c0-2.78,0-6.72-4.46-6.72-5.16,0-5.8,6.14-5.8,10V43Zm54.41,12.18v-42H269v4.23h.11c1.74-2.9,4.7-4.93,9.28-4.93,9.17,0,12.53,7.31,12.53,15.55s-3.36,15.72-12.7,15.72a10.23,10.23,0,0,1-8.76-4.12h-.12v15.6Zm14.79-36.71c-5,0-7,5.33-7,9.51s1.69,9.68,6.85,9.68,6.55-5.56,6.55-9.68S281.43,18.47,276.38,18.47Zm21.47,9.8c0-9.86,6.78-15.84,15.6-15.84s15.66,6,15.66,15.84c0,8.58-5.74,15.43-15.66,15.43S297.85,36.85,297.85,28.27Zm8.12-.93c0,4.93,1.56,10.32,7.48,10.32S321,32.33,321,27.34c0-4.58-2.44-8.87-7.54-8.87S306,22.87,306,27.34ZM338.1,43V13.13H345v6.79h.11c.35-2.79,3.54-7.49,8.18-7.49a8.27,8.27,0,0,1,2.38.24V20.5a7.88,7.88,0,0,0-3.48-.64c-6.32,0-6.32,7.89-6.32,12.18V43Zm27.67-9V18.81H360V13.13h5.74v-6l7.78-2.5v8.47h6.9v5.68h-6.9V32.73c0,2.56.69,4.93,3.65,4.93a7,7,0,0,0,3.54-.81L381,43a20.55,20.55,0,0,1-5.74.7C369.14,43.7,365.77,39.93,365.77,34Zm24.31-12.64-.23-6.67a26.55,26.55,0,0,1,10.38-2.27c9.1,0,12.88,3.77,12.88,12.59v3.83c0,3,.05,5.28.11,7.48s.17,4.35.35,6.67h-6.84a33.26,33.26,0,0,1-.35-4.47h-.12A10.66,10.66,0,0,1,397,43.7c-5.28,0-10.44-3.19-10.44-8.88,0-4.46,2.14-7.07,5.1-8.52s6.79-1.74,10-1.74H406c0-4.82-2.15-6.44-6.73-6.44A15.56,15.56,0,0,0,390.08,21.37Zm3.94,13C394,36.91,396.17,38,399,38a6.57,6.57,0,0,0,5.45-2.67A9.85,9.85,0,0,0,406,29.2h-3.36C399.18,29.2,394,29.78,394,34.36ZM423.49,43V13.13h7.37v4.06H431c2.44-3.42,5.74-4.76,9.8-4.76,7.08,0,10.15,5,10.15,11.72V43h-7.77V27.05c0-3.65,0-8.58-5-8.58-5.63,0-6.85,6.09-6.85,9.91V43Zm40.72-9V18.81h-5.74V13.13h5.74v-6L472,4.66v8.47h6.91v5.68H472V32.73c0,2.56.7,4.93,3.66,4.93a6.93,6.93,0,0,0,3.53-.81l.24,6.15a20.65,20.65,0,0,1-5.74.7C467.58,43.7,464.21,39.93,464.21,34ZM31.09,103.63l.35,6.79a40.9,40.9,0,0,1-9.22,1.28C9.11,111.7,0,105.14,0,91.45,0,77.59,8.47,69.82,22.22,69.82a26.76,26.76,0,0,1,9.16,1.68l-.58,6.85A16.72,16.72,0,0,0,22,76.2c-8.35,0-13.57,6.38-13.57,14.67s5.1,14.45,13.75,14.45A22.48,22.48,0,0,0,31.09,103.63ZM39.45,111V67.5h7.77V85.19h.11a11.14,11.14,0,0,1,9.4-4.76c7.08,0,10.15,5,10.15,11.72V111H59.11v-16c0-3.65-.06-8.58-5-8.58-5.62,0-6.84,6.09-6.84,9.91V111ZM79.18,89.37,79,82.7a26.55,26.55,0,0,1,10.38-2.27c9.11,0,12.88,3.77,12.88,12.59v3.83c0,3,.05,5.28.11,7.48s.18,4.35.35,6.67H95.83a37,37,0,0,1-.35-4.47h-.12a10.66,10.66,0,0,1-9.22,5.17c-5.28,0-10.44-3.19-10.44-8.88,0-4.46,2.15-7.07,5.1-8.52s6.79-1.74,10-1.74h4.29c0-4.82-2.15-6.44-6.73-6.44A15.59,15.59,0,0,0,79.18,89.37Zm3.94,13c0,2.55,2.15,3.65,4.93,3.65a6.6,6.6,0,0,0,5.46-2.67,9.91,9.91,0,0,0,1.62-6.14H91.77C88.29,97.2,83.12,97.78,83.12,102.36ZM112.59,111V81.13H120v4.06h.11c2.44-3.42,5.75-4.76,9.81-4.76,7.07,0,10.15,5,10.15,11.72V111h-7.78v-16c0-3.65-.05-8.58-5-8.58-5.63,0-6.85,6.09-6.85,9.91V111Zm51-6c4.87,0,6.84-4.24,6.84-9.22s-2-9.28-6.49-9.28c-5.28,0-7,4.87-7,9.45C157,100,159.11,105,163.58,105Zm7.19-23.84h7.42v27c0,8.12-3.24,15.78-15.77,15.78a26.4,26.4,0,0,1-10.33-2l.64-6.62c2.38,1.28,6.27,2.61,8.7,2.61,8.59,0,9-6.43,9-11.6h-.11c-1.45,2.56-4.93,4.76-9.28,4.76-8.82,0-12.18-7.08-12.18-15.08,0-7.19,3.71-15.49,12.64-15.49,3.94,0,7,1.34,9.16,4.76h.12Zm23.67,12h13.22c-.23-3.77-2-7-6.32-7S194.79,89.13,194.44,93.14ZM212.88,103v6.32a20.57,20.57,0,0,1-10.26,2.38C192.76,111.7,187,106,187,96.21c0-8.64,4.59-15.78,13.87-15.78,11.07,0,14.21,7.6,14.21,18H194.44c.35,4.82,3.71,7.54,8.52,7.54A20.19,20.19,0,0,0,212.88,103Zm29.3-21.46-.53,5.85a19,19,0,0,0-7-1.27c-2.08,0-4.58.75-4.58,3.3,0,4.76,13.52,1.74,13.52,12.53,0,7-6.21,9.75-12.53,9.75a35,35,0,0,1-8.82-1.28l.47-6.38a17,17,0,0,0,7.65,2c2,0,5.11-.75,5.11-3.65,0-5.86-13.52-1.86-13.52-12.65,0-6.43,5.63-9.28,11.72-9.28A35.41,35.41,0,0,1,242.18,81.54ZM271.42,111V81.13h7.77V111Zm0-35.32V68.25h7.77v7.43ZM290.1,111V81.13h7.36v4.06h.12c2.43-3.42,5.74-4.76,9.8-4.76,7.08,0,10.15,5,10.15,11.72V111h-7.77v-16c0-3.65-.06-8.58-5.05-8.58-5.62,0-6.84,6.09-6.84,9.91V111Zm65.14-34.1V89.25h2.84c4.06,0,7.71-1.33,7.71-6s-3.53-6.32-7.71-6.32ZM347.12,111V70.52h10.26c8.82,0,16.88,2.55,16.88,12.23,0,9.46-6.9,12.88-15.6,12.88h-3.42V111Zm33.06-14.73c0-9.86,6.79-15.84,15.6-15.84s15.66,6,15.66,15.84c0,8.58-5.74,15.43-15.66,15.43S380.18,104.85,380.18,96.27Zm8.12-.93c0,4.93,1.57,10.32,7.48,10.32s7.54-5.33,7.54-10.32c0-4.58-2.43-8.87-7.54-8.87S388.3,90.87,388.3,95.34ZM427,111,416.9,81.13h8.24l6.61,22.1h.11l6-22.1h9l6.5,22.1h.12l6.2-22.1h7.43L458,111h-9.16l-6.5-22.79h-.11L435.87,111Zm53.08-17.86h13.22c-.23-3.77-2-7-6.32-7S480.41,89.13,480.07,93.14ZM498.51,103v6.32a20.58,20.58,0,0,1-10.27,2.38c-9.86,0-15.6-5.69-15.6-15.49,0-8.64,4.58-15.78,13.86-15.78,11.08,0,14.21,7.6,14.21,18H480.07c.34,4.82,3.71,7.54,8.52,7.54A20.19,20.19,0,0,0,498.51,103Zm11.2,8V81.13h6.9v6.79h.12c.34-2.79,3.53-7.49,8.17-7.49a8.2,8.2,0,0,1,2.38.24V88.5a7.85,7.85,0,0,0-3.48-.64c-6.32,0-6.32,7.89-6.32,12.18v11Z"/><polygon id="2ea504be-69d4-46b7-b6e0-a00ff6ba1b1b" data-name="Path" points="36.33 33.5 36.33 31.5 81 31.5 81 33.5 36.33 33.5" fill="#d6001c"/><polygon id="a76e9837-6dac-4407-a81d-9f02a3b5eae2" data-name="Path-Copy" points="388 97.5 388 95.5 434 95.5 434 97.5 388 97.5" fill="#d6001c"/></g></g></g></svg>